<svg xmlns="http://www.w3.org/2000/svg" width="500" height="388" fill="none">
	<g clip-path="url(#a)">
		<mask id="b" width="59" height="58" x="141" y="330" maskUnits="userSpaceOnUse" style="mask-type:luminance">
			<path fill="#fff" d="M199.041 330.519h-57.554V388h57.554v-57.481Z" />
		</mask>
		<g mask="url(#b)">
			<path fill="#C1D0FF"
				d="M189.035 359.259c0 11.389-9.244 20.619-20.647 20.619-11.402 0-20.645-9.23-20.645-20.619 0-11.388 9.243-20.62 20.645-20.62 11.403 0 20.647 9.232 20.647 20.62Z" />
			<path fill="#0F62FE"
				d="M188.076 342.616c1.176 1.496.633 4.149-1.234 7.384-2.597 4.502-7.758 10.133-14.426 15.361-6.093 4.778-12.218 8.254-17.042 9.925-4.245 1.472-7.481 1.541-8.796-.133-2.813-3.577 4.198-13.76 15.658-22.745 11.461-8.985 23.028-13.369 25.84-9.792Zm-39.066 30.629c.863 1.1 2.661 1.346 5.067.87 4.508-.896 11.146-4.341 17.743-9.514 7.366-5.774 12.65-12.11 14.02-16.348.512-1.582.478-2.872-.196-3.731-2.482-3.155-12.694.713-22.811 8.645-10.116 7.932-16.305 16.92-13.823 20.078Zm43.573-13.361a1.032 1.032 0 0 1 .897.495l5.425 9.007a.951.951 0 0 1 0 .991l-5.425 9.006a1.02 1.02 0 0 1-.379.362 1.068 1.068 0 0 1-.518.133h-10.85a1.047 1.047 0 0 1-.899-.494l-5.424-9.007a.955.955 0 0 1 0-.991l5.424-9.006a1.03 1.03 0 0 1 .381-.363 1.07 1.07 0 0 1 .518-.133h10.85Zm-5.426 6.616c-1.948 0-3.528 1.513-3.528 3.381 0 1.869 1.58 3.382 3.528 3.382 1.95 0 3.529-1.513 3.529-3.382 0-1.868-1.579-3.381-3.529-3.381Z" />
			<path fill="#E8E8E8" fill-opacity=".1"
				d="M189.035 359.259c0 11.389-9.244 20.619-20.647 20.619-11.402 0-20.645-9.23-20.645-20.619 0-11.388 9.243-20.62 20.645-20.62 11.403 0 20.647 9.232 20.647 20.62Z" />
			<path fill="#fff" fill-opacity=".6"
				d="M168.388 378.629c-10.709 0-19.394-8.672-19.394-19.37 0-10.697 8.685-19.37 19.394-19.37 10.712 0 19.395 8.673 19.395 19.37 0 10.698-8.683 19.37-19.395 19.37Zm0 1.249c11.403 0 20.647-9.23 20.647-20.619 0-11.388-9.244-20.62-20.647-20.62-11.402 0-20.645 9.232-20.645 20.62 0 11.389 9.243 20.619 20.645 20.619Z" />
			<path fill="#fff"
				d="M155.349 349.91c-.393.653-.114 1.486.567 1.829.682.342 1.508.063 1.911-.583a15.363 15.363 0 0 1 6.944-5.988c.7-.304 1.096-1.079.856-1.802-.239-.724-1.024-1.121-1.727-.828a18.144 18.144 0 0 0-8.551 7.372Zm-1.655 3.575c-.243.722.21 1.474.95 1.662l.077.019c.696.177 1.4-.247 1.634-.927.237-.679-.054-1.445-.712-1.736l-.072-.034c-.698-.309-1.521.005-1.776.724l-.1.292h-.001Z" />
			<path fill="#0F62FE"
				d="M171.82 364.602c-6.597 5.172-13.235 8.617-17.743 9.513l1.298 1.171c4.823-1.671 10.947-5.148 17.042-9.925 6.666-5.227 11.828-10.861 14.425-15.361l-1-1.746c-1.372 4.236-6.656 10.572-14.022 16.348Z" />
		</g>
		<path fill="#C1D0FF"
			d="M39.97 330.873c-1.299-.389-1.274-2.236.035-2.595l22.31-6.093a1.34 1.34 0 0 1 .663-.012l20.496 4.766c1.332.309 1.412 2.171.113 2.596l-22.638 7.404a1.352 1.352 0 0 1-.81.008l-20.169-6.074Zm-4.963 39.359a1.346 1.346 0 0 1-.89-1.268v-34.248a1.35 1.35 0 0 1 1.744-1.291l21.627 6.579c.57.174.959.697.959 1.292v35.563a1.345 1.345 0 0 1-.577 1.107 1.35 1.35 0 0 1-1.239.162l-21.626-7.896h.002Zm27.496 6.764c0 .898.862 1.546 1.727 1.297l22.978-6.624c.579-.165.976-.695.976-1.295v-35.686a1.352 1.352 0 0 0-1.726-1.298l-22.978 6.625a1.349 1.349 0 0 0-.977 1.297v35.684Z" />
		<path fill="#0F62FE"
			d="M72.486 353.49c0 2.772-1.102 5.429-3.065 7.39a10.47 10.47 0 0 1-7.4 3.06 10.47 10.47 0 0 1-7.398-3.06 10.446 10.446 0 0 1 0-14.78 10.466 10.466 0 0 1 7.399-3.061c2.775 0 5.437 1.1 7.4 3.061a10.443 10.443 0 0 1 3.064 7.39Z" />
		<path fill="#E8E8E8" fill-opacity=".1"
			d="M39.97 331.072c-1.299-.4-1.275-2.287.035-2.653l22.31-6.234c.216-.06.444-.065.663-.012l20.496 4.874c1.332.316 1.412 2.223.113 2.656l-22.638 7.57a1.33 1.33 0 0 1-.81.009l-20.169-6.21Zm-4.963 40.246a1.378 1.378 0 0 1-.89-1.299V335c0-.927.878-1.591 1.744-1.32l21.626 6.728a1.376 1.376 0 0 1 .96 1.321v36.367c0 .958-.933 1.625-1.816 1.296l-21.626-8.074h.002Zm27.496 6.917c0 .919.862 1.582 1.727 1.326l22.976-6.772a1.372 1.372 0 0 0 .977-1.327V334.97c0-.918-.862-1.58-1.727-1.324l-22.978 6.773a1.379 1.379 0 0 0-.977 1.325v36.491h.002Z" />
		<path fill="#fff"
			d="M51.575 358.717a1.739 1.739 0 0 1 1.61 1.078c.088.212.133.438.132.667l-.014 10.452a1.74 1.74 0 0 1-1.746 1.738 1.747 1.747 0 0 1-1.742-1.744l.014-10.451a1.747 1.747 0 0 1 .512-1.231 1.733 1.733 0 0 1 1.234-.509ZM51.577 356.974a1.737 1.737 0 0 1-1.233-.511 1.734 1.734 0 0 1-.376-1.898 1.74 1.74 0 0 1 1.612-1.074 1.742 1.742 0 1 1-.004 3.483Z" />
		<path fill="#fff" fill-opacity=".6"
			d="m62.672 323.518-22.311 6.231 20.168 6.211 22.638-7.571-20.493-4.871h-.002ZM35.47 335v35.021l21.626 8.075v-36.367L35.47 335Zm28.384 43.235 22.978-6.773v-36.49l-22.978 6.776v36.49-.003Zm-23.85-49.816 22.315-6.234c.217-.06.445-.065.663-.012l20.493 4.874c1.332.316 1.412 2.223.113 2.656l-22.638 7.57a1.33 1.33 0 0 1-.81.009l-20.169-6.21c-1.299-.4-1.275-2.287.035-2.653h-.002Zm-5.886 41.6V335c0-.927.878-1.591 1.744-1.32l21.626 6.728a1.375 1.375 0 0 1 .96 1.321v36.367c0 .958-.933 1.625-1.816 1.296l-21.626-8.074a1.379 1.379 0 0 1-.888-1.299Zm30.111 9.541c-.865.256-1.726-.409-1.726-1.326v-36.491a1.373 1.373 0 0 1 .976-1.326l22.978-6.773c.865-.254 1.727.408 1.727 1.328v36.491a1.374 1.374 0 0 1-.977 1.325l-22.978 6.775v-.003Z" />
		<path fill="#DFDFDF" d="m397.402 307.001-192.084-40.777-12.633 59.36 192.084 40.777 12.633-59.36Z" />
		<path fill="#DFF4F9"
			d="m174.083 324.144 233.449 49.559c13.888 2.948 27.589-5.939 30.542-19.81l47.66-223.938c2.952-13.871-5.946-27.555-19.835-30.503l-210.232-44.63a2.465 2.465 0 0 0-2.022.465 2.451 2.451 0 0 0-.945 1.845 36.382 36.382 0 0 1-.789 6.208c-4.37 20.533-24.658 33.685-45.226 29.319a36.924 36.924 0 0 1-6.293-1.931 2.459 2.459 0 0 0-3.333 1.76L154.248 293.64c-2.951 13.873 5.946 27.557 19.835 30.505Zm290.795-219.891c11.238 2.386 18.437 13.458 16.049 24.682l-47.66 223.938c-2.389 11.224-13.474 18.414-24.713 16.029l-233.448-49.559c-11.239-2.387-18.439-13.458-16.05-24.682l42.22-198.38c1.441.471 2.905.865 4.388 1.18 23.218 4.929 46.121-9.919 51.054-33.1.298-1.393.523-2.782.675-4.154l207.485 44.046Z" />
		<path fill="#DFF4F9" d="M478.868 150.439 199.85 91.207l-1.022 4.8 279.017 59.233 1.023-4.801Z" />
		<path fill="#F58E6F"
			d="M461.851 125.439a8.525 8.525 0 0 1-6.786 6.603 8.55 8.55 0 0 1-6.384-1.354 8.532 8.532 0 0 1-3.555-5.467 8.513 8.513 0 0 1 3.74-8.695 8.535 8.535 0 0 1 11.796 2.504 8.511 8.511 0 0 1 1.189 6.409ZM434.523 119.638a8.511 8.511 0 0 1-3.697 5.371 8.535 8.535 0 0 1-11.796-2.504 8.511 8.511 0 0 1 2.507-11.781 8.54 8.54 0 0 1 6.417-1.188 8.524 8.524 0 0 1 5.379 3.693 8.507 8.507 0 0 1 1.19 6.409ZM407.194 113.836a8.512 8.512 0 0 1-3.696 5.372 8.533 8.533 0 0 1-11.795-2.504 8.503 8.503 0 0 1-1.19-6.409 8.516 8.516 0 0 1 3.697-5.372 8.535 8.535 0 0 1 11.796 2.504 8.507 8.507 0 0 1 1.188 6.409Z" />
		<path fill="#13C2C2"
			d="m325.394 216.424 95.351 20.242a2.46 2.46 0 0 0 2.913-1.891l12.525-58.851a2.453 2.453 0 0 0-1.893-2.91l-95.349-20.241a2.458 2.458 0 0 0-2.913 1.889l-12.526 58.851a2.454 2.454 0 0 0 1.892 2.911Zm93.968 14.931-90.542-19.222 11.504-54.051 90.542 19.222-11.504 54.051Z" />
		<path fill="#71CCE0" d="m424.715 181.294-80.396-17.068-9.348 43.918 80.397 17.067 9.347-43.917Z" />
		<path fill="#13C2C2"
			d="m351.689 270.826 59.114 12.549a2.46 2.46 0 0 0 2.914-1.889l5.221-24.528a2.47 2.47 0 0 0-.343-1.847 2.469 2.469 0 0 0-1.551-1.064l-59.114-12.549a2.452 2.452 0 0 0-.958-.012 2.443 2.443 0 0 0-1.578 1.022c-.182.266-.31.564-.377.881l-5.221 24.526a2.453 2.453 0 0 0 1.893 2.911Zm57.732 7.238-54.307-11.528 4.199-19.727 54.307 11.528-4.199 19.727Z" />
		<path fill="#F58E6F" d="m407.469 262.328-44.162-9.375-2.042 9.592 44.162 9.376 2.042-9.593Z" />
		<path fill="#13C2C2"
			d="m277.941 255.17 57.618 12.231a2.453 2.453 0 0 0 2.915-1.889l5.219-24.528a2.447 2.447 0 0 0-1.012-2.533 2.46 2.46 0 0 0-.88-.377l-57.618-12.232a2.452 2.452 0 0 0-2.536 1.011 2.438 2.438 0 0 0-.377.879l-5.221 24.528a2.452 2.452 0 0 0 1.892 2.91Zm56.236 6.92-52.81-11.21 4.198-19.727 52.81 11.212-4.198 19.725Z" />
		<path fill="#F58E6F" d="m332.224 246.355-42.664-9.058-2.041 9.593 42.663 9.057 2.042-9.592Z" />
		<path fill="#13C2C2"
			d="m202.697 239.197 59.114 12.549a2.457 2.457 0 0 0 2.914-1.891l5.22-24.526a2.452 2.452 0 0 0-1.892-2.912l-59.114-12.548a2.42 2.42 0 0 0-.959-.012c-.317.058-.62.178-.89.354a2.467 2.467 0 0 0-1.066 1.547l-5.219 24.528a2.453 2.453 0 0 0 1.892 2.911Zm57.732 7.238-54.307-11.529 4.198-19.726 54.307 11.528-4.198 19.727Z" />
		<path fill="#F58E6F" d="m258.476 230.698-44.161-9.374-2.042 9.592 44.161 9.376 2.042-9.594Z" />
		<path fill="#13C2C2"
			d="m316.83 147.136-90.453-19.203-1.022 4.801 90.453 19.203 1.022-4.801Zm-6.192 29.095-90.453-19.202-1.022 4.801 90.453 19.202 1.022-4.801Zm-6.192 29.095-90.454-19.202-1.022 4.801 90.453 19.202 1.023-4.801Zm76.488 110.559-164.349-34.89-1.021 4.801 164.348 34.89 1.022-4.801Zm-5.403 25.39-164.349-34.89-1.022 4.801 164.35 34.89 1.021-4.801ZM205.672 97.46c23.209 4.927 46.106-9.923 51.04-33.104 4.933-23.18-9.936-46.049-33.146-50.976-23.211-4.928-46.108 9.922-51.042 33.104-4.933 23.181 9.936 46.049 33.148 50.976Zm16.871-79.28c20.561 4.365 33.733 24.622 29.362 45.156-4.37 20.533-24.652 33.689-45.212 29.324-20.561-4.365-33.731-24.622-29.362-45.156 4.37-20.534 24.652-33.689 45.212-29.324Z" />
		<path fill="#FFD452"
			d="M243.751 61.604a29.747 29.747 0 0 1-12.912 18.763 29.813 29.813 0 0 1-22.413 4.148 29.784 29.784 0 0 1-18.786-12.894 29.716 29.716 0 0 1-4.154-22.385 29.742 29.742 0 0 1 12.911-18.763 29.816 29.816 0 0 1 22.414-4.148 29.782 29.782 0 0 1 18.785 12.894 29.72 29.72 0 0 1 4.155 22.385Z" />
		<path fill="#13C2C2"
			d="M210.405 87.346a32.32 32.32 0 0 0 5.307.262l-.165-4.905a27.374 27.374 0 0 1-4.494-.223l-.648 4.866Zm-5.184-1.123 1.428-4.697a27.353 27.353 0 0 1-4.186-1.655l-2.182 4.398a32.262 32.262 0 0 0 4.94 1.954Zm15.772.769a32.188 32.188 0 0 0 5.105-1.479l-1.754-4.585c-1.404.536-2.85.955-4.324 1.253l.973 4.81Zm-25.262-5.467 2.88-3.976a27.234 27.234 0 0 1-3.414-2.926l-3.497 3.45a32.22 32.22 0 0 0 4.031 3.453Zm35.156 1.695a32.522 32.522 0 0 0 4.349-3.043l-3.141-3.775a27.527 27.527 0 0 1-3.689 2.582l2.481 4.236Zm-42.597-9.214 4.015-2.832a27.426 27.426 0 0 1-2.291-3.875l-4.423 2.14a32.627 32.627 0 0 0 2.699 4.567Zm50.738 2.457a32.07 32.07 0 0 0 3.129-4.285l-4.197-2.554a27.163 27.163 0 0 1-2.651 3.63l3.719 3.21ZM183.677 64.49l4.714-1.387a26.98 26.98 0 0 1-.909-4.403l-4.879.588c.214 1.76.572 3.5 1.074 5.202Zm60.86 2.943a32.51 32.51 0 0 0 1.563-5.068l-4.799-1.057a27.459 27.459 0 0 1-1.326 4.299l4.562 1.826Zm-62.132-13.449 4.91.224a27.35 27.35 0 0 1 .575-4.462l.092-.424-4.79-1.094-.112.51a32.47 32.47 0 0 0-.675 5.246Zm59.506 2.865 4.908.264c.095-1.77.043-3.545-.156-5.306l-4.882.55c.167 1.492.211 2.994.13 4.492Zm-52.568-11.814a27.083 27.083 0 0 1 2.045-4.002l-4.175-2.587a32.12 32.12 0 0 0-2.417 4.727l4.547 1.862Zm51.562 2.912 4.727-1.349a32.564 32.564 0 0 0-1.875-4.964l-4.442 2.103a27.18 27.18 0 0 1 1.59 4.21Zm-46.837-10.523a27.556 27.556 0 0 1 3.24-3.121l-3.11-3.8a32.3 32.3 0 0 0-3.822 3.683l3.692 3.238Zm42.988 2.42 4.038-2.799a32.502 32.502 0 0 0-3.377-4.093l-3.524 3.422a27.245 27.245 0 0 1 2.863 3.47Zm-36.038-8.095a27.631 27.631 0 0 1 4.077-1.913l-1.716-4.599a32.427 32.427 0 0 0-4.808 2.255l2.447 4.257Zm29.783 1.671 2.911-3.953a32.018 32.018 0 0 0-4.527-2.78l-2.216 4.38a27.148 27.148 0 0 1 3.832 2.353Zm-21.372-4.802a27.185 27.185 0 0 1 4.475-.486l-.123-4.907a32.18 32.18 0 0 0-5.287.575l.935 4.818Zm13.367.76 1.465-4.685a32.931 32.931 0 0 0-5.177-1.163l-.685 4.86c1.491.211 2.961.541 4.397.988Zm-2.518 11.25-4.806-1.021-6.723 31.586 4.807 1.02 6.722-31.586Z" />
		<path fill="#13C2C2"
			d="m230.838 56.867-31.626-6.714-1.021 4.801 31.624 6.714 1.023-4.801ZM182.27 323.373l4.807 1.02 13.825-64.96 203.299 43.158-13.825 64.96 4.807 1.02 14.336-67.36a2.457 2.457 0 0 0-1.892-2.911L199.52 254.122a2.459 2.459 0 0 0-2.913 1.89l-14.337 67.361Z" />
		<mask id="c" width="82" height="83" x="73" y="41" maskUnits="userSpaceOnUse" style="mask-type:luminance">
			<path fill="#fff" d="M115.053 41.914 73.141 81.309l39.445 41.858 41.912-39.395-39.445-41.858Z" />
		</mask>
		<g mask="url(#c)">
			<path fill="#3E80F6"
				d="M113.166 87.009c-5.086 4.78-13.089 4.538-17.876-.541l-1.926-2.044c-4.786-5.08-4.544-13.074.542-17.854l9.209-8.656 10.593 11.241c4.787 5.08 4.545 13.073-.542 17.854Z" />
			<path fill="#0C2E97"
				d="m139.623 92.974-22.101 20.774c-2.66 2.501-6.989 1.755-8.68-1.471l-3.475-6.722c-1.505-2.942-.891-6.519 1.503-8.77l1.349-1.267a5.824 5.824 0 0 1 4.169-1.582l4.721.143c.085.003.164 0 .248.002a2.806 2.806 0 0 0 2.639-2.716l.138-4.71a5.82 5.82 0 0 1 1.834-4.06l1.355-1.273c2.394-2.251 6-2.641 8.853-.967l6.504 3.876c3.121 1.881 3.603 6.243.943 8.743Z" />
			<path fill="#1AADF9"
				d="m132.477 88.206-4.737 4.453a1.462 1.462 0 0 1-2.063-.062 1.456 1.456 0 0 1 .063-2.06l4.737-4.453a1.457 1.457 0 1 1 2 2.122Z" />
			<path fill="#FF4F4F"
				d="m124.054 59.5-2.079 1.954-.453-.481.736-.692a.971.971 0 1 0-1.334-1.415l-.736.692-.736-.78a4.589 4.589 0 0 0-.437-5.744 4.607 4.607 0 0 0-6.498-.199 4.591 4.591 0 0 0-.195 6.49 4.603 4.603 0 0 0 5.713.784l5.108 5.42a.973.973 0 0 0 1.416-1.332l-1.251-1.328 2.079-1.955a.973.973 0 0 0-1.333-1.415Zm-10.316-1.507a2.648 2.648 0 0 1 .113-3.743c1.064-1 2.745-.95 3.748.114a2.649 2.649 0 0 1-3.861 3.629Z" />
		</g>
		<mask id="d" width="80" height="79" x="11" y="117" maskUnits="userSpaceOnUse" style="mask-type:luminance">
			<path fill="#fff" d="M40.283 117.358 11.99 167.415l50.12 28.256 28.293-50.056-50.12-28.257Z" />
		</mask>
		<g mask="url(#d)">
			<path fill="#C1D0FF"
				d="M29.885 177.504a4.134 4.134 0 0 1-1.217-1.045 4.109 4.109 0 0 1-.343-4.553l24.268-42.938a4.117 4.117 0 0 1 5.605-1.559l22.69 12.793a4.108 4.108 0 0 1 1.56 5.597L58.18 188.737a4.113 4.113 0 0 1-5.605 1.559l-22.69-12.792Z" />
			<path fill="#0F62FE"
				d="M34.77 143.361c-2.778-1.951-.356-6.234 2.752-4.868 2.055.902 4.288-.844 3.904-3.052-.582-3.341 4.162-4.661 5.393-1.5.814 2.09 3.63 2.431 4.921.598 1.955-2.773 6.245-.354 4.876 2.748-.903 2.054.846 4.284 3.056 3.901 3.347-.581 4.668 4.156 1.502 5.385-2.092.813-2.435 3.626-.599 4.916 2.776 1.953.356 6.237-2.752 4.87-2.055-.903-4.288.844-3.904 3.052.582 3.341-4.163 4.662-5.393 1.5-.814-2.09-3.63-2.432-4.922-.599-1.955 2.774-6.244.356-4.876-2.748.904-2.053-.845-4.282-3.056-3.899-3.346.581-4.667-4.158-1.502-5.387 2.093-.813 2.435-3.625.6-4.916v-.001Zm16.426-2.17a7.183 7.183 0 0 0-5.446-.662 7.179 7.179 0 0 0-4.32 3.377 7.158 7.158 0 0 0 .598 7.933 7.17 7.17 0 0 0 7.566 2.483 7.163 7.163 0 0 0 4.32-3.377 7.151 7.151 0 0 0-2.718-9.754Zm-.777 7.783a3.146 3.146 0 0 0-1.196-4.292 3.156 3.156 0 0 0-4.297 1.195 3.148 3.148 0 0 0 1.196 4.292 3.156 3.156 0 0 0 4.297-1.195ZM23.55 160.525c-1.329-.932-.17-2.981 1.316-2.328a1.34 1.34 0 0 0 1.799-.747c.087-.226.111-.473.07-.712-.279-1.598 1.99-2.229 2.578-.718a1.343 1.343 0 0 0 1.8.742c.223-.099.414-.257.554-.455.935-1.327 2.986-.171 2.331 1.314a1.343 1.343 0 0 0 1.462 1.866c1.6-.278 2.231 1.987.718 2.575a1.343 1.343 0 0 0-.287 2.352c1.33.933.171 2.982-1.316 2.328a1.35 1.35 0 0 0-1.371.171 1.344 1.344 0 0 0-.496 1.289c.278 1.597-1.99 2.228-2.579.717a1.342 1.342 0 0 0-1.8-.741 1.338 1.338 0 0 0-.554.455c-.935 1.327-2.986.17-2.331-1.315a1.343 1.343 0 0 0-1.462-1.866c-1.6.278-2.231-1.987-.718-2.575a1.343 1.343 0 0 0 .286-2.352Zm7.856-1.037a3.428 3.428 0 0 0-4.67 1.298 3.422 3.422 0 0 0 1.3 4.665 3.432 3.432 0 0 0 4.67-1.298 3.42 3.42 0 0 0-1.3-4.665Zm-.371 3.722a1.506 1.506 0 0 0-1.719-2.191 1.505 1.505 0 1 0 .81 2.901 1.5 1.5 0 0 0 .909-.71Z" />
			<path fill="#E8E8E8" fill-opacity=".1"
				d="M29.885 177.504a4.134 4.134 0 0 1-1.217-1.045 4.109 4.109 0 0 1-.343-4.553l24.268-42.938a4.117 4.117 0 0 1 5.605-1.559l22.69 12.793a4.108 4.108 0 0 1 1.56 5.597L58.18 188.737a4.113 4.113 0 0 1-5.605 1.559l-22.69-12.792Z" />
			<path fill="#fff" fill-opacity=".6"
				d="M53.787 129.641a2.745 2.745 0 0 1 3.737-1.039l22.69 12.793a2.735 2.735 0 0 1 1.04 3.731l-24.268 42.938a2.745 2.745 0 0 1-3.737 1.039l-22.69-12.792a2.736 2.736 0 0 1-1.04-3.732l24.268-42.938Zm-25.462 42.265a4.09 4.09 0 0 0-.381 3.122c.145.519.39 1.005.724 1.431.333.424.746.779 1.217 1.045l22.69 12.792c.95.535 2.075.672 3.126.38a4.113 4.113 0 0 0 2.48-1.939l24.268-42.938a4.104 4.104 0 0 0-1.56-5.597l-22.69-12.793a4.137 4.137 0 0 0-1.526-.501 4.117 4.117 0 0 0-4.08 2.06l-24.268 42.938Z" />
			<path fill="#fff"
				d="M54.696 167.92a8.031 8.031 0 0 1-4.344.353 8.027 8.027 0 0 1-3.89-1.964l5.548-2.059a3.438 3.438 0 0 0 1.923-1.783 3.43 3.43 0 0 0 .096-2.619l-.155-.417a3.429 3.429 0 0 0-4.408-2.017l-5.546 2.059a8.023 8.023 0 0 1 5.93-6.826 8.038 8.038 0 0 1 8.53 3.015l10.548-3.914a2.191 2.191 0 0 1 2.773 1.302 2.187 2.187 0 0 1-1.247 2.797l-10.549 3.916a8.027 8.027 0 0 1-5.21 8.157Z" />
		</g>
		<path fill="#C1D0FF"
			d="M.047 241.825a2.61 2.61 0 0 1 1.457-2.855c.348-.164.729-.249 1.114-.249h51.66a2.619 2.619 0 0 1 2.572 3.104l-5.332 27.892a2.615 2.615 0 0 1-2.57 2.124H7.96a2.62 2.62 0 0 1-2.57-2.122L.048 241.825Z" />
		<path fill="#0F62FE"
			d="M6.564 230.03a1.305 1.305 0 0 1 1.308-1.306h11.076a1.308 1.308 0 0 1 .958.415l5.268 5.642c.123.131.27.236.435.306.164.072.341.109.52.109h22.303a1.31 1.31 0 0 1 1.308 1.307v18.354a1.308 1.308 0 0 1-1.308 1.307H7.872a1.307 1.307 0 0 1-1.308-1.307V230.03Z" />
		<path fill="#E8E8E8" fill-opacity=".1"
			d="M.047 241.825a2.613 2.613 0 0 1 2.571-3.106h51.66a2.617 2.617 0 0 1 2.572 3.104l-5.332 27.894a2.61 2.61 0 0 1-2.57 2.124H7.96a2.62 2.62 0 0 1-2.57-2.122L.048 241.825Z" />
		<path fill="#fff" fill-opacity=".6"
			d="M54.279 240.026c.192 0 .382.043.557.124a1.308 1.308 0 0 1 .728 1.427l-5.33 27.895a1.308 1.308 0 0 1-1.285 1.062H7.96a1.31 1.31 0 0 1-1.285-1.061l-5.343-27.894a1.309 1.309 0 0 1 1.286-1.553h51.66Zm-51.66-1.307a2.62 2.62 0 0 0-2.537 1.965 2.613 2.613 0 0 0-.035 1.141l5.344 27.894a2.615 2.615 0 0 0 2.57 2.122h40.988a2.616 2.616 0 0 0 2.57-2.124l5.33-27.894a2.611 2.611 0 0 0-1.456-2.855 2.617 2.617 0 0 0-1.114-.249H2.619Z" />
		<path fill="#fff"
			d="M11.797 250.284a1.96 1.96 0 0 1 1.963-1.96h26.167a1.96 1.96 0 1 1 0 3.92H13.76a1.963 1.963 0 0 1-1.963-1.96ZM11.797 260.737a1.962 1.962 0 0 1 1.963-1.959h26.167a1.962 1.962 0 0 1 1.388 3.346 1.962 1.962 0 0 1-1.388.574H13.76a1.962 1.962 0 0 1-1.963-1.961Z" />
	</g>
	<defs>
		<clipPath id="a">
			<path fill="#fff" d="M0 0h500v388H0z" />
		</clipPath>
	</defs>
</svg>
