<svg width="70" height="70" viewBox="0 0 70 70" fill="none" xmlns="http://www.w3.org/2000/svg">
<path d="M27.0935 31.5C27.0935 27.9101 24.1624 25 20.5468 25C16.9311 25 14 27.9101 14 31.5C14 35.0899 16.9311 38 20.5468 38C24.1624 38 27.0935 35.0899 27.0935 31.5Z" fill="#4569D4"/>
<path d="M20.8336 30.9798C21.4962 30.9444 22.0547 31.3078 22.5088 32.0699C22.4394 33.0035 22.3344 33.6434 22.1934 33.9902L22.2975 34.3536C22.3332 34.5621 22.4386 34.7533 22.6129 34.9267C22.8569 35.2377 22.9789 35.5146 22.9789 35.7568L22.0892 35.9636C21.7402 35.7568 21.4962 35.4454 21.3573 35.0301C20.7643 35.6877 20.1891 35.999 19.6315 35.9636C18.7252 35.859 18.2193 35.3225 18.114 34.3536C18.2193 32.5533 18.8124 31.4454 19.8933 31.0301C20.2763 30.9255 20.5896 30.9089 20.8336 30.9798ZM19.212 33.7302L19.2655 34.3536C19.3351 34.5958 19.4045 34.7169 19.4738 34.7169H19.8398C20.3278 34.7169 20.7812 34.1979 21.1996 33.1601L21.3573 32.3299C21.2522 32.0877 21.0431 31.9665 20.7294 31.9665H20.6759C19.9103 31.9665 19.4223 32.5544 19.212 33.7302Z" fill="white"/>
<path d="M29.5401 26.7732L29.8019 27.1366V28.0199C29.8019 29.0931 29.7492 30.3389 29.6442 31.7569V31.24C29.8186 30.9956 30.3592 30.8914 31.2658 30.9268C32.1028 30.8577 32.451 31.5679 32.3102 33.0568C32.1376 34.1301 32.434 34.788 33.1999 35.0302V35.7569L32.6762 35.9135C31.492 35.9469 30.9692 34.7348 31.1081 32.2769L31.004 32.2267C29.9584 32.2267 29.4359 33.4722 29.4359 35.9637H28.9122C28.4936 35.8258 28.2844 35.4624 28.2844 34.8736C28.4588 34.8736 28.6849 32.4323 28.9628 27.5502C29.0679 27.032 29.2604 26.7732 29.5401 26.7732ZM36.3777 30.8736H36.6931C38.052 30.9445 38.7839 31.8101 38.889 33.4704C38.8196 34.9256 38.035 35.7747 36.5354 36.0169C35.1411 36.0169 34.4258 35.1856 34.3901 33.5236C34.6698 31.8612 35.3324 30.9779 36.3777 30.8736ZM35.5922 33.107L35.5416 33.8338C35.5755 34.458 35.9067 34.8391 36.5354 34.977C37.3727 34.7348 37.791 34.2503 37.791 33.5236C37.93 32.588 37.5283 32.0512 36.586 31.9135C35.9593 32.0512 35.6279 32.4491 35.5922 33.107ZM42.0662 30.8736H42.3816C43.7402 30.9445 44.4721 31.8101 44.5775 33.4704C44.5078 34.9256 43.7235 35.7747 42.2239 36.0169C40.8293 36.0169 40.1143 35.1856 40.0786 33.5236C40.3583 31.8612 41.0206 30.9779 42.0662 30.8736ZM41.2807 33.107L41.2301 33.8338C41.2637 34.458 41.5949 34.8391 42.2239 34.977C43.0609 34.7348 43.4795 34.2503 43.4795 33.5236C43.6182 32.588 43.2165 32.0512 42.2745 31.9135C41.6475 32.0512 41.3164 32.4491 41.2807 33.107ZM46.8132 28.1735L47.0751 27.9165C47.3191 27.881 47.563 27.9499 47.807 28.1233C47.6324 29.7853 47.5282 30.7543 47.4946 31.0302C47.7386 30.8568 48.0171 30.7702 48.3307 30.7702C49.376 30.9434 49.7768 31.3936 49.5328 32.1203C49.4989 32.9868 49.0109 33.5067 48.0689 33.6801L48.173 33.8338C48.7303 34.6314 49.149 35.0302 49.4287 35.0302H50.0029C50.2826 35.2033 50.4225 35.3767 50.4225 35.5502V35.6535C50.1785 36.0335 49.847 36.2237 49.4287 36.2237C48.9407 36.2925 48.0689 35.4447 46.8132 33.6801V34.0435C46.9519 33.9389 46.934 34.6657 46.7597 36.2237H46.239C45.9593 36.2237 45.8194 36.068 45.8194 35.7569L45.7659 35.4438C46.0456 34.0592 46.3946 31.6358 46.8132 28.1735ZM47.2834 32.3301L47.1792 32.9534H47.7029C48.1909 32.7445 48.4527 32.45 48.4884 32.0701V31.7067C48.4884 31.7401 48.4009 31.7747 48.2266 31.8101C47.8773 31.8101 47.563 31.9832 47.2834 32.3301ZM53.7041 30.8234C54.3664 30.8234 54.8029 31.0834 55.0133 31.6033V31.9667C54.7693 31.9667 54.4021 31.8967 53.9124 31.7569H53.8618C53.4789 31.8258 53.217 31.9824 53.0763 32.2267L53.234 32.4837C54.4539 33.2122 55.0639 33.7321 55.0639 34.0435C55.1689 34.2166 55.2216 34.39 55.2216 34.5634C54.9776 35.7055 54.3498 36.19 53.3381 36.0169C52.2568 36.0169 51.6817 35.4101 51.6124 34.1971L52.1866 34.0435C52.502 34.7348 52.9204 35.0113 53.4423 34.8736C53.827 34.9091 54.0362 34.7534 54.0701 34.4069C53.7664 33.9991 53.3615 33.6764 52.8948 33.4704C52.4226 33.2636 52.1697 32.8834 52.136 32.3301C52.136 31.4987 52.6585 30.9965 53.7041 30.8234Z" fill="#080E29"/>
</svg>
