<svg viewBox="0 0 1024 1024" version="1.1" xmlns="http://www.w3.org/2000/svg"><path d="M682.666667 128a42.666667 42.666667 0 1 0-85.333334 0h85.333334z m-85.333334 768a42.666667 42.666667 0 1 0 85.333334 0h-85.333334z m-399.445333-13.952l-19.370667 38.016 19.370667-38.016z m-55.936-55.936l38.016-19.370667-38.016 19.370667z m740.096 0l-38.016-19.370667 38.016 19.370667z m-55.936 55.936l-19.370667-38.016 19.370667 38.016z m0-740.096l-19.370667 38.016 19.370667-38.016z m55.936 55.936l38.016-19.370667-38.016 19.370667zM197.888 141.952l19.370667 38.016-19.370667-38.016zM141.952 197.888l38.016 19.370667-38.016-19.370667zM597.333333 128v768h85.333334V128h-85.333334zM332.8 170.666667h358.4V85.333333H332.8v85.333334zM853.333333 332.8v358.4h85.333334V332.8h-85.333334zM691.2 853.333333H332.8v85.333334h358.4v-85.333334zM170.666667 691.2V332.8H85.333333v358.4h85.333334zM332.8 853.333333c-36.565333 0-61.397333 0-80.597333-1.621333-18.688-1.493333-28.288-4.266667-34.944-7.68l-38.741334 76.032c20.693333 10.538667 42.752 14.762667 66.730667 16.725333C268.714667 938.666667 297.642667 938.666667 332.8 938.666667v-85.333334zM85.333333 691.2c0 35.157333 0 64.042667 1.877334 87.552 1.962667 23.978667 6.186667 46.037333 16.725333 66.730667l76.032-38.741334c-3.413333-6.656-6.186667-16.213333-7.68-34.944C170.666667 752.597333 170.666667 727.765333 170.666667 691.2H85.333333z m131.925334 152.832a85.333333 85.333333 0 0 1-37.290667-37.290667l-76.032 38.741334a170.666667 170.666667 0 0 0 74.581333 74.581333l38.741334-76.032zM853.333333 691.2c0 36.565333 0 61.397333-1.621333 80.597333-1.493333 18.688-4.266667 28.288-7.68 34.944l76.032 38.741334c10.538667-20.693333 14.762667-42.752 16.725333-66.730667 1.92-23.466667 1.877333-52.394667 1.877334-87.552h-85.333334zM691.2 938.666667c35.157333 0 64.042667 0 87.552-1.877334 23.978667-1.962667 46.037333-6.186667 66.730667-16.725333l-38.741334-76.032c-6.656 3.413333-16.213333 6.186667-34.944 7.68-19.2 1.578667-44.032 1.621333-80.597333 1.621333v85.333334z m152.832-131.925334a85.333333 85.333333 0 0 1-37.290667 37.290667l38.741334 76.032a170.666667 170.666667 0 0 0 74.581333-74.581333l-76.032-38.741334zM691.2 170.666667c36.565333 0 61.397333 0 80.597333 1.621333 18.688 1.493333 28.288 4.266667 34.944 7.68l38.741334-76.032c-20.693333-10.538667-42.752-14.762667-66.730667-16.725333C755.285333 85.333333 726.357333 85.333333 691.2 85.333333v85.333334zM938.666667 332.8c0-35.157333 0-64.042667-1.877334-87.552-1.962667-23.978667-6.186667-46.037333-16.725333-66.730667l-76.032 38.741334c3.413333 6.656 6.186667 16.213333 7.68 34.944C853.333333 271.402667 853.333333 296.234667 853.333333 332.8h85.333334z m-131.925334-152.832a85.333333 85.333333 0 0 1 37.290667 37.290667l76.032-38.741334a170.666667 170.666667 0 0 0-74.581333-74.581333l-38.741334 76.032zM332.8 85.333333c-35.157333 0-64.042667 0-87.552 1.877334-23.978667 1.962667-46.037333 6.186667-66.730667 16.725333l38.741334 76.032c6.656-3.413333 16.213333-6.186667 34.944-7.68C271.402667 170.666667 296.234667 170.666667 332.8 170.666667V85.333333zM170.666667 332.8c0-36.565333 0-61.397333 1.621333-80.597333 1.493333-18.688 4.266667-28.288 7.68-34.944l-76.032-38.741334c-10.538667 20.693333-14.762667 42.752-16.725333 66.730667C85.333333 268.714667 85.333333 297.642667 85.333333 332.8h85.333334z m7.850666-228.864a170.666667 170.666667 0 0 0-74.581333 74.581333l76.032 38.741334a85.333333 85.333333 0 0 1 37.290667-37.290667l-38.741334-76.032z" p-id="2356"></path></svg>
