<svg xmlns="http://www.w3.org/2000/svg" viewBox="0 0 1024 1024"><path d="M426.667 128a42.667 42.667 0 0 0-85.334 0h85.334zm-85.334 768a42.667 42.667 0 1 0 85.334 0h-85.334zm-143.445-13.952-19.37 38.016 19.37-38.016zm-55.936-55.936 38.016-19.37-38.016 19.37zm740.096 0-38.016-19.37 38.016 19.37zm-55.936 55.936-19.37-38.016 19.37 38.016zm0-740.096-19.37 38.016 19.37-38.016zm55.936 55.936 38.016-19.37-38.016 19.37zm-684.16-55.936 19.37 38.016-19.37-38.016zm-55.936 55.936 38.016 19.37-38.016-19.37zM341.333 128v768h85.334V128h-85.334zm-8.533 42.667h358.4V85.333H332.8v85.334zM853.333 332.8v358.4h85.334V332.8h-85.334zM691.2 853.333H332.8v85.334h358.4v-85.334zM170.667 691.2V332.8H85.333v358.4h85.334zM332.8 853.333c-36.565 0-61.397 0-80.597-1.621-18.688-1.493-28.288-4.267-34.944-7.68l-38.742 76.032c20.694 10.539 42.752 14.763 66.731 16.725 23.467 1.878 52.395 1.878 87.552 1.878v-85.334zM85.333 691.2c0 35.157 0 64.043 1.878 87.552 1.962 23.979 6.186 46.037 16.725 66.73l76.032-38.74c-3.413-6.657-6.187-16.214-7.68-34.945-1.621-19.2-1.621-44.032-1.621-80.597H85.333zM217.26 844.032a85.333 85.333 0 0 1-37.291-37.29l-76.032 38.74a170.667 170.667 0 0 0 74.581 74.582l38.742-76.032zM853.333 691.2c0 36.565 0 61.397-1.621 80.597-1.493 18.688-4.267 28.288-7.68 34.944l76.032 38.742c10.539-20.694 14.763-42.752 16.725-66.731 1.92-23.467 1.878-52.395 1.878-87.552h-85.334zM691.2 938.667c35.157 0 64.043 0 87.552-1.878 23.979-1.962 46.037-6.186 66.73-16.725l-38.74-76.032c-6.657 3.413-16.214 6.187-34.945 7.68-19.2 1.579-44.032 1.621-80.597 1.621v85.334zM844.032 806.74a85.333 85.333 0 0 1-37.29 37.291l38.74 76.032a170.667 170.667 0 0 0 74.582-74.581l-76.032-38.742zM691.2 170.667c36.565 0 61.397 0 80.597 1.621 18.688 1.493 28.288 4.267 34.944 7.68l38.742-76.032c-20.694-10.539-42.752-14.763-66.731-16.725-23.467-1.878-52.395-1.878-87.552-1.878v85.334zM938.667 332.8c0-35.157 0-64.043-1.878-87.552-1.962-23.979-6.186-46.037-16.725-66.73l-76.032 38.74c3.413 6.657 6.187 16.214 7.68 34.945 1.621 19.2 1.621 44.032 1.621 80.597h85.334zM806.74 179.968a85.333 85.333 0 0 1 37.291 37.29l76.032-38.74a170.667 170.667 0 0 0-74.581-74.582l-38.742 76.032zM332.8 85.333c-35.157 0-64.043 0-87.552 1.878-23.979 1.962-46.037 6.186-66.73 16.725l38.74 76.032c6.657-3.413 16.214-6.187 34.945-7.68 19.2-1.621 44.032-1.621 80.597-1.621V85.333zM170.667 332.8c0-36.565 0-61.397 1.621-80.597 1.493-18.688 4.267-28.288 7.68-34.944l-76.032-38.742c-10.539 20.694-14.763 42.752-16.725 66.731-1.878 23.467-1.878 52.395-1.878 87.552h85.334zm7.85-228.864a170.667 170.667 0 0 0-74.581 74.581l76.032 38.742a85.333 85.333 0 0 1 37.29-37.291l-38.74-76.032z"/></svg>
