<svg width="1em" height="1em" viewBox="0 0 1189 1024" xmlns="http://www.w3.org/2000/svg" fill="currentColor">
	<path
		d="M694.147879 784.901172c-19.590465-1.189495-34.650505-17.956202-33.885091-37.743192 0.765414-19.78699 17.087354-35.312485 36.719192-34.940121 19.631838 0.36202 35.374545 16.497778 35.405576 36.305454a37.060525 37.060525 0 0 1-11.481213 26.344727 36.439919 36.439919 0 0 1-26.748121 10.033132z m-122.755879 0c-19.600808-1.189495-34.660848-17.956202-33.895434-37.743192 0.775758-19.78699 17.097697-35.312485 36.719192-34.940121 19.642182 0.36202 35.374545 16.497778 35.405575 36.305454a37.060525 37.060525 0 0 1-11.481212 26.344727 36.439919 36.439919 0 0 1-26.748121 10.033132z m-437.734141-72.217859h215.370989v72.217859H133.657859v-72.217859zM75.507071 625.808808H10.891636v202.524445a44.145778 44.145778 0 0 0 13.91192 31.744 43.390707 43.390707 0 0 0 32.395636 11.68808h767.255273a44.476768 44.476768 0 0 0 32.07499-12.029414 45.231838 45.231838 0 0 0 14.232565-31.402666v-202.524445H75.507071z m620.264727-463.127273c-20.966141 1.603232-39.470545-13.705051-41.994343-34.753939 0.796444-20.138667 16.652929-36.357172 36.615757-37.463919 20.14901-0.434424 37.360485 14.584242 39.832566 34.753939-0.206869 19.569778-15.111758 35.788283-34.45398 37.463919z m-122.766222 0a41.870222 41.870222 0 0 1-35.529697-17.376969 34.443636 34.443636 0 0 1 0-36.377859 39.170586 39.170586 0 0 1 41.528889-17.552808 39.511919 39.511919 0 0 1 30.616565 33.295515 36.005495 36.005495 0 0 1-9.981414 27.161859 35.374545 35.374545 0 0 1-26.634343 10.850262zM133.657859 89.925818h215.370989v72.755717H133.657859V89.925818z m672.488727-86.884848H76.582788C42.201212 2.141091 13.446465 29.209859 11.977697 63.870707v185.685333h861.473616V63.860364c-2.585859-35.219394-32.312889-62.070949-67.304727-60.819394zM133.657859 408.648404h215.370989v72.207515H133.657859v-72.207515z m436.120565 0a38.725818 38.725818 0 0 1 35.540041 21.721212 33.864404 33.864404 0 0 1-7.550707 39.087839 43.33899 43.33899 0 0 1-41.446142 8.688484 37.960404 37.960404 0 0 1-24.772525-33.119676c1.406707-20.324848 18.038949-36.150303 38.229333-36.377859z m122.766222 0c20.14901-0.434424 37.360485 14.573899 39.84291 34.743596-0.806788 20.138667-16.652929 36.357172-36.615758 37.463919-20.14901 0.434424-37.360485-14.584242-39.842909-34.753939 0.279273-20.355879 16.425374-36.874343 36.615757-37.453576zM10.891636 567.720081h858.246465v-245.966869H7.664485l3.227151 245.966869z">
	</path>
	<path
		d="M871.496404 424.080808c40.132525 0 78.630788 7.292121 115.484444 21.886707 36.853657 14.584242 68.525253 34.857374 94.745859 61.057293a303.414303 303.414303 0 0 1 63.332849 92.387556c15.825455 35.395232 23.748525 72.952242 23.748525 112.660687 0 39.718788-7.912727 77.265455-23.748525 112.660686-15.835798 35.395232-36.864 66.19798-63.343192 92.397899-26.479192 26.199919-57.881859 47.010909-94.735516 62.681212A292.20202 292.20202 0 0 1 871.496404 1003.313131c-40.132525 0-78.082586-7.82998-113.850182-23.500283-35.757253-15.670303-66.880646-36.481293-93.370182-62.681212-26.479192-26.210263-47.497051-56.733737-63.332848-92.397899-15.835798-35.395232-23.758869-72.941899-23.758869-112.660686s7.923071-77.265455 23.758869-112.660687c15.825455-35.384889 36.853657-66.187636 63.332848-92.387556 26.479192-26.210263 57.333657-46.473051 93.370182-61.057293C793.693091 431.383273 831.632808 424.080808 871.496404 424.080808z">
	</path>
	<path
		d="M898.565172 713.262545l107.675151-107.592404a13.074101 13.074101 0 0 0 0.062061-18.442343 12.929293 12.929293 0 0 0-18.36994-0.051717L880.226263 694.768485 773.461333 587.217455a12.960323 12.960323 0 0 0-18.369939-0.031031 13.094788 13.094788 0 0 0-0.03103 18.463031L861.814949 713.179798 754.181172 820.699798a13.074101 13.074101 0 0 0 9.153939 22.290101c3.309899 0 6.619798-1.261899 9.164283-3.79604l107.644121-107.540687L987.901414 840.186828a12.929293 12.929293 0 0 0 18.36994 0.031031 13.084444 13.084444 0 0 0 0.020686-18.452687l-107.716525-108.502627z"
		fill="#FFFFFF"></path>
</svg>
