<svg xmlns="http://www.w3.org/2000/svg" width="1em" height="1em" viewBox="0 0 24 24" fill="currentColor">
	<path
		d="M10.969 1.219h2.062V5.53H10.97V1.22ZM10.969 18.469h2.062v4.312H10.97V18.47ZM15.845 6.696l3.05-3.049 1.458 1.458-3.05 3.05-1.458-1.459ZM3.647 18.894l3.05-3.05 1.458 1.46-3.05 3.049-1.458-1.459ZM18.469 10.969h4.312v2.062H18.47V10.97ZM1.219 10.969H5.53v2.062H1.22V10.97ZM15.845 17.303l1.459-1.458 3.049 3.05-1.458 1.458-3.05-3.05ZM3.647 5.106l1.458-1.459 3.05 3.05-1.459 1.458-3.049-3.05ZM12 16.781A4.782 4.782 0 1 1 16.781 12 4.787 4.787 0 0 1 12 16.781Z" />
</svg>
