<svg xmlns="http://www.w3.org/2000/svg" width="1em" height="0.63em" viewBox="0 0 104 66" fill="none">
	<g>
		<rect width="104" height="66" x=".135" y=".135" fill="currentColor" fill-opacity=".02" rx="4" />
		<path fill="#1677ff"
			d="M-3.378 3.754A1.934 4.025 0 0 1-1.444-.27H9.904v66.405H-1.444a1.934 4.025 0 0 1-1.934-4.024V3.754z" />
		<rect width="5.474" height="2.789" x="1.641" y="15.461" fill="#e5e5e5" rx="1.395" />
		<rect width="8.189" height="7.679" x=".587" y="1.422" fill="#fff" rx="2" />
		<rect width="75.92" height="9.07" x="25.383" y="1.429" fill="currentColor" fill-opacity=".08" rx="2" />
		<rect width="3.925" height="4.4" x="27.915" y="3.693" fill="#b2b2b2" rx="1" />
		<rect width="3.925" height="4.4" x="80.751" y="3.629" fill="#b2b2b2" rx="1" />
		<rect width="3.925" height="4.4" x="87.789" y="3.7" fill="#b2b2b2" rx="1" />
		<rect width="3.925" height="4.4" x="94.685" y="3.629" fill="#b2b2b2" rx="1" />
		<rect width="42.929" height="21.519" x="58.754" y="14.613" fill="currentColor" fill-opacity=".08" rx="2" />
		<rect width="28.369" height="20.978" x="26.143" y="14.613" fill="currentColor" fill-opacity=".08" rx="2" />
		<rect width="75.095" height="21.654" x="26.343" y="39.688" fill="currentColor" fill-opacity=".08" rx="2" />
		<rect width="5.474" height="2.789" x="1.798" y="28.395" fill="#e5e5e5" rx="1.395" />
		<rect width="5.474" height="2.789" x="1.641" y="41.802" fill="#e5e5e5" rx="1.395" />
		<rect width="5.474" height="2.789" x="1.641" y="55.366" fill="#e5e5e5" rx="1.395" />
		<path fill="#69b1ff" d="M9.855-.026h12.493v65.721H9.855z" />
	</g>

</svg>
