<svg width="417" height="324" viewBox="0 0 417 324" fill="none" xmlns="http://www.w3.org/2000/svg">
<g clip-path="url(#clip0_16_157)">
<path d="M157.655 300C157.655 309.51 149.946 317.218 140.436 317.218C130.926 317.218 123.218 309.51 123.218 300C123.218 290.49 130.926 282.781 140.436 282.781C149.946 282.781 157.655 290.49 157.655 300Z" fill="#C1D0FF"/>
<path d="M156.855 286.102C157.836 287.351 157.383 289.567 155.826 292.268C153.66 296.027 149.356 300.73 143.795 305.095C138.713 309.085 133.605 311.988 129.582 313.383C126.042 314.612 123.343 314.67 122.246 313.272C119.9 310.285 125.747 301.782 135.305 294.279C144.863 286.776 154.51 283.115 156.855 286.102ZM124.274 311.679C124.994 312.597 126.494 312.803 128.5 312.405C132.26 311.657 137.796 308.78 143.298 304.461C149.441 299.639 153.848 294.348 154.991 290.809C155.418 289.488 155.389 288.411 154.827 287.694C152.757 285.059 144.24 288.289 135.803 294.913C127.366 301.536 122.204 309.042 124.274 311.679ZM160.614 300.522C160.765 300.522 160.915 300.56 161.046 300.632C161.178 300.705 161.286 300.81 161.362 300.935L165.887 308.456C165.963 308.581 166.003 308.724 166.003 308.87C166.003 309.016 165.963 309.159 165.887 309.284L161.362 316.804C161.285 316.931 161.176 317.035 161.046 317.107C160.914 317.18 160.765 317.218 160.614 317.218H151.565C151.413 317.219 151.265 317.181 151.133 317.108C151.002 317.036 150.893 316.932 150.816 316.805L146.292 309.284C146.216 309.159 146.176 309.016 146.176 308.87C146.176 308.724 146.216 308.581 146.292 308.456L150.816 300.936C150.893 300.809 151.002 300.705 151.133 300.633C151.265 300.56 151.413 300.522 151.565 300.522H160.614ZM156.089 306.046C154.464 306.046 153.147 307.31 153.147 308.87C153.147 310.43 154.464 311.694 156.089 311.694C157.715 311.694 159.032 310.43 159.032 308.87C159.032 307.31 157.715 306.046 156.089 306.046Z" fill="#0F62FE"/>
<path d="M157.655 300C157.655 309.51 149.946 317.218 140.436 317.218C130.926 317.218 123.218 309.51 123.218 300C123.218 290.49 130.926 282.781 140.436 282.781C149.946 282.781 157.655 290.49 157.655 300Z" fill="#E8E8E8" fill-opacity="0.1"/>
<path d="M140.436 316.175C131.504 316.175 124.261 308.933 124.261 300C124.261 291.067 131.504 283.825 140.436 283.825C149.369 283.825 156.611 291.067 156.611 300C156.611 308.933 149.369 316.175 140.436 316.175ZM140.436 317.218C149.946 317.218 157.655 309.51 157.655 300C157.655 290.49 149.946 282.781 140.436 282.781C130.926 282.781 123.218 290.49 123.218 300C123.218 309.51 130.926 317.218 140.436 317.218Z" fill="white" fill-opacity="0.6"/>
<path d="M129.561 292.193C129.233 292.738 129.466 293.434 130.034 293.72C130.603 294.006 131.292 293.773 131.628 293.233C133.004 291.016 135.025 289.271 137.419 288.233C138.003 287.979 138.333 287.332 138.133 286.728C137.934 286.124 137.279 285.792 136.693 286.037C133.721 287.278 131.223 289.435 129.561 292.193ZM128.181 295.178C127.978 295.781 128.356 296.409 128.973 296.566L129.037 296.582C129.618 296.73 130.205 296.376 130.4 295.808C130.598 295.241 130.355 294.601 129.806 294.358L129.746 294.33C129.164 294.072 128.478 294.334 128.265 294.934C128.237 295.015 128.209 295.096 128.182 295.178H128.181Z" fill="white"/>
<path d="M143.298 304.461C137.796 308.78 132.26 311.657 128.5 312.405L129.583 313.383C133.605 311.988 138.713 309.084 143.796 305.095C149.355 300.73 153.66 296.026 155.826 292.268L154.992 290.81C153.848 294.347 149.441 299.638 143.298 304.461Z" fill="#0F62FE"/>
</g>
<path d="M33.3352 276.296C32.2516 275.971 32.272 274.429 33.3643 274.129L51.9706 269.041C52.1512 268.992 52.3411 268.988 52.5234 269.031L69.617 273.011C70.7282 273.269 70.7951 274.824 69.7115 275.179L50.8317 281.361C50.6124 281.433 50.3763 281.435 50.1554 281.368L33.3352 276.296ZM29.1957 309.163C28.9783 309.084 28.7906 308.94 28.6579 308.75C28.5252 308.561 28.4539 308.335 28.4539 308.104V279.505C28.4539 278.749 29.1855 278.206 29.9084 278.427L47.9445 283.921C48.4201 284.066 48.7445 284.503 48.7445 285V314.697C48.7445 314.879 48.7008 315.057 48.617 315.218C48.5332 315.379 48.4119 315.517 48.2633 315.621C48.1147 315.725 47.9432 315.792 47.7633 315.815C47.5835 315.839 47.4007 315.818 47.2303 315.756L29.1942 309.163H29.1957ZM52.1277 314.811C52.1277 315.561 52.8463 316.102 53.5677 315.894L72.7311 310.363C73.214 310.225 73.5456 309.782 73.5456 309.281V279.482C73.5457 279.307 73.5052 279.135 73.4272 278.978C73.3492 278.822 73.2359 278.686 73.0962 278.58C72.9565 278.475 72.7943 278.404 72.6224 278.372C72.4505 278.341 72.2736 278.35 72.1057 278.398L52.9423 283.93C52.7073 283.998 52.5008 284.14 52.3539 284.335C52.207 284.531 52.1276 284.769 52.1277 285.013V314.811Z" fill="#C1D0FF"/>
<path d="M60.4535 295.182C60.4535 297.497 59.534 299.716 57.8973 301.353C56.2607 302.99 54.0409 303.909 51.7263 303.909C49.4117 303.909 47.1919 302.99 45.5553 301.353C43.9186 299.716 42.9991 297.497 42.9991 295.182C42.9991 292.867 43.9186 290.648 45.5553 289.011C47.1919 287.374 49.4117 286.455 51.7263 286.455C54.0409 286.455 56.2607 287.374 57.8973 289.011C59.534 290.648 60.4535 292.867 60.4535 295.182Z" fill="#0F62FE"/>
<path d="M33.3353 276.462C32.2517 276.128 32.272 274.552 33.3644 274.247L51.9707 269.041C52.1511 268.991 52.3413 268.987 52.5234 269.031L69.617 273.101C70.7282 273.365 70.7952 274.957 69.7115 275.319L50.8318 281.64C50.6126 281.713 50.3761 281.716 50.1554 281.648L33.3353 276.462ZM29.1957 310.07C28.9762 309.987 28.7874 309.838 28.6549 309.644C28.5223 309.45 28.4521 309.22 28.4539 308.985V279.742C28.4539 278.968 29.1855 278.414 29.9084 278.64L47.9445 284.258C48.178 284.333 48.3816 284.48 48.5255 284.678C48.6694 284.877 48.7462 285.116 48.7445 285.361V315.73C48.7445 316.53 47.9664 317.087 47.2304 316.812L29.1942 310.07H29.1957ZM52.1278 315.846C52.1278 316.613 52.8463 317.167 53.5677 316.953L72.7297 311.298C72.9668 311.226 73.1743 311.079 73.3211 310.879C73.4679 310.679 73.5462 310.438 73.5442 310.19V279.717C73.5442 278.951 72.8257 278.398 72.1042 278.612L52.9408 284.267C52.7039 284.339 52.4966 284.486 52.3499 284.685C52.2031 284.885 52.1247 285.126 52.1263 285.374V315.846H52.1278Z" fill="#E8E8E8" fill-opacity="0.1"/>
<path d="M43.0136 299.547C43.2048 299.547 43.394 299.585 43.5705 299.658C43.747 299.732 43.9073 299.839 44.0422 299.974C44.1772 300.11 44.2841 300.27 44.357 300.447C44.4298 300.624 44.4671 300.813 44.4667 301.004L44.4551 309.732C44.4545 310.117 44.3007 310.487 44.0275 310.759C43.7543 311.032 43.3841 311.184 42.9984 311.184C42.6126 311.183 42.2429 311.029 41.9705 310.756C41.6981 310.483 41.5454 310.113 41.546 309.727L41.5577 301C41.5579 300.809 41.5957 300.62 41.6689 300.443C41.7422 300.267 41.8495 300.107 41.9847 299.972C42.1199 299.837 42.2804 299.73 42.4569 299.657C42.6335 299.584 42.8226 299.547 43.0136 299.547Z" fill="white"/>
<path d="M43.0151 298.092C42.8241 298.092 42.635 298.054 42.4586 297.981C42.2822 297.908 42.1219 297.801 41.987 297.665C41.8521 297.53 41.7451 297.37 41.6722 297.193C41.5993 297.017 41.5618 296.827 41.562 296.636C41.5622 296.445 41.6 296.256 41.6733 296.08C41.7466 295.904 41.8539 295.743 41.9891 295.608C42.1243 295.473 42.2847 295.366 42.4613 295.294C42.6378 295.221 42.827 295.183 43.018 295.183C43.4038 295.184 43.7736 295.337 44.0461 295.61C44.3186 295.883 44.4715 296.254 44.4711 296.639C44.4707 297.025 44.3171 297.395 44.044 297.667C43.771 297.94 43.4008 298.093 43.0151 298.092Z" fill="white"/>
<path d="M52.2689 270.154L33.6611 275.357L50.4812 280.544L69.361 274.222L52.2703 270.154H52.2689ZM29.5812 279.742V308.987L47.6173 315.73V285.361L29.5812 279.742ZM53.2536 315.846L72.417 310.19V279.719L53.2536 285.377V315.848V315.846ZM33.3629 274.247L51.9736 269.041C52.154 268.991 52.3442 268.987 52.5263 269.031L69.617 273.101C70.7283 273.365 70.7952 274.957 69.7115 275.319L50.8318 281.64C50.6126 281.713 50.3761 281.716 50.1554 281.648L33.3353 276.462C32.2517 276.128 32.272 274.552 33.3644 274.247H33.3629ZM28.4539 308.985V279.742C28.4539 278.968 29.1855 278.414 29.9084 278.64L47.9445 284.258C48.178 284.333 48.3816 284.48 48.5255 284.678C48.6695 284.877 48.7462 285.116 48.7445 285.361V315.73C48.7445 316.53 47.9664 317.087 47.2304 316.812L29.1942 310.07C28.975 309.987 28.7866 309.838 28.6543 309.644C28.5219 309.45 28.452 309.22 28.4539 308.985ZM53.5663 316.952C52.8448 317.166 52.1263 316.611 52.1263 315.845V285.373C52.1247 285.125 52.2031 284.883 52.3499 284.684C52.4966 284.484 52.7039 284.338 52.9408 284.266L72.1042 278.61C72.8257 278.398 73.5442 278.951 73.5442 279.719V310.191C73.5455 310.439 73.467 310.68 73.3202 310.879C73.1735 311.078 72.9664 311.225 72.7297 311.297L53.5663 316.955V316.952Z" fill="white" fill-opacity="0.6"/>
<path d="M331.433 256.362L171.235 222.311L160.699 271.879L320.897 305.93L331.433 256.362Z" fill="#DFDFDF"/>
<path d="M145.185 270.677L339.882 312.061C351.464 314.523 362.891 307.102 365.354 295.519L405.102 108.519C407.564 96.936 400.143 85.5093 388.56 83.0473L213.226 45.7789C212.934 45.7168 212.631 45.7194 212.34 45.7865C212.049 45.8536 211.776 45.9836 211.54 46.1674C211.304 46.3512 211.112 46.5843 210.976 46.8504C210.84 47.1165 210.763 47.4091 210.752 47.7078C210.69 49.3863 210.468 51.1302 210.094 52.8922C206.449 70.0381 189.529 81.0211 172.375 77.375C170.568 76.9909 168.803 76.4486 167.127 75.7624C166.85 75.6492 166.551 75.5982 166.251 75.613C165.951 75.6279 165.659 75.7083 165.394 75.8485C165.129 75.9887 164.897 76.1853 164.717 76.4245C164.536 76.6637 164.409 76.9397 164.347 77.233L128.643 245.204C126.182 256.788 133.602 268.215 145.185 270.677ZM387.708 87.0568C397.081 89.0491 403.085 98.2946 401.093 107.667L361.345 294.667C359.352 304.04 350.107 310.044 340.734 308.052L146.038 266.668C136.665 264.675 130.66 255.43 132.653 246.057L167.864 80.3992C169.066 80.7931 170.287 81.1222 171.524 81.3851C190.888 85.5011 209.989 73.1022 214.103 53.7455C214.351 52.5813 214.539 51.4213 214.666 50.2763L387.708 87.0568Z" fill="#DFF4F9"/>
<path d="M399.376 125.624L166.675 76.1622L165.823 80.1712L398.523 129.633L399.376 125.624Z" fill="#DFF4F9"/>
<path d="M385.184 104.748C384.99 105.662 384.618 106.528 384.089 107.298C383.56 108.067 382.884 108.725 382.101 109.234C381.318 109.743 380.442 110.092 379.524 110.262C378.605 110.432 377.663 110.42 376.749 110.226C375.836 110.032 374.969 109.66 374.2 109.131C373.43 108.602 372.772 107.926 372.263 107.143C371.755 106.36 371.405 105.484 371.235 104.566C371.065 103.647 371.077 102.705 371.271 101.791C371.663 99.946 372.772 98.3325 374.354 97.3052C375.936 96.2779 377.861 95.9211 379.706 96.3133C381.551 96.7054 383.165 97.8144 384.192 99.3963C385.219 100.978 385.576 102.903 385.184 104.748Z" fill="#F58E6F"/>
<path d="M362.392 99.9036C362 101.749 360.891 103.362 359.309 104.389C357.727 105.417 355.802 105.773 353.957 105.381C352.112 104.989 350.499 103.88 349.471 102.298C348.444 100.716 348.087 98.7913 348.479 96.9464C348.872 95.1014 349.98 93.4878 351.562 92.4606C353.144 91.4333 355.069 91.0765 356.914 91.4686C358.759 91.8608 360.373 92.9698 361.4 94.5517C362.427 96.1335 362.784 98.0587 362.392 99.9036Z" fill="#F58E6F"/>
<path d="M339.6 95.0591C339.208 96.9041 338.099 98.5177 336.517 99.5449C334.936 100.572 333.01 100.929 331.166 100.537C329.321 100.145 327.707 99.0357 326.68 97.4539C325.652 95.872 325.296 93.9468 325.688 92.1019C326.08 90.257 327.189 88.6434 328.771 87.6161C330.353 86.5888 332.278 86.232 334.123 86.6242C335.968 87.0163 337.581 88.1253 338.609 89.7072C339.636 91.289 339.993 93.2142 339.6 95.0591Z" fill="#F58E6F"/>
<path d="M271.379 180.725L350.901 197.628C351.432 197.741 351.987 197.638 352.443 197.342C352.899 197.046 353.218 196.581 353.331 196.049L363.777 146.906C363.89 146.375 363.787 145.82 363.491 145.364C363.195 144.908 362.73 144.589 362.198 144.476L282.677 127.573C282.145 127.46 281.591 127.563 281.135 127.859C280.679 128.155 280.36 128.62 280.247 129.151L269.801 178.294C269.688 178.826 269.791 179.381 270.087 179.837C270.383 180.292 270.848 180.612 271.379 180.725ZM349.748 193.193L274.236 177.142L283.83 132.007L359.342 148.058L349.748 193.193Z" fill="#13C2C2"/>
<path d="M354.212 151.39L287.162 137.137L279.366 173.811L346.417 188.063L354.212 151.39Z" fill="#71CCE0"/>
<path d="M293.309 226.154L342.61 236.633C343.141 236.746 343.696 236.643 344.152 236.347C344.608 236.051 344.927 235.586 345.04 235.055L349.394 214.573C349.45 214.31 349.453 214.038 349.404 213.773C349.355 213.509 349.255 213.256 349.108 213.031C348.961 212.805 348.772 212.61 348.55 212.458C348.328 212.306 348.079 212.198 347.815 212.142L298.514 201.663C298.251 201.607 297.979 201.604 297.715 201.653C297.45 201.702 297.198 201.802 296.972 201.949C296.746 202.096 296.552 202.285 296.399 202.507C296.247 202.729 296.14 202.978 296.084 203.242L291.73 223.723C291.617 224.255 291.72 224.81 292.016 225.265C292.312 225.721 292.777 226.041 293.309 226.154ZM341.457 232.198L296.165 222.571L299.667 206.098L344.959 215.725L341.457 232.198Z" fill="#13C2C2"/>
<path d="M339.829 219.057L302.998 211.229L301.295 219.239L338.126 227.068L339.829 219.057Z" fill="#F58E6F"/>
<path d="M231.803 213.08L279.856 223.294C280.388 223.407 280.943 223.305 281.398 223.009C281.854 222.713 282.174 222.248 282.287 221.716L286.64 201.234C286.696 200.971 286.7 200.699 286.651 200.435C286.602 200.17 286.501 199.918 286.354 199.692C286.208 199.466 286.018 199.272 285.796 199.119C285.575 198.967 285.325 198.86 285.062 198.804L237.009 188.59C236.746 188.534 236.474 188.53 236.21 188.579C235.945 188.628 235.693 188.729 235.467 188.876C235.241 189.022 235.047 189.212 234.894 189.434C234.742 189.655 234.634 189.905 234.579 190.168L230.225 210.65C230.112 211.181 230.215 211.736 230.511 212.192C230.807 212.648 231.272 212.967 231.803 213.08ZM278.704 218.859L234.66 209.498L238.161 193.025L282.205 202.387L278.704 218.859Z" fill="#13C2C2"/>
<path d="M277.075 205.719L241.493 198.155L239.791 206.166L275.372 213.729L277.075 205.719Z" fill="#F58E6F"/>
<path d="M169.049 199.742L218.35 210.221C218.614 210.277 218.885 210.28 219.15 210.231C219.414 210.182 219.667 210.082 219.892 209.935C220.118 209.788 220.313 209.599 220.465 209.377C220.618 209.155 220.725 208.906 220.781 208.642L225.134 188.161C225.19 187.898 225.194 187.626 225.145 187.361C225.096 187.097 224.995 186.844 224.849 186.619C224.702 186.393 224.512 186.198 224.291 186.046C224.069 185.893 223.819 185.786 223.556 185.73L174.255 175.251C173.992 175.195 173.72 175.191 173.455 175.241C173.191 175.29 172.938 175.39 172.713 175.537C172.487 175.683 172.292 175.873 172.14 176.095C171.988 176.317 171.88 176.566 171.824 176.829L167.471 197.311C167.358 197.843 167.461 198.397 167.757 198.853C168.053 199.309 168.518 199.629 169.049 199.742ZM217.198 205.786L171.906 196.159L175.407 179.686L220.699 189.313L217.198 205.786Z" fill="#13C2C2"/>
<path d="M215.569 192.645L178.739 184.817L177.036 192.827L213.866 200.656L215.569 192.645Z" fill="#F58E6F"/>
<path d="M264.236 122.866L188.798 106.831L187.946 110.84L263.384 126.875L264.236 122.866ZM259.072 147.162L183.634 131.127L182.782 135.136L258.22 151.171L259.072 147.162ZM253.908 171.458L178.469 155.423L177.617 159.432L253.055 175.467L253.908 171.458ZM317.699 263.78L180.632 234.645L179.78 238.654L316.847 267.789L317.699 263.78ZM313.193 284.982L176.126 255.847L175.273 259.856L312.341 288.991L313.193 284.982ZM171.53 81.3842C190.887 85.4988 209.983 73.0978 214.098 53.7406C218.212 34.3834 205.811 15.2874 186.454 11.1728C167.096 7.05823 148 19.4588 143.885 38.8165C139.771 58.1742 152.172 77.2696 171.53 81.3842ZM185.601 15.1813C202.749 18.8261 213.734 35.7416 210.089 52.8884C206.444 70.0353 189.529 81.0206 172.382 77.3758C155.234 73.731 144.25 56.8155 147.894 39.6686C151.539 22.5217 168.454 11.5365 185.601 15.1813Z" fill="#13C2C2"/>
<path d="M203.288 51.4429C201.918 57.8866 198.045 63.5224 192.52 67.1103C186.995 70.6982 180.271 71.9444 173.827 70.5747C167.384 69.2051 161.748 65.3317 158.16 59.8068C154.572 54.2819 153.326 47.558 154.695 41.1143C156.065 34.6705 159.938 29.0348 165.463 25.4469C170.988 21.859 177.712 20.6128 184.156 21.9824C190.6 23.3521 196.235 27.2254 199.823 32.7503C203.411 38.2752 204.657 44.9991 203.288 51.4429Z" fill="#FFD452"/>
<path d="M175.478 72.9381C176.944 73.1327 178.425 73.2061 179.904 73.1575L179.766 69.0611C178.521 69.1027 177.259 69.0399 176.018 68.8752L175.478 72.9381ZM171.154 72.0006L172.345 68.0788C171.145 67.7149 169.978 67.2525 168.854 66.6965L167.034 70.3687C168.36 71.0249 169.738 71.5707 171.154 72.0006ZM184.308 72.6424C185.759 72.3491 187.183 71.9363 188.566 71.4081L187.103 67.5794C185.932 68.0267 184.726 68.3766 183.497 68.6254L184.308 72.6424ZM163.24 68.078L165.642 64.7574C164.627 64.0227 163.674 63.2055 162.794 62.3141L159.878 65.1943C160.917 66.2465 162.042 67.211 163.24 68.078ZM192.56 69.4929C193.836 68.7461 195.049 67.8961 196.187 66.9515L193.567 63.7993C192.602 64.6009 191.573 65.322 190.491 65.9554L192.56 69.4929ZM157.034 61.7989L160.382 59.4342C159.658 58.4093 159.019 57.3269 158.472 56.1979L154.783 57.9848C155.429 59.3153 156.181 60.5908 157.034 61.7989ZM199.349 63.851C200.317 62.7321 201.189 61.5351 201.959 60.2721L198.459 58.14C197.807 59.2093 197.067 60.223 196.248 61.1706L199.349 63.851ZM153.187 53.8517L157.118 52.6931C156.764 51.4907 156.51 50.2609 156.36 49.0163L152.291 49.5079C152.469 50.9781 152.768 52.431 153.187 53.8517ZM203.944 56.3093C204.493 54.9366 204.929 53.5211 205.247 52.0772L201.245 51.1946C200.975 52.4214 200.602 53.629 200.139 54.7841L203.944 56.3093ZM152.126 45.079L156.221 45.2652C156.277 44.0226 156.438 42.7689 156.7 41.5397L156.777 41.1859L152.782 40.2724L152.689 40.6974C152.383 42.136 152.193 43.6133 152.126 45.079ZM201.754 47.4707L205.847 47.6915C205.926 46.2135 205.883 44.7314 205.717 43.2604L201.645 43.7206C201.785 44.9655 201.821 46.2198 201.754 47.4707ZM157.912 37.6057C158.387 36.4464 158.958 35.3285 159.618 34.2635L156.136 32.1033C155.356 33.3612 154.682 34.6816 154.12 36.0508L157.912 37.6057ZM200.915 40.0375L204.857 38.9112C204.449 37.4892 203.926 36.1028 203.293 34.7661L199.589 36.5218C200.127 37.6553 200.571 38.8311 200.915 40.0375ZM161.853 31.2505C162.681 30.3092 163.585 29.4374 164.555 28.6438L161.961 25.4702C160.816 26.4063 159.75 27.4352 158.774 28.5467L161.853 31.2505ZM197.705 33.2717L201.072 30.9337C200.228 29.7195 199.286 28.5765 198.256 27.516L195.317 30.3736C196.192 31.2724 196.99 32.2417 197.705 33.2717ZM167.649 26.511C168.737 25.8868 169.874 25.3527 171.049 24.9138L169.618 21.0735C168.232 21.5906 166.891 22.2205 165.608 22.9568L167.649 26.511ZM192.488 27.9068L194.916 24.6054C193.724 23.7285 192.461 22.952 191.14 22.284L189.292 25.9421C190.41 26.5074 191.479 27.1645 192.488 27.9068ZM174.664 23.8966C175.894 23.6583 177.143 23.5226 178.396 23.4908L178.293 19.3937C176.812 19.4316 175.338 19.592 173.884 19.8734L174.664 23.8966ZM185.812 24.5314L187.034 20.6193C185.623 20.1799 184.179 19.8551 182.716 19.6482L182.145 23.7066C183.388 23.8826 184.614 24.1584 185.812 24.5314ZM183.712 33.9252L179.704 33.073L174.097 59.449L178.106 60.3011L183.712 33.9252Z" fill="#13C2C2"/>
<path d="M192.519 47.4868L166.143 41.8805L165.291 45.8894L191.666 51.4958L192.519 47.4868ZM152.013 270.033L156.022 270.885L167.552 216.64L337.104 252.679L325.574 306.924L329.583 307.776L341.539 251.527C341.652 250.995 341.549 250.44 341.253 249.985C340.957 249.529 340.492 249.209 339.961 249.096L166.4 212.205C165.868 212.092 165.314 212.195 164.858 212.491C164.402 212.787 164.083 213.252 163.97 213.783L152.013 270.033Z" fill="#13C2C2"/>
<g clip-path="url(#clip1_16_157)">
<path d="M94.3807 72.6569C90.1391 76.6489 83.464 76.4465 79.472 72.2049L77.8657 70.4981C73.8737 66.2566 74.0761 59.5814 78.3177 55.5895L85.998 48.3611L94.8326 57.7482C98.8246 61.9898 98.6226 68.6646 94.3807 72.6569Z" fill="#3E80F6"/>
<path d="M116.446 77.6378L98.0136 94.9858C95.7952 97.0737 92.1846 96.4506 90.774 93.7569L87.8765 88.1435C86.6212 85.6873 87.1329 82.7005 89.1298 80.8211L90.2549 79.7622C91.1946 78.8778 92.4423 78.402 93.7314 78.4414L97.6693 78.5608C97.7395 78.5629 97.8055 78.5606 97.8758 78.5627C99.0056 78.4958 99.9317 77.6242 100.062 76.5047C100.073 76.4347 100.075 76.3645 100.077 76.2943L100.192 72.3609C100.231 71.0715 100.786 69.8507 101.721 68.9708L102.851 67.9077C104.848 66.0284 107.855 65.7024 110.235 67.1003L115.659 70.3368C118.262 71.9082 118.664 75.5502 116.446 77.6378Z" fill="#0C2E97"/>
<path d="M110.486 73.6565L106.535 77.3751C106.046 77.8354 105.275 77.8121 104.815 77.3229C104.354 76.8338 104.378 76.0631 104.867 75.6028L108.818 71.8842C109.307 71.4238 110.078 71.4472 110.538 71.9363C110.998 72.4255 110.975 73.1961 110.486 73.6565Z" fill="#1AADF9"/>
<path d="M103.461 49.6848L101.727 51.3171L101.349 50.9156L101.963 50.338C102.289 50.0306 102.305 49.5177 101.998 49.191C101.69 48.8644 101.177 48.8488 100.851 49.1563L100.237 49.7339L99.6232 49.0819C100.623 47.628 100.516 45.6218 99.2586 44.2858C97.81 42.7466 95.3783 42.6716 93.8392 44.1201C92.3 45.5687 92.2273 48.0002 93.6762 49.5396C94.9339 50.876 96.9296 51.104 98.4415 50.1941L102.701 54.7197C103.008 55.0464 103.521 55.0619 103.848 54.7545C104.174 54.447 104.19 53.9342 103.882 53.6075L102.839 52.4985L104.573 50.8662C104.9 50.5587 104.915 50.0459 104.608 49.7192C104.3 49.3925 103.788 49.3773 103.461 49.6848ZM94.8576 48.4271C94.0214 47.5386 94.0639 46.1365 94.9514 45.3012C95.8389 44.4659 97.241 44.5084 98.0772 45.397C98.9125 46.2845 98.87 47.6866 97.9825 48.5218C97.095 49.3571 95.6929 49.3146 94.8576 48.4271Z" fill="#FF4F4F"/>
</g>
<g clip-path="url(#clip2_16_157)">
<path d="M24.9241 148.225C24.5317 148.003 24.1868 147.706 23.9091 147.352C23.6313 146.997 23.4262 146.591 23.3053 146.157C23.1845 145.723 23.1503 145.269 23.2048 144.822C23.2593 144.374 23.4013 143.942 23.6228 143.55L43.8628 107.695C44.0843 107.302 44.3809 106.957 44.7357 106.68C45.0905 106.402 45.4965 106.197 45.9306 106.076C46.3647 105.955 46.8183 105.921 47.2656 105.975C47.7129 106.03 48.145 106.172 48.5374 106.393L67.461 117.076C68.2535 117.523 68.8358 118.267 69.0798 119.143C69.3238 120.02 69.2096 120.958 68.7623 121.75L48.5223 157.605C48.075 158.398 47.3312 158.98 46.4545 159.224C45.5778 159.468 44.6402 159.354 43.8477 158.907L24.9241 148.225Z" fill="#C1D0FF"/>
<path d="M28.998 119.714C26.6817 118.085 28.7012 114.508 31.293 115.649C33.0071 116.402 34.8693 114.944 34.5493 113.1C34.0638 110.31 38.0206 109.208 39.0468 111.848C39.7257 113.593 42.0743 113.878 43.1515 112.347C44.7818 110.031 48.3594 112.051 47.2181 114.642C46.4646 116.357 47.9232 118.219 49.7665 117.899C52.5579 117.414 53.6593 121.37 51.0193 122.396C49.2742 123.075 48.9886 125.424 50.52 126.501C52.8352 128.132 50.8163 131.709 48.2244 130.568C46.5103 129.814 44.6481 131.273 44.9682 133.116C45.4536 135.906 41.4968 137.009 40.4706 134.369C39.7917 132.624 37.4431 132.338 36.3659 133.869C34.7356 136.185 31.1581 134.166 32.2994 131.574C33.0529 129.86 31.5943 127.998 29.7509 128.318C26.9595 128.803 25.8582 124.846 28.4981 123.82C30.2432 123.141 30.5288 120.793 28.9975 119.715L28.998 119.714ZM42.6974 117.902C42.0138 117.516 41.2608 117.269 40.4815 117.174C39.7022 117.079 38.9118 117.138 38.1555 117.349C37.3992 117.56 36.6918 117.917 36.0736 118.401C35.4554 118.885 34.9387 119.486 34.5527 120.169C34.1668 120.853 33.9193 121.606 33.8244 122.385C33.7295 123.165 33.789 123.955 33.9995 124.711C34.2101 125.468 34.5675 126.175 35.0514 126.793C35.5354 127.411 36.1363 127.928 36.82 128.314C38.2007 129.094 39.8345 129.293 41.3619 128.867C42.8893 128.442 44.1853 127.428 44.9647 126.047C45.7441 124.666 45.9431 123.032 45.5179 121.505C45.0927 119.978 44.0782 118.682 42.6974 117.902ZM42.0495 124.401C42.3924 123.794 42.48 123.075 42.2929 122.403C42.1058 121.731 41.6594 121.16 41.0518 120.817C40.4443 120.474 39.7254 120.387 39.0533 120.574C38.3812 120.761 37.8109 121.208 37.468 121.815C37.125 122.423 37.0374 123.141 37.2245 123.814C37.4116 124.486 37.8581 125.056 38.4656 125.399C39.0732 125.742 39.7921 125.829 40.4642 125.642C41.1363 125.455 41.7065 125.009 42.0495 124.401ZM19.6411 134.047C18.5326 133.268 19.4985 131.557 20.7386 132.103C20.9244 132.185 21.1289 132.215 21.3304 132.19C21.5319 132.165 21.7227 132.085 21.8826 131.96C22.0425 131.835 22.1654 131.669 22.2383 131.479C22.3112 131.29 22.3312 131.084 22.2963 130.884C22.0644 129.55 23.956 129.023 24.4467 130.285C24.5202 130.475 24.6437 130.64 24.804 130.765C24.9643 130.89 25.1554 130.968 25.357 130.993C25.5585 131.017 25.7629 130.987 25.9485 130.904C26.134 130.822 26.2937 130.69 26.4104 130.524C27.1898 129.416 28.9009 130.382 28.3546 131.622C28.2727 131.808 28.2428 132.012 28.268 132.214C28.2932 132.415 28.3726 132.606 28.4978 132.766C28.6229 132.926 28.7891 133.049 28.9787 133.121C29.1682 133.194 29.3739 133.214 29.574 133.18C30.908 132.948 31.4345 134.839 30.1726 135.33C29.9833 135.403 29.8175 135.527 29.6929 135.687C29.5683 135.847 29.4895 136.039 29.4649 136.24C29.4404 136.442 29.471 136.646 29.5535 136.832C29.636 137.017 29.7674 137.177 29.9335 137.294C31.0419 138.073 30.076 139.784 28.836 139.238C28.6502 139.156 28.4457 139.126 28.2442 139.151C28.0427 139.176 27.8519 139.256 27.692 139.381C27.5321 139.506 27.4092 139.672 27.3363 139.862C27.2634 140.051 27.2434 140.257 27.2782 140.457C27.5102 141.791 25.6186 142.318 25.1279 141.056C25.0544 140.866 24.9309 140.701 24.7706 140.576C24.6103 140.451 24.4192 140.373 24.2176 140.348C24.0161 140.324 23.8116 140.354 23.6261 140.437C23.4406 140.519 23.2809 140.651 23.1642 140.817C22.3848 141.925 20.6737 140.959 21.22 139.719C21.3019 139.533 21.3318 139.329 21.3066 139.127C21.2814 138.926 21.2019 138.735 21.0768 138.575C20.9516 138.415 20.7854 138.292 20.5959 138.219C20.4064 138.147 20.2006 138.127 20.0006 138.161C18.6666 138.393 18.1401 136.502 19.402 136.011C19.5913 135.938 19.7571 135.814 19.8817 135.654C20.0063 135.494 20.0851 135.302 20.1096 135.101C20.1342 134.899 20.1036 134.695 20.0211 134.509C19.9385 134.324 19.8072 134.164 19.6411 134.047ZM26.1928 133.181C25.5325 132.808 24.7511 132.713 24.0205 132.916C23.29 133.119 22.6701 133.605 22.2973 134.265C21.9246 134.925 21.8294 135.707 22.0328 136.437C22.2361 137.168 22.7214 137.788 23.3817 138.16C24.0421 138.533 24.8235 138.628 25.5541 138.425C26.2846 138.222 26.9045 137.736 27.2772 137.076C27.65 136.416 27.7452 135.634 27.5418 134.904C27.3385 134.173 26.8532 133.553 26.1928 133.181ZM25.8829 136.289C26.0469 135.998 26.0888 135.655 25.9993 135.333C25.9098 135.012 25.6963 134.739 25.4057 134.575C25.1152 134.411 24.7713 134.369 24.4499 134.459C24.1285 134.548 23.8557 134.761 23.6917 135.052C23.5277 135.343 23.4858 135.686 23.5753 136.008C23.6648 136.329 23.8783 136.602 24.1688 136.766C24.4594 136.93 24.8032 136.972 25.1247 136.882C25.4461 136.793 25.7188 136.58 25.8829 136.289Z" fill="#0F62FE"/>
<path d="M24.9241 148.225C24.5317 148.003 24.1868 147.706 23.9091 147.352C23.6313 146.997 23.4262 146.591 23.3053 146.157C23.1845 145.723 23.1503 145.269 23.2048 144.822C23.2593 144.374 23.4013 143.942 23.6228 143.55L43.8628 107.695C44.0843 107.302 44.3809 106.957 44.7357 106.68C45.0905 106.402 45.4965 106.197 45.9306 106.076C46.3647 105.955 46.8183 105.921 47.2656 105.975C47.7129 106.03 48.145 106.172 48.5374 106.393L67.461 117.076C68.2535 117.523 68.8358 118.267 69.0798 119.143C69.3238 120.02 69.2096 120.958 68.7623 121.75L48.5223 157.605C48.075 158.398 47.3312 158.98 46.4545 159.224C45.5778 159.468 44.6402 159.354 43.8477 158.907L24.9241 148.225Z" fill="#E8E8E8" fill-opacity="0.1"/>
<path d="M44.8588 108.257C45.157 107.729 45.6529 107.34 46.2373 107.178C46.8218 107.015 47.4469 107.091 47.9752 107.389L66.8988 118.072C67.4271 118.37 67.8153 118.866 67.978 119.45C68.1407 120.035 68.0645 120.66 67.7663 121.188L47.5263 157.043C47.2281 157.572 46.7322 157.96 46.1478 158.122C45.5634 158.285 44.9382 158.209 44.4099 157.911L25.4863 147.229C24.958 146.93 24.5698 146.434 24.4071 145.85C24.2444 145.266 24.3206 144.64 24.6188 144.112L44.8588 108.257ZM23.6228 143.55C23.4013 143.942 23.2593 144.374 23.2048 144.822C23.1503 145.269 23.1845 145.723 23.3053 146.157C23.4262 146.591 23.6313 146.997 23.9091 147.352C24.1868 147.706 24.5317 148.003 24.9241 148.225L43.8477 158.907C44.6402 159.354 45.5778 159.468 46.4545 159.224C47.3312 158.98 48.075 158.398 48.5223 157.605L68.7623 121.75C69.2096 120.958 69.3238 120.02 69.0798 119.143C68.8358 118.267 68.2535 117.523 67.461 117.076L48.5374 106.393C48.145 106.172 47.7129 106.03 47.2656 105.975C46.8183 105.921 46.3647 105.955 45.9306 106.076C45.4965 106.197 45.0905 106.402 44.7357 106.68C44.3809 106.957 44.0843 107.302 43.8628 107.695L23.6228 143.55Z" fill="white" fill-opacity="0.6"/>
<path d="M45.6166 140.222C44.4592 140.653 43.2052 140.755 41.9933 140.517C40.7815 140.28 39.6588 139.712 38.7495 138.877L43.3765 137.157C43.7285 137.026 44.0512 136.827 44.3264 136.572C44.6015 136.316 44.8235 136.009 44.9799 135.668C45.1363 135.326 45.2239 134.957 45.2377 134.582C45.2515 134.207 45.1913 133.833 45.0604 133.481L44.9309 133.133C44.8001 132.781 44.6012 132.458 44.3457 132.183C44.0901 131.908 43.7829 131.686 43.4415 131.53C43.1001 131.373 42.7313 131.286 42.356 131.272C41.9808 131.258 41.6065 131.318 41.2546 131.449L36.6291 133.168C36.7855 131.831 37.341 130.572 38.2232 129.555C39.1053 128.539 40.2733 127.811 41.5749 127.468C42.8765 127.124 44.2514 127.181 45.5204 127.63C46.7894 128.079 47.8937 128.9 48.6895 129.986L57.4864 126.717C57.9376 126.56 58.4325 126.586 58.8648 126.789C59.2971 126.993 59.6324 127.358 59.7988 127.805C59.9652 128.253 59.9495 128.749 59.755 129.185C59.5605 129.622 59.2027 129.964 58.7584 130.14L49.961 133.41C50.0765 134.864 49.7149 136.315 48.9309 137.544C48.1468 138.774 46.9832 139.714 45.6166 140.222Z" fill="white"/>
</g>
<path d="M0.0393153 201.936C-0.0209305 201.62 -0.0107411 201.295 0.0691557 200.984C0.149053 200.673 0.296685 200.383 0.501511 200.135C0.706336 199.888 0.9633 199.689 1.25405 199.552C1.5448 199.415 1.86216 199.344 2.18348 199.344H45.2685C45.5898 199.344 45.9072 199.415 46.198 199.552C46.4887 199.689 46.7457 199.888 46.9505 200.135C47.1553 200.383 47.303 200.673 47.3829 200.984C47.4628 201.295 47.4729 201.62 47.4127 201.936L42.9662 225.228C42.871 225.727 42.6049 226.177 42.2137 226.5C41.8226 226.824 41.3308 227.001 40.8231 227.001H6.63874C6.1312 227.001 5.63956 226.824 5.24842 226.501C4.85728 226.177 4.59109 225.728 4.49568 225.229L0.0393153 201.936Z" fill="#C1D0FF"/>
<path d="M5.47449 192.087C5.47449 191.797 5.58945 191.52 5.79409 191.315C5.99872 191.111 6.27627 190.996 6.56566 190.996H15.8025C15.9523 190.996 16.1005 191.026 16.238 191.086C16.3754 191.146 16.499 191.233 16.6012 191.343L20.9954 196.054C21.0973 196.164 21.2206 196.251 21.3576 196.31C21.4946 196.37 21.6425 196.401 21.7919 196.401H40.3921C40.6815 196.401 40.959 196.516 41.1637 196.721C41.3683 196.926 41.4833 197.203 41.4833 197.492V212.819C41.4833 213.109 41.3683 213.386 41.1637 213.591C40.959 213.795 40.6815 213.91 40.3921 213.91H6.56566C6.27627 213.91 5.99872 213.795 5.79409 213.591C5.58945 213.386 5.47449 213.109 5.47449 212.819V192.087Z" fill="#0F62FE"/>
<path d="M0.0392797 201.936C-0.0211476 201.62 -0.0110956 201.295 0.0687175 200.984C0.148531 200.672 0.296134 200.382 0.500979 200.135C0.705824 199.887 0.962853 199.688 1.2537 199.551C1.54454 199.414 1.86202 199.343 2.18344 199.343H45.2685C45.5898 199.343 45.9072 199.414 46.1979 199.551C46.4887 199.687 46.7456 199.887 46.9505 200.134C47.1553 200.382 47.3029 200.672 47.3828 200.983C47.4627 201.294 47.4729 201.619 47.4127 201.935L42.9661 225.228C42.8709 225.727 42.6048 226.177 42.2137 226.5C41.8225 226.824 41.3308 227.001 40.8231 227.001H6.63871C6.13117 227.001 5.63953 226.824 5.24838 226.501C4.85724 226.177 4.59106 225.728 4.49564 225.229L0.0392797 201.936Z" fill="#E8E8E8" fill-opacity="0.1"/>
<path d="M45.2685 200.434C45.4291 200.434 45.5876 200.47 45.7329 200.538C45.8781 200.607 46.0065 200.706 46.1089 200.83C46.2112 200.954 46.285 201.098 46.325 201.254C46.3649 201.409 46.3701 201.572 46.34 201.729L41.8946 225.023C41.8471 225.272 41.7141 225.497 41.5185 225.659C41.3229 225.821 41.077 225.91 40.8231 225.91H6.63871C6.38494 225.91 6.13912 225.821 5.94355 225.66C5.74797 225.498 5.61488 225.273 5.56718 225.024L1.11081 201.731C1.08059 201.573 1.08563 201.41 1.12557 201.254C1.1655 201.099 1.23935 200.954 1.34184 200.83C1.44432 200.706 1.5729 200.606 1.71839 200.538C1.86388 200.47 2.02268 200.434 2.18344 200.434H45.2685ZM2.18344 199.343C1.86202 199.343 1.54454 199.414 1.2537 199.551C0.962853 199.688 0.705824 199.887 0.500979 200.135C0.296134 200.382 0.148531 200.672 0.0687175 200.984C-0.0110956 201.295 -0.0211476 201.62 0.0392797 201.936L4.49564 225.229C4.59106 225.728 4.85724 226.177 5.24838 226.501C5.63953 226.824 6.13117 227.001 6.63871 227.001H40.8231C41.3308 227.001 41.8225 226.824 42.2137 226.5C42.6048 226.177 42.8709 225.727 42.9661 225.228L47.4127 201.935C47.4729 201.619 47.4627 201.294 47.3828 200.983C47.3029 200.672 47.1553 200.382 46.9505 200.134C46.7456 199.887 46.4887 199.687 46.1979 199.551C45.9072 199.414 45.5898 199.343 45.2685 199.343H2.18344Z" fill="white" fill-opacity="0.6"/>
<path d="M9.83911 209C9.83911 208.566 10.0116 208.15 10.3185 207.843C10.6255 207.536 11.0418 207.363 11.4759 207.363H33.2994C33.7335 207.363 34.1498 207.536 34.4568 207.843C34.7637 208.15 34.9361 208.566 34.9361 209C34.9361 209.434 34.7637 209.85 34.4568 210.157C34.1498 210.464 33.7335 210.637 33.2994 210.637H11.4759C11.0418 210.637 10.6255 210.464 10.3185 210.157C10.0116 209.85 9.83911 209.434 9.83911 209Z" fill="white"/>
<path d="M9.83911 217.729C9.83911 217.295 10.0116 216.879 10.3185 216.572C10.6255 216.265 11.0418 216.093 11.4759 216.093H33.2994C33.7334 216.093 34.1497 216.265 34.4566 216.572C34.7635 216.879 34.9359 217.295 34.9359 217.729C34.9359 218.163 34.7635 218.58 34.4566 218.887C34.1497 219.194 33.7334 219.366 33.2994 219.366H11.4759C11.0418 219.366 10.6255 219.194 10.3185 218.887C10.0116 218.58 9.83911 218.164 9.83911 217.729Z" fill="white"/>
<defs>
<clipPath id="clip0_16_157">
<rect width="48" height="48" fill="white" transform="translate(118 276)"/>
</clipPath>
<clipPath id="clip1_16_157">
<rect width="48" height="48" fill="white" transform="translate(61 67.897) rotate(-43.2635)"/>
</clipPath>
<clipPath id="clip2_16_157">
<rect width="48" height="48" fill="white" transform="translate(10 139.8) rotate(-60.5557)"/>
</clipPath>
</defs>
</svg>
