<svg xmlns="http://www.w3.org/2000/svg" viewBox="0 0 1024 1024" version="1.1" >
	<path fill="#2466F8"
		d="m589.09 205.63-20.05-.58-21.9-.42c-3.867-23.067-7.8-41.467-11.8-55.2A1363.569 1363.569 0 0 0 521 103.28c-1.42-4.29-4.22-7.94-9.26-5.24-2.4 1.28-3.88 6.09-4.7 8.51a711.111 711.111 0 0 0-25.67 98.01l-24.34.62a590.52 590.52 0 0 0-18.78.5c-.6.027-.713-.457-.34-1.45l11.51-32.69c1.827-2.22 3.053-4.05 3.68-5.49 2.173-4.993 4.84-12.147 8-21.46a356.454 356.454 0 0 1 10-20.48 307.167 307.167 0 0 1 15.51-26.19 18.07 18.07 0 0 0 2.78-3.04 5310.178 5310.178 0 0 1 15.19-21.06c.873-1.207 1.72-2.863 2.54-4.97l4.85-5.89a1.088 1.088 0 0 1 1.65-.05c2.34 2.56 4.55 5.17 6.63 7.83 30.86 39.42 53.82 86.63 68.84 134.89Z" />
	<path fill="#1350CE"
		d="M507.12 68.85c-.82 2.107-1.667 3.763-2.54 4.97a5295.54 5295.54 0 0 0-15.19 21.06 18.073 18.073 0 0 1-2.78 3.04 302.356 302.356 0 0 1 20.51-29.07ZM547.14 204.63l-8.71-.17-22.72-.23a.753.753 0 0 1-.75-.76c.113-21.313.21-42.72.29-64.22.007-2.58-.03-5.113-.11-7.6a.567.567 0 0 0-.48-.53l-.33-.04a.864.864 0 0 0-.893.49.83.83 0 0 0-.077.35l.19 70.87c.007 1.027-.503 1.543-1.53 1.55l-30.65.22a711.111 711.111 0 0 1 25.67-98.01c.82-2.42 2.3-7.23 4.7-8.51 5.04-2.7 7.84.95 9.26 5.24 5.053 15.3 9.833 30.683 14.34 46.15 4 13.733 7.933 32.133 11.8 55.2Z" />
	<path fill="#2466F8"
		d="m630.36 116.34 7.13.05a.761.761 0 0 1 .76.75l.05 4.86a.768.768 0 0 1-.216.54.735.735 0 0 1-.244.168.744.744 0 0 1-.29.062l-7.17.12a.763.763 0 0 0-.75.74l-.13 7.26a.762.762 0 0 1-.76.74l-4.71-.04a.761.761 0 0 1-.76-.75l-.16-7.32a.76.76 0 0 0-.75-.74l-7.72-.13a.762.762 0 0 1-.75-.76l.04-4.58a.758.758 0 0 1 .74-.76l7.75-.18a.76.76 0 0 0 .74-.75l.13-7.47a.763.763 0 0 1 .222-.518.763.763 0 0 1 .518-.222l4.57-.08a.756.756 0 0 1 .77.74l.24 7.54a.758.758 0 0 0 .75.73Z" />
	<path fill="#C3E1FB"
		d="m321.54 115.71-.86 24.67a1.442 1.442 0 0 1-.481 1.033 1.445 1.445 0 0 1-1.079.367l-3.91-.3a1.45 1.45 0 0 1-1.33-1.61l2.8-24.49a1.448 1.448 0 0 1 1.53-1.28l1.96.11a1.452 1.452 0 0 1 1.37 1.5ZM300.62 138.61c.76.893.7 1.723-.18 2.49-.16.14-.343.24-.55.3-1.413.447-2.617.183-3.61-.79-3.84-3.747-7.547-7.913-11.12-12.5-.747-.953-.67-1.84.23-2.66l.59-.52c1.133-1.027 2.193-.957 3.18.21l11.46 13.47ZM350.817 124.654l-.044-.041a1.51 1.51 0 0 0-2.134.086l-13.522 14.654a1.51 1.51 0 0 0 .086 2.134l.044.04a1.51 1.51 0 0 0 2.134-.085l13.522-14.655a1.509 1.509 0 0 0-.086-2.133ZM538.43 204.46a176.559 176.559 0 0 0-7.06 35.2c-15.36-6.18-29.653-4.83-42.88 4.05-8.507 5.707-14.293 13.71-17.36 24.01.82-9.247 1.81-17.19 2.97-23.83 2.66-15.23 4.85-25.94 4.89-38.19 0-.327-.163-.49-.49-.49l-21.47-.03 24.34-.62 30.65-.22c1.027-.007 1.537-.523 1.53-1.55l-.19-70.87a.83.83 0 0 1 .293-.637.867.867 0 0 1 .677-.203l.33.04c.13.021.249.085.336.181.088.097.138.22.144.349.08 2.487.117 5.02.11 7.6-.08 21.5-.177 42.907-.29 64.22a.758.758 0 0 0 .216.537.74.74 0 0 0 .534.223l22.72.23Zm-23.42 1.811a.592.592 0 0 0-.175-.424.596.596 0 0 0-.423-.177h-.04a.604.604 0 0 0-.556.369.625.625 0 0 0-.046.23l-.04 23.38a.592.592 0 0 0 .175.424.596.596 0 0 0 .424.177h.04a.603.603 0 0 0 .601-.599l.04-23.38ZM346.62 162.53c-19.7 3.49-39.15 6.11-58.33 12.08 1.067-13.76 7.783-23.153 20.15-28.18 15.04-6.12 31.37 1.93 38.18 16.1Z" />
	<path fill="#1350CE"
		d="m449.42 171.54 11.68-26.95c-3.16 9.313-5.827 16.467-8 21.46-.627 1.44-1.853 3.27-3.68 5.49Z" />
	<path fill="#B4D9FD"
		d="M346.62 162.53c5.63 12.98 2.84 28.49-8.53 37.59-3.16 2.527-5.82 6.253-7.98 11.18a94.737 94.737 0 0 0-23.38-1.22c-2.653-4.32-6.117-8.797-10.39-13.43-5.633-6.1-8.317-13.447-8.05-22.04 19.18-5.97 38.63-8.59 58.33-12.08Zm-21.369 5.362a.627.627 0 0 0-.505-.485.651.651 0 0 0-.245.005l-.039.009a.627.627 0 0 0-.485.505.637.637 0 0 0 .004.246l1.508 6.856a.622.622 0 0 0 .276.395.63.63 0 0 0 .475.085l.039-.009a.646.646 0 0 0 .225-.098.64.64 0 0 0 .26-.407.651.651 0 0 0-.005-.245l-1.508-6.857Zm6.299 18.018-1.58-5.33a.15.15 0 0 0-.18-.11l-.06.02c-.267.079-.439.438-.479.999-.039.56.058 1.277.269 1.991l.07.23c.211.713.519 1.365.856 1.815.337.45.677.66.944.585l.06-.02a.153.153 0 0 0 .086-.07.156.156 0 0 0 .014-.11Z" />
	<path fill="#62A1FF"
		d="m324.501 167.412-.04.009a.631.631 0 0 0-.48.75l1.508 6.857a.63.63 0 0 0 .751.48l.039-.009a.631.631 0 0 0 .48-.75l-1.508-6.857a.63.63 0 0 0-.75-.48ZM331.55 185.91a.156.156 0 0 1-.014.11.157.157 0 0 1-.086.07l-.06.02c-.267.075-.607-.135-.944-.585-.338-.45-.645-1.102-.856-1.815l-.07-.23c-.211-.714-.308-1.431-.269-1.991.04-.561.212-.92.479-.999l.06-.02a.15.15 0 0 1 .18.11l1.58 5.33Z" />
	<path fill="#E3F1FB"
		d="M437.91 204.23c-.373.993-.26 1.477.34 1.45a590.52 590.52 0 0 1 18.78-.5l21.47.03c.327 0 .49.163.49.49-.04 12.25-2.23 22.96-4.89 38.19-1.16 6.64-2.15 14.583-2.97 23.83a44.296 44.296 0 0 0-1.48 15.27c-2.92 8.3-2.21 15.57-3.04 23.7-2.51 24.55-1.48 48-2.83 71.97-.28 4.867-1.447 9.19-3.5 12.97-1.1 2.027-1.787 3.893-2.06 5.6a39.305 39.305 0 0 0-.47 5.72c-.127 10.533-.35 21.233-.67 32.1-.133 4.38.65 8.057 2.35 11.03 2.23 3.89 3.37 8.08 3.47 12.32.147 5.64.21 11.353.19 17.14a.91.91 0 0 1-.42.77 7.666 7.666 0 0 1-2.68 1.16c-.46.1-.497.287-.11.56a15.31 15.31 0 0 1 2.52 2.19c.38.407.357.43-.07.07a4.965 4.965 0 0 1-.89-.98.242.242 0 0 0-.164-.102.232.232 0 0 0-.098.007.23.23 0 0 0-.088.045l-.21.16c-.013.013-.007.037.02.07l3.41 4.21c.233.287.343.613.33.98a462.086 462.086 0 0 0-.24 32.19c.33 12.07-.28 24.05-.54 35.99-.073 3.293-.75 6.497-2.03 9.61-.127.313-.357.47-.69.47l-25.85.16-23.53.3c-1.06.013-1.59-.51-1.59-1.57v-30.62l-.16-29.21c.653-9.34.97-20.423.95-33.25-.04-27.253-.073-53.363-.1-78.33-.02-13.49.27-26.52 1.5-40.08 2.367-26.167 4.24-43.837 5.62-53.01 1.713-11.42 3.557-22.86 5.53-34.32 1.207-7.007 2.483-13.543 3.83-19.61 2.93-13.16 5.4-27.21 10.57-39.17Zm17.615 51.558a.558.558 0 0 0-.087-.428.569.569 0 0 0-.363-.241l-.059-.011a.569.569 0 0 0-.669.451l-1.312 6.753a.558.558 0 0 0 .087.428.569.569 0 0 0 .363.241l.059.011a.569.569 0 0 0 .669-.451l1.312-6.753Zm-2.116 11.991a.556.556 0 0 0-.106-.408.547.547 0 0 0-.362-.214l-.04-.005a.55.55 0 0 0-.621.468l-1.409 10.021a.556.556 0 0 0 .106.408.547.547 0 0 0 .362.214l.04.005a.55.55 0 0 0 .621-.468l1.409-10.021Zm-2.098 15.063a.496.496 0 0 0-.453-.544l-.04-.003a.51.51 0 0 0-.194.02.511.511 0 0 0-.294.245.517.517 0 0 0-.055.187l-1.086 11.931a.496.496 0 0 0 .453.543l.04.004a.51.51 0 0 0 .194-.02.511.511 0 0 0 .294-.245.516.516 0 0 0 .055-.188l1.086-11.93Zm-7.131 89.408c1.153-4.127 1.8-8.05 1.94-11.77.19-5.37 1.37-10.9 1.07-16.28-.26-4.747.033-9.233.88-13.46a.675.675 0 0 0-.108-.508.666.666 0 0 0-.442-.272l-.27-.05a.362.362 0 0 0-.284.079.367.367 0 0 0-.136.261c-.6 9.287-1.187 18.877-1.76 28.77-.193 3.333-.79 7.55-1.79 12.65a.54.54 0 0 0 .43.63l.31.05a.136.136 0 0 0 .096-.019.152.152 0 0 0 .064-.081Zm-2.17 8.65c-.76.75-.92 1.92-1.15 2.96-.14.6-.013.663.38.19.767-.913 1.21-1.873 1.33-2.88.073-.627-.113-.717-.56-.27Zm-3.87 40.91c-1.39-5.35-1.95-11.84-1.93-17.36.027-5.353 1.287-10.683 3.78-15.99.073-.167.027-.287-.14-.36l-.24-.1a.459.459 0 0 0-.6.24c-1.993 4.72-3.197 9.137-3.61 13.25-.92 9.107.31 18.313 3.69 27.62a317.845 317.845 0 0 0 4 10.39c.12.3.33.39.63.27l.29-.12a.294.294 0 0 0 .171-.164.296.296 0 0 0-.001-.236 117.817 117.817 0 0 1-6.04-17.44Zm11.22 33.11c-.61-1.5-.86-3.11-1.53-4.63-.293-.673-.513-.647-.66.08-.14.713-.077 1.443.19 2.19a121.008 121.008 0 0 0 7.28 16.43c.053.1.14.147.26.14l.56-.03c.313-.02.397-.17.25-.45a150.77 150.77 0 0 1-6.35-13.73Z" />
	<path fill="#B4D9FD"
		d="m547.14 204.63 21.9.42c12.18 12.41 15.08 26.24 15.64 43.01.52 15.407.283 31.93-.71 49.57-.02.393-.213.52-.58.38-2.28-.88-4.517-1.18-6.71-.9-7.51.93-7.93 7.99-7.9 14.12.03 8.61-.88 19.74 11.72 18.57.427-.033.673.16.74.58 3.29 20.55 4.83 41.28 3.88 61.89-1.64 35.5-2.52 70.7-.94 106.33.54 12.273 2.647 23.633 6.32 34.08l.58 2.82a16.04 16.04 0 0 1-4.9-.66c-4.28-1.28-8.547-2.61-12.8-3.99-2.713-.88-4.78-2.27-6.2-4.17a25.709 25.709 0 0 0-4.19-4.38c-1.69-1.39-1.76-5.5-1.84-7.56 1.287.82 2.263 2.013 2.93 3.58.133.3.35.387.65.26l4.39-1.8c-.28-2.747-1.08-5.487-2.4-8.22.273-1.133-.267-1.903-1.62-2.31a.908.908 0 0 1-.63-.62l-.52-1.54c.687-4.693-.12-7.147-2.42-7.36l3.55-4.32 12.6-11.31c.893-.807.74-1.207-.46-1.2-3.113.027-6.313.087-9.6.18-1.95.05-3.78-.54-5.31-1.82-7.527-6.32-14.627-12.63-21.3-18.93a33.503 33.503 0 0 0-6.06-4.55.911.911 0 0 0-1.3.43l-.63 1.51c-.133-.887-.08-1.683.16-2.39a.806.806 0 0 1 .69-.56l10.38-1.29 13.99-.35c.347-.007.59-.17.73-.49 1.833-4.073 3.267-8.093 4.3-12.06 6.05-23.19-3.33-45.13-24.04-56.84a139.339 139.339 0 0 0-7.2-25.95c1.707-.06 2.347-.443 1.92-1.15 1.867-11.04 3.94-22.253 6.22-33.64.487-2.433.787-5.66.9-9.68 24.41-21.41 19.59-58.45-9.7-72.66a176.559 176.559 0 0 1 7.06-35.2l8.71.17Zm15.15 249.89 14.84 12.76c.147.127.21.093.19-.1a.457.457 0 0 0-.15-.32 126.16 126.16 0 0 0-14.88-12.34c-.467-.807-.94-1.18-1.42-1.12-.313.04-.35.163-.11.37.46.393.97.643 1.53.75Z" />
	<path fill="#9DCBFE"
		d="M589.09 205.63a542.245 542.245 0 0 0 4.46 16.66c2.067 7.3 3.553 12.85 4.46 16.65a618.388 618.388 0 0 1 12.7 72.13l-9.32-.19a6.808 6.808 0 0 0-1.56.16c-.973.227-1.297.693-.97 1.4.033.08.097.12.19.12l10.68-.28a.805.805 0 0 1 .74.4l.31.48c.14.313.233.677.28 1.09a714.75 714.75 0 0 1 4.55 60.75c.507 15.953.413 42.203-.28 78.75-.12 6.38.063 22.313.55 47.8l.14 26.24c.007 1.007-.487 1.577-1.48 1.71l-4.31.6c-.973.133-1.523-.287-1.65-1.26-1.29-9.73-6.32-14.16-16.11-10.55-3.66 1.36-3.5 5.6-1.73 8.4-.38 1.193-.507 2.067-.38 2.62l.14 3.37c-3.673-10.447-5.78-21.807-6.32-34.08-1.58-35.63-.7-70.83.94-106.33.95-20.61-.59-41.34-3.88-61.89-.067-.42-.313-.613-.74-.58-12.6 1.17-11.69-9.96-11.72-18.57-.03-6.13.39-13.19 7.9-14.12 2.193-.28 4.43.02 6.71.9.367.14.56.013.58-.38.993-17.64 1.23-34.163.71-49.57-.56-16.77-3.46-30.6-15.64-43.01l20.05.58Zm5.93 106.08a.687.687 0 0 0-.379-.655.69.69 0 0 0-.256-.068l-10.378-.671a.67.67 0 0 0-.493.168.673.673 0 0 0-.23.467l-.004.06a.673.673 0 0 0 .168.492.684.684 0 0 0 .467.23l10.378.671a.67.67 0 0 0 .493-.168.673.673 0 0 0 .23-.467l.004-.059Zm-2.5 85.31c.733-9.707.537-18.987-.59-27.84a241.99 241.99 0 0 0-2.48-15.38c-.073-.387-.257-.447-.55-.18l-.19.18a1.256 1.256 0 0 0-.39 1.18c3.12 15.96 3.937 31.907 2.45 47.84a1.293 1.293 0 0 0 .47 1.14l.23.2a.373.373 0 0 0 .39.057.366.366 0 0 0 .22-.327c.113-2.14.26-4.43.44-6.87ZM514.411 205.67h-.04a.6.6 0 0 0-.601.599l-.04 23.38a.6.6 0 0 0 .599.601h.04a.6.6 0 0 0 .601-.599l.04-23.38a.6.6 0 0 0-.599-.601ZM330.11 211.3l-1.93 4.89-19.66.14-1.79-6.25a94.737 94.737 0 0 1 23.38 1.22Z" />
	<path fill="#1350CE"
		d="m308.52 216.33 19.66-.14c1.487 2.08 1.61 4.29.37 6.63-.14.26-.197.54-.17.84.2 2.64 1.76 5.5-2.18 6.49a1.585 1.585 0 0 0-1.19 1.4c-.18 1.79-.3 3.69-1.69 5.01-3.17 3.02-12.14 2.36-11.39-3.96.133-1.093-.35-1.707-1.45-1.84-2.78-.34-.78-3.12-2.75-4.57a1.67 1.67 0 0 1-.41-2.27c.8-1.22.94-2.523.42-3.91-.45-1.18-.19-2.87.78-3.68Z" />
	<path fill="#62A1FF"
		d="M639.61 229.09c.453-.073.813.057 1.08.39a.594.594 0 0 1 .11.516.598.598 0 0 1-.34.404c-.5.227-.913.133-1.24-.28a.663.663 0 0 1-.092-.629.636.636 0 0 1 .482-.401Z" />
	<path fill="#9DCBFE"
		d="M658.19 229.41c.52-.433.983-.437 1.39-.01a.413.413 0 0 1 .119.322.465.465 0 0 1-.159.318c-.493.42-.947.45-1.36.09a.479.479 0 0 1-.163-.362.468.468 0 0 1 .173-.358Z" />
	<path fill="#1350CE"
		d="M531.37 239.66c29.29 14.21 34.11 51.25 9.7 72.66-26.57 22.38-68.51 5.78-71.42-29.33a44.296 44.296 0 0 1 1.48-15.27c3.067-10.3 8.853-18.303 17.36-24.01 13.227-8.88 27.52-10.23 42.88-4.05Zm-16.21 1.96a1.771 1.771 0 0 0-3.022-1.252 1.775 1.775 0 0 0 0 2.504 1.775 1.775 0 0 0 2.504 0c.332-.332.518-.783.518-1.252Zm9.038-.1a1.333 1.333 0 0 0-1.278-1.38l-1.499-.057a1.327 1.327 0 0 0-1.38 1.277l-.039 1a1.336 1.336 0 0 0 .774 1.259c.158.073.33.114.504.121l1.499.057a1.327 1.327 0 0 0 1.38-1.278l.039-.999Zm-17.266.133a1.707 1.707 0 0 0-.617-1.146 1.698 1.698 0 0 0-1.246-.374l-.916.093a1.708 1.708 0 0 0-1.145.617 1.698 1.698 0 0 0-.374 1.246l.034.338a1.713 1.713 0 0 0 .617 1.146 1.698 1.698 0 0 0 1.246.374l.916-.093a1.708 1.708 0 0 0 1.145-.617 1.698 1.698 0 0 0 .374-1.246l-.034-.338Zm8.688 70.007c11.28-1.673 19.57-6.69 24.87-15.05 3.707-5.847 5.477-12.17 5.31-18.97-.193-8.24-3.457-15.637-9.79-22.19-.88-.96-2.08-1.917-3.6-2.87-5.073-3.187-10.693-5.12-16.86-5.8-5.44-.6-10.893.393-16.36 2.98-9.29 4.4-17.42 14.39-18.53 25.47-.81 8.21.59 15.04 5.59 22.06 7.173 10.073 16.963 14.863 29.37 14.37Zm.75 5.47a2.34 2.34 0 1 0-4.679-.002 2.34 2.34 0 0 0 4.679.002Z" />
	<path fill="#E3F1FB"
		d="M513.39 243.39a1.77 1.77 0 1 0 .001-3.539 1.77 1.77 0 0 0-.001 3.539ZM522.92 240.14l-1.499-.057a1.33 1.33 0 0 0-1.38 1.278l-.039.999a1.33 1.33 0 0 0 1.278 1.38l1.499.057a1.33 1.33 0 0 0 1.38-1.278l.039-.999a1.33 1.33 0 0 0-1.278-1.38ZM505.069 240.133l-.916.093a1.7 1.7 0 0 0-1.519 1.863l.034.338a1.7 1.7 0 0 0 1.863 1.52l.916-.093a1.7 1.7 0 0 0 1.519-1.863l-.034-.338a1.7 1.7 0 0 0-1.863-1.52Z" />
	<path fill="#9DCBFE"
		d="m455.075 255.119-.059-.011a.57.57 0 0 0-.669.451l-1.312 6.753a.57.57 0 0 0 .45.669l.059.011a.57.57 0 0 0 .669-.451l1.312-6.753a.57.57 0 0 0-.45-.669ZM452.941 267.157l-.04-.005a.549.549 0 0 0-.621.468l-1.409 10.021a.552.552 0 0 0 .468.622l.04.005a.55.55 0 0 0 .621-.468l1.409-10.021a.552.552 0 0 0-.468-.622ZM807.3 276.08c-4.93 1.58-6.19 4.61-6.29 9.48-.007.333.157.527.49.58a18.789 18.789 0 0 1 7.31 2.9c-9.5-4.13-21.47-1.09-25.38 9.2-2.013 5.307-1.723 10.483.87 15.53 4.26 8.3 14.81 10.74 23.46 7.77-4.02 11.85-2.14 24.65 2.61 36.02l-6.73 11.87a.515.515 0 0 1-.44.252.51.51 0 0 1-.44-.252c-6.127-10.787-11.733-21.373-16.82-31.76-3.947-8.053-7.117-16.173-9.51-24.36-.687-2.333-1.113-5.24-1.28-8.72-.38-7.753 2.147-14.45 7.58-20.09 6.513-6.767 14.703-9.573 24.57-8.42Z" />
	<path fill="#62A1FF"
		d="M807.3 276.08c11.593 1.707 19.6 7.97 24.02 18.79 2.567 6.287 2.837 12.54.81 18.76-1.627 5-3.94 10.427-6.94 16.28a823.682 823.682 0 0 1-14.82 27.65c-4.75-11.37-6.63-24.17-2.61-36.02 12.9-6.09 13.43-25.64 1.05-32.5a18.789 18.789 0 0 0-7.31-2.9c-.333-.053-.497-.247-.49-.58.1-4.87 1.36-7.9 6.29-9.48Z" />
	<path fill="#2466F8"
		d="m716.95 290.22.03 4.42a.831.831 0 0 1-.81.83l-6.97.2a.83.83 0 0 0-.81.81l-.18 7.1a.829.829 0 0 1-.82.81l-4.38.04a.83.83 0 0 1-.84-.81l-.18-7.08a.828.828 0 0 0-.8-.8l-7.54-.24a.828.828 0 0 1-.81-.83l-.02-4.24a.831.831 0 0 1 .79-.83l7.55-.33a.828.828 0 0 0 .79-.81l.12-7.07a.828.828 0 0 1 .83-.82l4.39-.01a.833.833 0 0 1 .83.8l.23 7.12a.83.83 0 0 0 .82.8l6.97.12a.832.832 0 0 1 .81.82Z" />
	<path fill="#B4D9FD"
		d="m450.858 282.298-.04-.003a.5.5 0 0 0-.543.452l-1.086 11.931a.5.5 0 0 0 .453.543l.04.004a.5.5 0 0 0 .543-.453l1.086-11.93a.501.501 0 0 0-.453-.544Z" />
	<path fill="#C3E1FB"
		d="M469.65 282.99c2.91 35.11 44.85 51.71 71.42 29.33-.113 4.02-.413 7.247-.9 9.68-2.28 11.387-4.353 22.6-6.22 33.64l-31.73-.41a.533.533 0 0 0-.335.114.518.518 0 0 0-.185.296l-.06.26a.527.527 0 0 0 .285.59c.07.033.147.051.225.05l29.88.25c3.233 8.4 5.633 17.05 7.2 25.95-8.047-4.32-16.54-6.497-25.48-6.53-15.247-.053-28.047 5.49-38.4 16.63-6.547 7.047-10.67 14.853-12.37 23.42-3.74 18.86 1.533 34.813 15.82 47.86-1.393 2.793-2.067 6.35-2.02 10.67.067 6.3.173 12.71.32 19.23.06 2.82.623 5.75 1.69 8.79.14.387.41.61.81.67l5.52.83c.4.06.63-.11.69-.51 2.03-14.28 2.61-26.06-5.89-38.65 9.747 8.033 20.857 12.087 33.33 12.16 5.653.04 11.317-.227 16.99-.8.333-.033.52-.213.56-.54l.64-5.45.23 8.82c.007.333.117.63.33.89 6.807 8.293 14.987 14.867 24.54 19.72.287.147.557.12.81-.08.393-.32.813-.503 1.26-.55.373.873 1.027.823 1.96-.15a1.119 1.119 0 0 1 1.92.61c.213 1.42.7 2.857 1.46 4.31l.52 1.54c.1.313.31.52.63.62 1.353.407 1.893 1.177 1.62 2.31-.48-.713-1.037-1.12-1.67-1.22-.38-.06-.623.093-.73.46-.893 2.96-1.047 5.92-.46 8.88a.967.967 0 0 0 .22.453.97.97 0 0 0 .922.307.966.966 0 0 0 .448-.23c.647-.593 1.87-.737 3.67-.43l-4.39 1.8c-.3.127-.517.04-.65-.26-.667-1.567-1.643-2.76-2.93-3.58a37.563 37.563 0 0 1-1.22-2.63c-.273-.667-.153-.753.36-.26.087.08.15.187.19.32.16.567.213.557.16-.03a.83.83 0 0 0-.39-.64 2.851 2.851 0 0 1-.56-.5 148.715 148.715 0 0 1-3.06-3.66c-.467-.213-.39-.713.23-1.5.213-.273.277-.58.19-.92l-.55-2.11a.776.776 0 0 0-.499-.532.759.759 0 0 0-.711.122 14.89 14.89 0 0 1-4.58 2.5 1.43 1.43 0 0 1-1.228-.164 1.416 1.416 0 0 1-.632-1.066c-.09-1.12-.87-1.84-1.77-2.39-4.98-2.993-9.933-6.497-14.86-10.51-1.013-.827-1.787-1.967-2.32-3.42-.08-.233-.21-.263-.39-.09l-3.33 3.16c-1.58.213-3.14.323-4.68.33-10.72.053-19.977.21-27.77.47-.287.007-.42.147-.4.42.027.307.193.46.5.46l31.36-.08c-.687 1.793-1.107 3.423-1.26 4.89-.16 1.493.263 2.927 1.27 4.3.94 1.28 2.01 2.427 3.21 3.44 4.073 19.213 4.507 38.453 1.3 57.72-.053.32-.243.493-.57.52l-5.35.42-88.5-.21 25.85-.16c.333 0 .563-.157.69-.47 1.28-3.113 1.957-6.317 2.03-9.61.26-11.94.87-23.92.54-35.99a462.086 462.086 0 0 1 .24-32.19 1.426 1.426 0 0 0-.33-.98l-3.41-4.21c-.027-.033-.033-.057-.02-.07l.21-.16a.23.23 0 0 1 .088-.045.232.232 0 0 1 .191.027.242.242 0 0 1 .071.068c.253.367.55.693.89.98.427.36.45.337.07-.07a15.31 15.31 0 0 0-2.52-2.19c-.387-.273-.35-.46.11-.56a7.666 7.666 0 0 0 2.68-1.16.91.91 0 0 0 .42-.77c.02-5.787-.043-11.5-.19-17.14-.1-4.24-1.24-8.43-3.47-12.32-1.7-2.973-2.483-6.65-2.35-11.03.32-10.867.543-21.567.67-32.1.02-1.953.177-3.86.47-5.72.273-1.707.96-3.573 2.06-5.6 2.053-3.78 3.22-8.103 3.5-12.97 1.35-23.97.32-47.42 2.83-71.97.83-8.13.12-15.4 3.04-23.7Zm24.622 49.592a.478.478 0 0 0-.366-.571l-9.263-2.02a.479.479 0 0 0-.571.367l-.004.02a.478.478 0 0 0 .366.571l9.263 2.02a.479.479 0 0 0 .571-.367l.004-.02Zm39.927-.694a.52.52 0 0 0-.601-.423l-6.523 1.126a.524.524 0 0 0-.424.601l.01.059a.524.524 0 0 0 .601.424l6.523-1.126a.524.524 0 0 0 .424-.601l-.01-.06Zm-37.689.772c-.593.047-.617.183-.07.41 1.173.487 2.467.737 3.88.75.113 0 .21-.04.29-.12a.449.449 0 0 0 .13-.27c.027-.34-.127-.54-.46-.6-1.18-.207-2.437-.263-3.77-.17Zm26.38 1.175a.653.653 0 0 0-.655-.646l-17.459.122a.649.649 0 0 0-.646.655v.039a.653.653 0 0 0 .655.646l17.46-.122a.648.648 0 0 0 .645-.654v-.04Zm-30.86 21.998c0-.096-.096-.191-.282-.28-.187-.09-.461-.171-.806-.24a10.974 10.974 0 0 0-1.206-.162 17.542 17.542 0 0 0-1.423-.061c-.987-.003-1.934.07-2.632.205-.698.134-1.09.318-1.091.512 0 .096.096.191.282.28.187.09.461.171.806.24.345.069.755.124 1.206.162.451.039.935.059 1.424.061.986.003 1.933-.07 2.631-.205.698-.134 1.09-.318 1.091-.512Zm-23.027 131.286c.033-.039.023-.115-.03-.222a2.318 2.318 0 0 0-.281-.406 6.87 6.87 0 0 0-.488-.528 11.675 11.675 0 0 0-1.28-1.094 7.29 7.29 0 0 0-.598-.399 2.324 2.324 0 0 0-.445-.214c-.114-.035-.191-.034-.224.005s-.023.115.03.222c.054.108.149.246.281.406.132.161.298.34.488.528a11.675 11.675 0 0 0 1.28 1.094c.216.158.419.294.598.399.179.105.33.178.445.214.114.035.191.034.224-.005Z" />
	<path fill="#FAF9F9"
		d="M808.81 289.04c12.38 6.86 11.85 26.41-1.05 32.5-8.65 2.97-19.2.53-23.46-7.77-2.593-5.047-2.883-10.223-.87-15.53 3.91-10.29 15.88-13.33 25.38-9.2Z" />
	<path fill="#9DCBFE"
		d="m248 308.57-3.06.97c-.32.1-.583.28-.79.54-2.12 2.61-4.28 6.52.07 8.47l3 1.35a28.726 28.726 0 0 0-8.51.51c-10.31 2.17-14.51 12.25-12.1 21.89 2.44 9.75 11.99 14.92 21.85 12.56.073 8.58.53 16.517 1.37 23.81.447 3.813 1.437 7.76 2.97 11.84l-5.89 10.4a.7.7 0 0 1-1.22-.01 559.035 559.035 0 0 1-15.9-30.76c-4.247-8.853-7.597-17.183-10.05-24.99-5.8-18.51 8.86-37.78 28.26-36.58Z" />
	<path fill="#62A1FF"
		d="M248 308.57c8.867.44 16 3.68 21.4 9.72 9.05 10.11 8.71 21.96 3.73 33.84-3.46 8.22-10.237 21.013-20.33 38.38-1.533-4.08-2.523-8.027-2.97-11.84-.84-7.293-1.297-15.23-1.37-23.81 5.92-1.9 9.853-5.567 11.8-11 3.57-9.96-1.94-22.36-13.04-23.96l-3-1.35c-4.35-1.95-2.19-5.86-.07-8.47.207-.26.47-.44.79-.54l3.06-.97Z" />
	<path fill="#C3E1FB"
		d="m594.385 310.987-10.378-.671a.68.68 0 0 0-.723.635l-.004.059a.68.68 0 0 0 .635.723l10.378.671a.68.68 0 0 0 .723-.635l.004-.06a.68.68 0 0 0-.635-.722Z" />
	<path fill="#E3F1FB"
		d="M610.71 311.07c-.1.5-.077 1.197.07 2.09l-.31-.48a.805.805 0 0 0-.74-.4l-10.68.28c-.093 0-.157-.04-.19-.12-.327-.707-.003-1.173.97-1.4a6.808 6.808 0 0 1 1.56-.16l9.32.19Z" />
	<path fill="#FAF9F9"
		d="M514.03 319.47a2.34 2.34 0 1 0 0-4.68 2.34 2.34 0 0 0 0 4.68ZM247.22 319.9c11.1 1.6 16.61 14 13.04 23.96-1.947 5.433-5.88 9.1-11.8 11-9.86 2.36-19.41-2.81-21.85-12.56-2.41-9.64 1.79-19.72 12.1-21.89a28.726 28.726 0 0 1 8.51-.51Z" />
	<path fill="#B4D9FD"
		d="M444.18 372.25a.152.152 0 0 1-.064.081.136.136 0 0 1-.096.019l-.31-.05a.54.54 0 0 1-.43-.63c1-5.1 1.597-9.317 1.79-12.65.573-9.893 1.16-19.483 1.76-28.77a.367.367 0 0 1 .42-.34l.27.05a.657.657 0 0 1 .548.515.675.675 0 0 1 .002.265c-.847 4.227-1.14 8.713-.88 13.46.3 5.38-.88 10.91-1.07 16.28-.14 3.72-.787 7.643-1.94 11.77Z" />
	<path fill="#62A1FF"
		d="m493.906 332.011-9.263-2.02a.48.48 0 0 0-.571.367l-.004.02a.48.48 0 0 0 .366.571l9.263 2.019a.479.479 0 0 0 .571-.366l.004-.02a.479.479 0 0 0-.366-.571ZM533.598 331.465l-6.523 1.126a.52.52 0 0 0-.424.601l.01.059a.52.52 0 0 0 .601.424l6.523-1.126a.52.52 0 0 0 .424-.601l-.01-.059a.52.52 0 0 0-.601-.424ZM496.51 332.66c1.333-.093 2.59-.037 3.77.17.333.06.487.26.46.6a.449.449 0 0 1-.13.27.396.396 0 0 1-.29.12c-1.413-.013-2.707-.263-3.88-.75-.547-.227-.523-.363.07-.41Z" />
	<path fill="#9DCBFE"
		d="m522.235 333.189-17.459.122a.65.65 0 0 0-.646.654v.04a.651.651 0 0 0 .655.646l17.459-.122a.651.651 0 0 0 .646-.655v-.04a.65.65 0 0 0-.655-.645ZM374.85 348.59c-.54.007-.813.31-.82.91a88.492 88.492 0 0 0 .93 13.86c.087.607.073 1.36-.04 2.26-.18 1.36.093 2.11.82 2.25-.227.86-.89 1.263-1.99 1.21-2.673-.113-4.437-.13-5.29-.05l-5.45.09c-2.573.38-5.167.82-7.78 1.32-2.48.48-6.03.14-6.16-3.16-.193-4.753-.34-9.343-.44-13.77-.08-3.23 4.43-3.38 6.71-3.49 4.987-.26 9.767-.847 14.34-1.76a6.132 6.132 0 0 0 2.35-1 .973.973 0 0 1 .94-.13c.587.2 1.213.687 1.88 1.46Zm-13.741 13.226c.468.311 1.208.172 2.057-.388.849-.559 1.737-1.493 2.47-2.595.362-.546.676-1.116.922-1.68a7.513 7.513 0 0 0 .513-1.602c.093-.495.101-.931.026-1.282-.076-.351-.234-.611-.466-.765-.468-.311-1.208-.172-2.057.387-.849.56-1.737 1.493-2.47 2.596a11.111 11.111 0 0 0-.922 1.68 7.495 7.495 0 0 0-.513 1.602c-.093.495-.101.931-.026 1.282.076.351.234.611.466.765Z" />
	<path fill="#478FFF"
		d="M375.74 367.87c-.727-.14-1-.89-.82-2.25.113-.9.127-1.653.04-2.26a88.492 88.492 0 0 1-.93-13.86c.007-.6.28-.903.82-.91.88 6.3 1.177 12.727.89 19.28Z" />
	<path fill="#FAF9F9"
		d="M362.104 356.487c-1.525 2.295-1.971 4.681-.995 5.329.975.648 3.002-.687 4.527-2.983 1.525-2.295 1.971-4.681.995-5.329-.975-.648-3.002.687-4.527 2.983Z" />
	<path fill="#C3E1FB"
		d="M592.52 397.02c-.18 2.44-.327 4.73-.44 6.87a.367.367 0 0 1-.22.327.373.373 0 0 1-.39-.057l-.23-.2a1.285 1.285 0 0 1-.378-.508 1.31 1.31 0 0 1-.092-.632c1.487-15.933.67-31.88-2.45-47.84a1.256 1.256 0 0 1 .39-1.18l.19-.18c.293-.267.477-.207.55.18a241.99 241.99 0 0 1 2.48 15.38c1.127 8.853 1.323 18.133.59 27.84Z" />
	<path fill="#62A1FF"
		d="M488.307 356.55c2.055.007 3.722-.314 3.723-.717.001-.403-1.663-.736-3.717-.743-2.055-.007-3.722.314-3.723.717-.001.403 1.663.736 3.717.743Z" />
	<path fill="#9DCBFE"
		d="M533.95 355.64c.427.707-.213 1.09-1.92 1.15l-29.88-.25a.514.514 0 0 1-.508-.405.548.548 0 0 1-.002-.235l.06-.26a.518.518 0 0 1 .185-.296.533.533 0 0 1 .335-.114l31.73.41Z" />
	<path fill="#FE6D04"
		d="M368.46 369.03c-.21 4.73-1.98 6.87-4.14 10.32-.62.987-.907 3.033-.86 6.14-3.527-.56-5.407-1.817-5.64-3.77 3.19-4.23 5.98-6.56 5.19-12.6l5.45-.09Z" />
	<path fill="#1350CE"
		d="M539.23 382.74c20.71 11.71 30.09 33.65 24.04 56.84-1.033 3.967-2.467 7.987-4.3 12.06-.14.32-.383.483-.73.49l-13.99.35-.95-.21c-.353-.073-.443-.27-.27-.59 2.76-4.953 4.6-8.607 5.52-10.96 5.44-13.88 3.49-26.61-5.85-38.19-1.147-1.413-2.597-2.76-4.35-4.04-5.433-4.28-11.117-6.98-17.05-8.1-15.6-2.95-31.26 3.15-40.25 16.58-5.89 8.8-7.71 20.84-4.25 30.51 5.9 16.5 20.75 26.66 38.31 26.58 5.907-.207 11.8-1.683 17.68-4.43l-1.35 10.89-.64 5.45c-.04.327-.227.507-.56.54-5.673.573-11.337.84-16.99.8-12.473-.073-23.583-4.127-33.33-12.16-.207-.313-.58-.657-1.12-1.03-14.287-13.047-19.56-29-15.82-47.86 1.7-8.567 5.823-16.373 12.37-23.42 10.353-11.14 23.153-16.683 38.4-16.63 8.94.033 17.433 2.21 25.48 6.53Zm-23.891-.839a1.353 1.353 0 0 0-.365-.975 1.353 1.353 0 0 0-.947-.431l-1.359-.048a1.355 1.355 0 0 0-.975.365 1.351 1.351 0 0 0-.432.947l-.04 1.139a1.355 1.355 0 0 0 .365.975 1.351 1.351 0 0 0 .947.432l1.359.048a1.355 1.355 0 0 0 .975-.365 1.351 1.351 0 0 0 .432-.947l.04-1.14Zm-10.329.869c-.153-.66-.427-1.153-.82-1.48a1.21 1.21 0 0 0-.866-.279c-.315.022-.61.165-.824.399-1.033 1.147-1.007 2.287.08 3.42a1.467 1.467 0 0 0 1.06.45c1.293-.007 1.75-.843 1.37-2.51Zm20.16.36c0-.536-.213-1.05-.592-1.428a2.017 2.017 0 0 0-2.856 0 2.017 2.017 0 0 0 0 2.856 2.017 2.017 0 0 0 2.856 0c.379-.378.592-.892.592-1.428Zm-9.34 88.26a2.154 2.154 0 0 0-.633-1.527 2.154 2.154 0 0 0-3.054 0 2.16 2.16 0 1 0 3.687 1.527Z" />
	<path fill="#E3F1FB"
		d="m514.027 380.495-1.359-.048a1.36 1.36 0 0 0-1.407 1.312l-.04 1.14a1.36 1.36 0 0 0 1.312 1.406l1.359.048a1.36 1.36 0 0 0 1.407-1.312l.04-1.139a1.36 1.36 0 0 0-1.312-1.407Z" />
	<path fill="#9DCBFE"
		d="M440.86 383.86c.23-1.04.39-2.21 1.15-2.96.447-.447.633-.357.56.27-.12 1.007-.563 1.967-1.33 2.88-.393.473-.52.41-.38-.19Z" />
	<path fill="#E3F1FB"
		d="M505.01 382.77c.38 1.667-.077 2.503-1.37 2.51a1.467 1.467 0 0 1-1.06-.45c-1.087-1.133-1.113-2.273-.08-3.42.214-.234.509-.377.824-.399a1.21 1.21 0 0 1 .866.279c.393.327.667.82.82 1.48Z" />
	<path fill="#FAF9F9" d="M523.15 385.15a2.02 2.02 0 1 0 .001-4.039 2.02 2.02 0 0 0-.001 4.039Z" />
	<path fill="#C3E1FB"
		d="M357.82 381.72c.233 1.953 2.113 3.21 5.64 3.77-1.627 6.387-4.18 12.55-7.66 18.49-1.57 2.69-3.53 4.75-5.16 7.37a.323.323 0 0 0-.028.297.355.355 0 0 0 .228.203l.7.19c-8.13 3.85-8.64 10.61-11.03 17.89-6.12-2.51-15.63-4.38-18.6 3.53-.153.393-.027.53.38.41 6.8-1.953 13.617-2.01 20.45-.17.36-1.12.967-2.22 1.82-3.3-1.973 7.173-1.797 13.52.53 19.04 2.113 4.993 3.413 9.113 3.9 12.36l-32.53 11.19c-.88.147-1.263-.443-1.15-1.77.04-.467.193-1.09.46-1.87 3.147-9.187 4.637-18.443 4.47-27.77 1.073-1.327 1.25-2.94.53-4.84-.993-2.607-1.493-4.853-1.5-6.74a54.474 54.474 0 0 1 .83-9.72c.85-4.74 1.07-7.96 6.01-8.88 1.86-.347 3.787-.87 5.78-1.57l2.43-.1c1.24-.37 2.43-.51 3.4-1.44 1.42-1.36 2.72-2.54 3.75-4.27a404.819 404.819 0 0 1 9.77-15.8c1.907-2.947 4.1-5.113 6.58-6.5Z" />
	<path fill="#9DCBFE"
		d="M438.14 421.81a117.817 117.817 0 0 0 6.04 17.44.297.297 0 0 1-.17.4l-.29.12c-.3.12-.51.03-.63-.27a317.845 317.845 0 0 1-4-10.39c-3.38-9.307-4.61-18.513-3.69-27.62.413-4.113 1.617-8.53 3.61-13.25a.457.457 0 0 1 .6-.24l.24.1c.167.073.213.193.14.36-2.493 5.307-3.753 10.637-3.78 15.99-.02 5.52.54 12.01 1.93 17.36Z" />
	<path fill="#1350CE"
		d="M335.25 392.24c-.547 4.52-2.64 7.873-6.28 10.06-1.22.73-2.63 1.02-3.91 1.53a1.782 1.782 0 0 0-.8 2.647c.199.294.481.521.81.653l6.82 2.7c-1.993.7-3.92 1.223-5.78 1.57-4.94.92-5.16 4.14-6.01 8.88a54.474 54.474 0 0 0-.83 9.72c.007 1.887.507 4.133 1.5 6.74.72 1.9.543 3.513-.53 4.84a135.477 135.477 0 0 1-6.9-7.67c-2.09-2.52-.34-4.39.53-6.77a1.134 1.134 0 0 0-.12-1.01c-1.673-2.593-2.617-4.977-2.83-7.15a669.752 669.752 0 0 1-1.55-19.33c-.2-2.97-.56-8.94 4.04-8.28.79.11 1.61.67 2.32.72.34.013.65-.07.93-.25 1.7-1.127 3.227-1.903 4.58-2.33 6.167-1.933 10.837-1.023 14.01 2.73Z" />
	<path fill="#62A1FF"
		d="M538.35 398.49a1551.767 1551.767 0 0 1-23.24 65.57c-17.56.08-32.41-10.08-38.31-26.58-3.46-9.67-1.64-21.71 4.25-30.51 8.99-13.43 24.65-19.53 40.25-16.58 5.933 1.12 11.617 3.82 17.05 8.1Z" />
	<path fill="#FE6D04"
		d="M335.25 392.24a27.536 27.536 0 0 1 4.78 10.47c.207.913.067 1.63-.42 2.15a44.844 44.844 0 0 1-5.29 4.87l-2.43.1-6.82-2.7a1.776 1.776 0 0 1-1.117-1.647 1.778 1.778 0 0 1 1.107-1.653c1.28-.51 2.69-.8 3.91-1.53 3.64-2.187 5.733-5.54 6.28-10.06ZM373.79 408.1c-2.16-1.78-2.727-3.797-1.7-6.05 2.92-1.88 7.15-4.15 10.61-4.17 3.453-.027 3.75.93.89 2.87-3.047 2.067-5.743 4.313-8.09 6.74-.34.36-.91.563-1.71.61Z" />
	<path fill="#9DCBFE"
		d="M538.35 398.49c1.753 1.28 3.203 2.627 4.35 4.04 9.34 11.58 11.29 24.31 5.85 38.19-.92 2.353-2.76 6.007-5.52 10.96-.173.32-.083.517.27.59l.95.21-10.38 1.29a.806.806 0 0 0-.69.56c-.24.707-.293 1.503-.16 2.39.133.54.127 1.063-.02 1.57l-.21 1.34c-5.88 2.747-11.773 4.223-17.68 4.43a1551.767 1551.767 0 0 0 23.24-65.57Z" />
	<path fill="#B4D9FD"
		d="M372.09 402.05c-1.027 2.253-.46 4.27 1.7 6.05-.46 4.51-8.33 9.24-11.94 12.19-2.12 1.74-4.6 2.88-7 4.26-.027.013-1.677 1.093-4.95 3.24-1.76 1.16-3.54 2.03-5.34 2.61-.853 1.08-1.46 2.18-1.82 3.3-.453-1.587-1.197-2.843-2.23-3.77 2.39-7.28 2.9-14.04 11.03-17.89a92.62 92.62 0 0 0 6.07-3.68c4.58-3.02 9.407-5.123 14.48-6.31Z" />
	<path fill="#1350CE"
		d="M686.83 439.95c-1.027-.38-1.783-.917-2.27-1.61-.693-.987-1.613-1.287-2.76-.9l-7.8 2.62c-4.4-2.22-6.537-5.54-6.41-9.96.09-3.31 3.32-4.47 3.32-7.73a1.216 1.216 0 0 0-1.077-1.209 1.232 1.232 0 0 0-.583.069c-.907.347-1.783.52-2.63.52a1.223 1.223 0 0 1-.97-.42l-8.38-9.22c.167-2.333 1.093-3.703 2.78-4.11 11.78-2.85 16.56 6.68 19.55 15.99.26.83 1.07 2.53 1.6 3.22 3.17 4.09 5.82 7.72 5.63 12.74Z" />
	<path fill="#FDCB7D"
		d="m657.27 412.11 8.38 9.22c.26.287.583.427.97.42.847 0 1.723-.173 2.63-.52a1.234 1.234 0 0 1 1.52.574c.092.175.14.369.14.566 0 3.26-3.23 4.42-3.32 7.73-.127 4.42 2.01 7.74 6.41 9.96-2.9 2.22-6.343 3.33-10.33 3.33-3.94-.007-5.997-1.957-6.17-5.85l1.3-2.87a2.216 2.216 0 0 0-.45-2.49c-.76-.75-1.53-1.76-1.83-2.85-1.607-5.853-1.357-11.593.75-17.22Z" />
	<path fill="#9DCBFE"
		d="M340.51 429.93c1.033.927 1.777 2.183 2.23 3.77-6.833-1.84-13.65-1.783-20.45.17-.407.12-.533-.017-.38-.41 2.97-7.91 12.48-6.04 18.6-3.53Z" />
	<path fill="#C3E1FB"
		d="M686.83 439.95c.58 2.127.87 4.477.87 7.05a398.86 398.86 0 0 1-.38 17.97c-.073 1.54.52 3.773 1.78 6.7 1.493 3.487 3.52 7.37 6.08 11.65.673 1.127.627 2.197-.14 3.21-12.087 3.013-24.26 4.397-36.52 4.15a.985.985 0 0 0-.83.39l-.67.85.69-18.9c.047-1.12.603-1.51 1.67-1.17a5.68 5.68 0 0 0 1.71.27c.527-.007.79-.273.79-.8v-3.46c0-.58-.29-.89-.87-.93l-4.24-.29-3.71-.83-3.87-23.03 8.31-5.24c.173 3.893 2.23 5.843 6.17 5.85 3.987 0 7.43-1.11 10.33-3.33l7.8-2.62c1.147-.387 2.067-.087 2.76.9.487.693 1.243 1.23 2.27 1.61Zm-10.39 26.12a5.72 5.72 0 0 0-1.37.29c-.48.173-.467.307.04.4 1.413.253 2.743.317 3.99.19.533-.06.847-.353.94-.88.6-3.38.87-6.77.81-10.17a.444.444 0 0 0-.132-.305.444.444 0 0 0-.308-.125h-.28c-.433.007-.687.223-.76.65l-1.35 8.49a1.75 1.75 0 0 1-1.58 1.46Zm9.92 1.33c-2.14 6.81-6.75 7.82-12.79 9.68-.293.087-.433.283-.42.59.007.153.063.29.17.41.18.213.413.327.7.34 7.21.43 14.67-1.69 12.81-10.99-.127-.62-.283-.63-.47-.03Z" />
	<path fill="#1350CE"
		d="m649.19 442.78 3.87 23.03c-.413.407-1.057.573-1.93.5-.347-.027-.513.133-.5.48.02.487.25.87.69 1.15.84.54 1.65 1.043 2.43 1.51l1.51 2.6a.708.708 0 0 1 .009.715.734.734 0 0 1-.619.375c-8.74.16-17.21.213-25.41.16-4.62-.04-6.01-6.76-6.72-10.32-1.1-5.5-2.25-11.09-3.45-16.77a24.775 24.775 0 0 1-.5-3.82c-.027-.447.183-.67.63-.67 9.367.033 18.467.097 27.3.19.887.007 1.783.297 2.69.87Z" />
	<path fill="#62A1FF"
		d="M788.42 457.33c.96 2.1 6.14 3.44 8.22 3.62 3.03.26 4.97-3.95 8.2-2.09 4.27 2.45 8.13 6.7 10.86 10.63 2.12 3.04-1.91 6.36-3.82 8.46a1.867 1.867 0 0 0-.45 1.63c.46 2.25 1.52 6.81 4.53 7.09 3.13.29 7.2-.57 7.92 3.58.873 4.993.98 9.97.32 14.93-.63 4.77-8.75 1.96-10.58 5.27-.853 1.533-1.437 3.09-1.75 4.67-.96 4.82 7.27 6.46 3.92 11.56-2.28 3.48-5.103 6.69-8.47 9.63-1.97 1.73-4.8 3.3-7.04.97-2.88-2.98-7.33-1.42-10.46.11-3.87 1.88.42 8.79-5.08 9.82-4.26.81-11.61 1.65-15.74-.47-3.84-1.96 0-7.43-4.19-9.68-1.813-.967-3.71-1.483-5.69-1.55-3.41-.11-5.77 4.32-9.31 2.08-4.5-2.847-8.05-6.637-10.65-11.37-3.06-5.6 8.45-7.18 3.02-15.07-.94-1.38-1.98-2.52-3.8-2.54-3.68-.02-7.16-.1-7.42-4.79-.233-4.26-.197-8.03.11-11.31.54-5.9 3.48-5.37 8.2-5.46 3.11-.07 5.99-7.18 3.71-9.31-3-2.8-5.79-5.43-2.41-9.59a70.63 70.63 0 0 1 7.77-8.11c1.96-1.75 4.4-1.96 6.5-.44 3.44 2.49 6.2 1.59 10.02-.35 2.32-1.18 2.21-4.55 2.5-6.8.38-2.96 4.05-3.39 6.47-3.5 4.153-.193 7.837-.05 11.05.43 1.56.24 2.43 1.65 2.51 3.16.093 1.887.437 3.483 1.03 4.79Zm-6.485 57.204a16.605 16.605 0 0 0 10.176-7.853c2.22-3.894 2.818-8.538 1.663-12.91a17.315 17.315 0 0 0-2.899-5.982 17.072 17.072 0 0 0-4.924-4.421 16.732 16.732 0 0 0-6.198-2.185 16.494 16.494 0 0 0-6.528.383c-4.295 1.134-7.956 3.959-10.176 7.853-2.22 3.894-2.818 8.538-1.663 12.91a17.324 17.324 0 0 0 2.899 5.982 17.072 17.072 0 0 0 4.924 4.421 16.732 16.732 0 0 0 6.198 2.185c2.183.309 4.402.179 6.528-.383Z" />
	<path fill="#9DCBFE"
		d="M449.36 454.92a150.77 150.77 0 0 0 6.35 13.73c.147.28.063.43-.25.45l-.56.03c-.12.007-.207-.04-.26-.14a121.008 121.008 0 0 1-7.28-16.43c-.267-.747-.33-1.477-.19-2.19.147-.727.367-.753.66-.08.67 1.52.92 3.13 1.53 4.63ZM562.29 454.52a3.273 3.273 0 0 1-1.53-.75c-.24-.207-.203-.33.11-.37.48-.06.953.313 1.42 1.12Z" />
	<path fill="#62A1FF"
		d="M562.29 454.52a126.16 126.16 0 0 1 14.88 12.34.457.457 0 0 1 .15.32c.02.193-.043.227-.19.1l-14.84-12.76Z" />
	<path fill="#FAF9F9"
		d="M565.08 492.41c-12.347-7.44-22.95-16.76-31.81-27.96a1.39 1.39 0 0 1-.31-.89l.04-5.27c.147-.507.153-1.03.02-1.57l.63-1.51a.904.904 0 0 1 .553-.51c.123-.041.253-.055.382-.041a.911.911 0 0 1 .365.121 33.503 33.503 0 0 1 6.06 4.55c6.673 6.3 13.773 12.61 21.3 18.93 1.53 1.28 3.36 1.87 5.31 1.82 3.287-.093 6.487-.153 9.6-.18 1.2-.007 1.353.393.46 1.2l-12.6 11.31Z" />
	<path fill="#9DCBFE"
		d="M676.44 466.07a1.75 1.75 0 0 0 1.58-1.46l1.35-8.49c.073-.427.327-.643.76-.65h.28c.115 0 .225.045.308.125.082.081.129.19.132.305.06 3.4-.21 6.79-.81 10.17-.093.527-.407.82-.94.88-1.247.127-2.577.063-3.99-.19-.507-.093-.52-.227-.04-.4a5.72 5.72 0 0 1 1.37-.29Z" />
	<path fill="#E3F1FB"
		d="m533 458.29-.04 5.27c0 .333.103.63.31.89 8.86 11.2 19.463 20.52 31.81 27.96l-3.55 4.32-2.92 2.59c-.447.047-.867.23-1.26.55a.699.699 0 0 1-.81.08c-9.553-4.853-17.733-11.427-24.54-19.72a1.415 1.415 0 0 1-.33-.89l-.23-8.82 1.35-10.89.21-1.34Z" />
	<path fill="#2466F8"
		d="M348.99 461.8c-.8 1.467-.737 3.13.19 4.99.447.887 1.02 1.45 1.72 1.69a85.72 85.72 0 0 0 4.42 20.51c-.533-.02-.703.563-.51 1.75.633 3.96 1.05 7.94 1.25 11.94.187 3.66-.09 7.63-.83 11.91a390.047 390.047 0 0 1-7.2 33l-7.54.29c-.827-2.213-1.273-4.923-1.34-8.13-.1-5.333-.147-10.763-.14-16.29.013-6.367-.42-11.07-1.3-14.11-1.52-5.233-3.45-9.743-5.79-13.53-2.73-4.41-6.85-8.4-10.52-12.23-2.507-2.613-4.153-6.147-4.94-10.6l32.53-11.19Z" />
	<path fill="#E3F1FB"
		d="M478.8 464.12c.54.373.913.717 1.12 1.03 8.5 12.59 7.92 24.37 5.89 38.65-.06.4-.29.57-.69.51l-5.52-.83c-.4-.06-.67-.283-.81-.67-1.067-3.04-1.63-5.97-1.69-8.79-.147-6.52-.253-12.93-.32-19.23-.047-4.32.627-7.877 2.02-10.67Z" />
	<path fill="#FDCB7D"
		d="m653.06 465.81 3.71.83c.893.287 1.977.35 3.25.19.217-.027.438-.002.644.073a1.374 1.374 0 0 1 .866 1.577l-.54 2.43a.973.973 0 0 1-.569.689.985.985 0 0 1-.891-.059c-1.827-1.1-3.753-1.797-5.78-2.09-.78-.467-1.59-.97-2.43-1.51-.44-.28-.67-.663-.69-1.15-.013-.347.153-.507.5-.48.873.073 1.517-.093 1.93-.5Z" />
	<path fill="#9DCBFE"
		d="M673.57 477.08c6.04-1.86 10.65-2.87 12.79-9.68.187-.6.343-.59.47.03 1.86 9.3-5.6 11.42-12.81 10.99a.933.933 0 0 1-.7-.34.645.645 0 0 1-.17-.41c-.013-.307.127-.503.42-.59Z" />
	<path fill="#1350CE"
		d="M350.9 468.48c7.773 1.82 15.923 4.23 24.45 7.23 1.53.53 2.22 1.08 2.55 2.78a289.363 289.363 0 0 1 4.5 33.39c-3.027.233-5.38.907-7.06 2.02-.64.073-1.02-.14-1.14-.64-2.02-8.55-4.49-16.9-5.69-25.44-.073-.5-.36-.713-.86-.64l-12.33 1.81a85.72 85.72 0 0 1-4.42-20.51Z" />
	<path fill="#FAF9F9"
		d="M513.67 473.55a2.16 2.16 0 1 0 0-4.32 2.16 2.16 0 0 0 0 4.32ZM761.386 502.329c2.405 9.104 11.605 14.568 20.549 12.205 8.944-2.363 14.245-11.659 11.839-20.763-2.405-9.104-11.605-14.568-20.549-12.205-8.944 2.363-14.245 11.659-11.839 20.763Z" />
	<path fill="#B4D9FD"
		d="M467.077 485.987c.924.789 1.786 1.296 1.926 1.132.14-.164-.496-.937-1.42-1.726-.924-.789-1.786-1.296-1.926-1.132-.14.164.496.936 1.42 1.726Z" />
	<path fill="#2466F8"
		d="M695.04 486.53c.79 13.23-2.99 27.33-5.57 39.72-.613 2.973-.44 6.977.52 12.01.933 4.873 3.34 13.97 7.22 27.29.133.467.29 1.533.47 3.2-2.273.413-4.12 1.083-5.54 2.01-.82.407-1.453.153-1.9-.76-3.353-6.84-7.027-15.08-11.02-24.72-3.73-8.99-5.68-18.13-7.91-27.51-.373-1.58-.937-1.65-1.69-.21-3.567 6.86-7.397 14.14-11.49 21.84a36.643 36.643 0 0 0-1.93 4.25c-.213.587-.103 1.107.33 1.56l37.88 39.19-3.1 2.04c-.747.047-1.853.49-3.32 1.33-1.08.613-2.49.88-4.23.8-4.9-.24-9.76 2.14-13.27 5.42-2.067 1.927-3.7 4.66-4.9 8.2a253.253 253.253 0 0 0-4.01 12.93c-3.107 11.027-7.08 24.21-11.92 39.55a.485.485 0 0 1-.41.35.739.739 0 0 1-.27-.01c-.307-.087-.46-.287-.46-.6a916.14 916.14 0 0 0-.38-18.96c-.33-11.18 2.46-21.31 5.45-31.92.098-.338.305-.636.59-.85 4.3-3.22 9.34-4.61 6.58-11.65-1.727-4.4-4.547-9.06-8.46-13.98-.88-1.1-2.38-1.63-2.86-2.7a1.136 1.136 0 0 1 .09-1.17l2.9-4.32a1.394 1.394 0 0 0 .206-1.066 1.409 1.409 0 0 0-.626-.894l-3.25-2.07a1.516 1.516 0 0 1-.64-.8c-2.213-6.167-3.633-12.083-4.26-17.75-.84-7.62-3.21-11.68-10.66-14.13a1.49 1.49 0 0 1-.86-.71c-3.387-6.02-5.47-12.547-6.25-19.58a726.105 726.105 0 0 1 15.89 16.17 25.981 25.981 0 0 1 2.9 3.65.492.492 0 0 0 .716.109.493.493 0 0 0 .154-.219c4.673-13.313 8.43-26.53 11.27-39.65l.67-.85a.985.985 0 0 1 .83-.39c12.26.247 24.433-1.137 36.52-4.15Z" />
	<path fill="#FAF9F9"
		d="m375.34 513.9 3.67 17.35c.747-.907 1.167-.547 1.26 1.08a118.948 118.948 0 0 0-9.87 9.3 1200.971 1200.971 0 0 1-18.2 18.79c-1.46 1.413-3.06 2.09-4.8 2.03a1.307 1.307 0 0 1-.528-.136 1.306 1.306 0 0 1-.684-.82 1.332 1.332 0 0 1-.038-.544l1.88-13.36a390.047 390.047 0 0 0 7.2-33c.74-4.28 1.017-8.25.83-11.91-.2-4-.617-7.98-1.25-11.94-.193-1.187-.023-1.77.51-1.75l12.33-1.81c.5-.073.787.14.86.64 1.2 8.54 3.67 16.89 5.69 25.44.12.5.5.713 1.14.64Z" />
	<path fill="#2466F8"
		d="M556.63 507.34c-.8 2.273-1.777 3.927-2.93 4.96-1.793.527-4.197.853-7.21.98-7.78.33-12.39-4.29-18.08-8.63a19.893 19.893 0 0 1-3.21-3.44c-1.007-1.373-1.43-2.807-1.27-4.3.153-1.467.573-3.097 1.26-4.89-.027-.227.303-.76.99-1.6l3.33-3.16c.18-.173.31-.143.39.09.533 1.453 1.307 2.593 2.32 3.42 4.927 4.013 9.88 7.517 14.86 10.51.9.55 1.68 1.27 1.77 2.39.018.214.084.421.194.605a1.41 1.41 0 0 0 1.033.684c.213.028.429.008.633-.059a14.89 14.89 0 0 0 4.58-2.5.759.759 0 0 1 .711-.122.771.771 0 0 1 .499.532l.55 2.11c.087.34.023.647-.19.92-.62.787-.697 1.287-.23 1.5Z" />
	<path fill="#62A1FF"
		d="M526.18 490.42c-.687.84-1.017 1.373-.99 1.6l-31.36.08c-.307 0-.473-.153-.5-.46-.02-.273.113-.413.4-.42 7.793-.26 17.05-.417 27.77-.47 1.54-.007 3.1-.117 4.68-.33ZM563.95 504.09c-.76-1.453-1.247-2.89-1.46-4.31a1.116 1.116 0 0 0-.769-.906 1.13 1.13 0 0 0-1.151.296c-.933.973-1.587 1.023-1.96.15l2.92-2.59c2.3.213 3.107 2.667 2.42 7.36Z" />
	<path fill="#2466F8"
		d="m242.93 512.83-7.52-.17a.763.763 0 0 1-.518-.222.763.763 0 0 1-.222-.518l-.11-4.09a.757.757 0 0 1 .71-.78l7.5-.45a.762.762 0 0 0 .72-.74l.18-7.3a.758.758 0 0 1 .76-.74l4.7-.02a.761.761 0 0 1 .76.75l.08 7.23a.761.761 0 0 0 .75.75l7.23.08a.762.762 0 0 1 .75.76l-.02 4.72a.758.758 0 0 1-.74.76l-7.3.16a.763.763 0 0 0-.74.72l-.45 7.49a.761.761 0 0 1-.77.71l-4.1-.1a.763.763 0 0 1-.518-.222.763.763 0 0 1-.222-.518l-.16-7.51a.762.762 0 0 0-.75-.75Z" />
	<path fill="#1350CE"
		d="m615.88 501.55 10.21 10.31c.78 7.033 2.863 13.56 6.25 19.58.193.347.48.583.86.71 7.45 2.45 9.82 6.51 10.66 14.13.627 5.667 2.047 11.583 4.26 17.75.12.34.333.607.64.8l3.25 2.07a1.409 1.409 0 0 1 .632 1.449 1.394 1.394 0 0 1-.212.511l-2.9 4.32a1.136 1.136 0 0 0-.09 1.17c.48 1.07 1.98 1.6 2.86 2.7 3.913 4.92 6.733 9.58 8.46 13.98 2.76 7.04-2.28 8.43-6.58 11.65a1.633 1.633 0 0 0-.59.85c-2.99 10.61-5.78 20.74-5.45 31.92.193 6.373.32 12.693.38 18.96 0 .313.153.513.46.6.087.02.177.023.27.01a.485.485 0 0 0 .41-.35c4.84-15.34 8.813-28.523 11.92-39.55a253.253 253.253 0 0 1 4.01-12.93c1.2-3.54 2.833-6.273 4.9-8.2 3.51-3.28 8.37-5.66 13.27-5.42 1.74.08 3.15-.187 4.23-.8 1.467-.84 2.573-1.283 3.32-1.33-2.127 1.36-4.047 2.413-5.76 3.16-1.76.767-1.69 1.293.21 1.58.393.06 1.14.023 2.24-.11 3.867-.447 7.697-1.1 11.49-1.96 7.02 6.213 13.34 12.95 18.96 20.21 2 2.587 3.82 5.443 5.46 8.57-.933 2.58-1.797 4.383-2.59 5.41-1.86 2.4-4.14 3.18-6.61 4.31a1.518 1.518 0 0 0-.89 1.43c.15 5.65-.58 11.38.99 16.89 1.33 4.72 3.61 9.38 5.73 13.9 3.57 7.62 3.2 14.7-3.9 20.36-2.87 2.29-7.72 3.72-11.47 4.91a3.835 3.835 0 0 0-2.49 2.49c-7.95 24.94-16.01 52.66-23.86 78.72-.54 1.78-.983 3.54-1.33 5.28-.253 1.267.207 3.45 1.38 6.55A498.054 498.054 0 0 0 685 793.5c1.107 2.647 1.7 5.713 1.78 9.2l-2.23-1.68-11.64-8.89c.067-.2-.12-.383-.56-.55a.556.556 0 0 0-.618.162.58.58 0 0 0-.112.198l-46.54 152.4c-3.033 8.187-5.647 16.743-7.84 25.67l-9.51.21 6.99-24.19c.273-.947-.08-1.42-1.06-1.42l-42.41.15c-.333 0-.617.12-.85.36-.52.527-.777 1.257-.77 2.19l-6.89 22.91-9.19.07-.14-.26a.723.723 0 0 1-.05-.54l2.28-7.57 4.26-15.65 9.33-29.9 12.87-42.25 5.82-18.91 1.31-4.55 31.26-100a1.442 1.442 0 0 0-.47-1.56l-33.67-27.21-.16-10.31c3.867.04 7.73.07 11.59.09 3.22.02 5.627-.23 7.22-.75 4.2-1.36 8.02-4.54 9.61-8.78.973-2.593 1.47-4.57 1.49-5.93.053-2.653.067-5.25.04-7.79-.027-2.413.16-4.92.56-7.52.58-3.8.767-7.75.56-11.85a.831.831 0 0 0-.48-.75c-.367-.187-.837-.163-1.41.07.093-2.193.647-3.353 1.66-3.48 1.8-3.76 1.277-7.49-1.57-11.19-.133-1.453-.193-3.437-.18-5.95.007-3.153.043-6.347.11-9.58.06-2.58.82-4.91 2.1-7.12 4.153-7.167 8.407-13.74 12.76-19.72 4.33-5.95 7.82-11.4 8.67-18.87.033-.3-.09-.5-.37-.6-.22-.087-.36-.183-.42-.29l.1-.99c2.487 1.107 5.047 1.5 7.68 1.18a2.301 2.301 0 0 0 2.01-2.45c-.293-3.86.123-7.783 1.25-11.77a2.305 2.305 0 0 0-.846-2.475 2.284 2.284 0 0 0-.834-.385l-4.38-1.03a.815.815 0 0 0-.708.164.802.802 0 0 0-.292.666c.127 2.707.29 5.303.49 7.79.2 2.453-.873 3.89-3.22 4.31-1.113.34-2.143-.12-3.09-1.38-4.71-6.28-8.89-12.38-11.73-19.77a115.154 115.154 0 0 0-4.35-9.93c-1.127-2.267-2.273-3.54-3.44-3.82-5.18-1.233-8.987-4.2-11.42-8.9l-3.69-6.35-.13-2.26 2.36-2.39a.676.676 0 0 0 .173-.663.684.684 0 0 0-.493-.477c-3.09-.76-2.67-3-2.68-5.49a.75.75 0 0 0-1.26-.54 4.496 4.496 0 0 0-1.23 1.99c-.26.887-.85 1.317-1.77 1.29-2.44-.067-4.403-.467-5.89-1.2-1.77-2.8-1.93-7.04 1.73-8.4 9.79-3.61 14.82.82 16.11 10.55.127.973.677 1.393 1.65 1.26l4.31-.6c.993-.133 1.487-.703 1.48-1.71l-.14-26.24Zm20.05 177.15c-2.03 3.04-.8 5.72-1.79 8.71-.107.32-.303.567-.59.74-1.453.9-2.917 1.74-4.39 2.52-.7.367-.963 1.037-.79 2.01a.722.722 0 0 0 .79.59c2.45-.28 5.31.08 7.44-1.42a21.577 21.577 0 0 1 5.25-2.69 2.271 2.271 0 0 0 1.46-2.69c-.38-1.54-1.1-3.03-2.16-4.47-.06-3.15-1.79-6.4-5.22-3.3Zm40.6 62.36c.58-1.693.23-1.913-1.05-.66-3.28 3.19-7.08 4.07-11.21 5.63a.785.785 0 0 0-.45 1.03c1.8 4.25 3.19 9.56 5.55 13.82a.526.526 0 0 0 .471.266.534.534 0 0 0 .459-.286c.3-.593.553-1.257.76-1.99 1.807-6.48 3.63-12.417 5.47-17.81Zm-27.54 29.91c4.373.3 8.64.277 12.8-.07a1.02 1.02 0 0 0 .8-1.53c-1-1.76-2.03-3.54-2.71-5.44-2.24-6.253-4.88-12.183-7.92-17.79a11.786 11.786 0 0 0-2.31-2.98.635.635 0 0 0-.691-.124.643.643 0 0 0-.389.584c-.067 6.473-.023 13.19.13 20.15a43.013 43.013 0 0 1-.35 6.42.679.679 0 0 0 .151.529.694.694 0 0 0 .489.251Zm-19.51-14.15a.584.584 0 0 0-.763.037.589.589 0 0 0-.147.233l-4.49 13.13a.588.588 0 0 0-.022.27.588.588 0 0 0 .309.426.574.574 0 0 0 .263.064l21.05-.12a.58.58 0 0 0 .36-1.04l-16.56-13Zm33.73 25.46a10.821 10.821 0 0 1-3.33-1.79c-.87-.68-1.87-.62-2.91-.61-11.42.173-22.993.203-34.72.09a1.16 1.16 0 0 0-1.12.81l-10.02 31.7a.641.641 0 0 0 .325.77c.091.046.192.07.295.07h42.02a1.841 1.841 0 0 0 1.76-1.3l8.64-27.93c.28-.907-.033-1.51-.94-1.81Zm-21.86 73.83a.704.704 0 0 0 .66-.49l10.06-32.05a.701.701 0 0 0-.67-.91l-42.9-.07a.699.699 0 0 0-.66.49l-10.06 32.06a.693.693 0 0 0 .101.621.692.692 0 0 0 .559.289l42.91.06ZM589.65 882l-4.3 13.85a.864.864 0 0 0 .126.771.871.871 0 0 0 .694.359l4.9.08 37.41.01a1.24 1.24 0 0 0 .73-.239c.211-.155.365-.373.44-.621l9.31-30.25a.783.783 0 0 0-.119-.698.792.792 0 0 0-.631-.322l-42.37-.08a1.15 1.15 0 0 0-1.1.81L589.65 882Zm19.21 53.85 7.74-.07c.301 0 .595-.097.838-.277.243-.18.422-.433.512-.723l8.63-27.93a.778.778 0 0 0-.397-.928.77.77 0 0 0-.353-.082l-29.57.11-12.83-.1c-.847-.007-1.393.393-1.64 1.2l-8.59 27.77a.74.74 0 0 0 .11.647.715.715 0 0 0 .58.293l34.97.09Z" />
	<path fill="#2466F8"
		d="m410.17 531.21-.35-1.79c-.14-.707-.26-.703-.36.01-.08.567-.373.973-.88 1.22a1.283 1.283 0 0 0-.52.45c-4.05 6.33-8.25 12.55-11.68 19.28a2746.648 2746.648 0 0 0-9.23 18.27c-3.46 6.92-7.05 14.95-9.08 21.62-.913 3.007-1.37 5.71-1.37 8.11.02 56.113-.017 112.227-.11 168.34 0 .68.25 1.783.75 3.31-24.34 19.927-40.91 33.547-49.71 40.86-3.6 2.993-7.037 5.39-10.31 7.19l-6.63 1.05c-7.93-.06-14.29-5.56-15.54-13.26-.14-.88-.207-3.797-.2-8.75.12-58.06.103-112.767-.05-164.12-.01-5.61 4.5-12.2 8.01-17.3 4.44-6.44 8.69-12.03 12.75-16.77a362.858 362.858 0 0 1 30.77-31.86 861.407 861.407 0 0 1 11.07-5.8c.193-.1.273-.24.24-.42-.067-.307-.25-.427-.55-.36-1.813.387-3.477.363-4.99-.07a1200.971 1200.971 0 0 0 18.2-18.79c3.14-3.313 6.43-6.413 9.87-9.3l12.06-10.22c.253-.213.417-.483.49-.81l.56-2.58L410.01 502l.16 29.21Z" />
	<path fill="#B4D9FD"
		d="M553.7 512.3c.08 3.98.623 8.023 1.63 12.13 1.5 6.09 5.39 9.5 10.17 13.47 1.45 1.21 3.86 2.62 5.3 3.04 4.72 1.367 9.46 2.787 14.22 4.26-6.19-.01-11.42.9-14.17 6.9a364.293 364.293 0 0 1-5 10.43.925.925 0 0 1-.82.53l-8 .3-33.24-.05 5.35-.42c.327-.027.517-.2.57-.52 3.207-19.267 2.773-38.507-1.3-57.72 5.69 4.34 10.3 8.96 18.08 8.63 3.013-.127 5.417-.453 7.21-.98Z" />
	<path fill="#FDCB7D"
		d="M566.72 508.56c1.32 2.733 2.12 5.473 2.4 8.22-1.8-.307-3.023-.163-3.67.43a.962.962 0 0 1-1.59-.53c-.587-2.96-.433-5.92.46-8.88.107-.367.35-.52.73-.46.633.1 1.19.507 1.67 1.22Z" />
	<path fill="#FAF9F9"
		d="M561.15 514.74c.08 2.06.15 6.17 1.84 7.56a25.709 25.709 0 0 1 4.19 4.38c1.42 1.9 3.487 3.29 6.2 4.17 4.253 1.38 8.52 2.71 12.8 3.99a16.04 16.04 0 0 0 4.9.66c1.687 3.12 4.213 4.06 7.58 2.82 1.19-.44 1.81-1.37 3-1.89l3.69 6.35c-.733 2.427-2.523 3.723-5.37 3.89-2.133.127-5.09-.067-8.87-.58l-6.09-.89c-4.76-1.473-9.5-2.893-14.22-4.26-1.44-.42-3.85-1.83-5.3-3.04-4.78-3.97-8.67-7.38-10.17-13.47-1.007-4.107-1.55-8.15-1.63-12.13 1.153-1.033 2.13-2.687 2.93-4.96a148.715 148.715 0 0 0 3.06 3.66c.167.193.353.36.56.5a.83.83 0 0 1 .39.64c.053.587 0 .597-.16.03a.696.696 0 0 0-.19-.32c-.513-.493-.633-.407-.36.26.333.807.74 1.683 1.22 2.63Z" />
	<path fill="#FE6D04"
		d="m382.4 511.88-.3 10.77a1.423 1.423 0 0 0 .995 1.4c.196.061.402.078.605.05l3.02-.38c1.453.147 1.317.87-.41 2.17-.713.533-1.24.943-1.58 1.23a47.296 47.296 0 0 1-5.72 4.13l-3.67-17.35c1.68-1.113 4.033-1.787 7.06-2.02Z" />
	<path fill="#FAF9F9"
		d="M692.14 570.76c-.24 1.2-.043 2.46.59 3.78 1.093 2.26 1.92 3.943 2.48 5.05.48.953.733 1.77.76 2.45.047 1.48-.473 2.267-1.56 2.36l-37.88-39.19c-.433-.453-.543-.973-.33-1.56.5-1.34 1.143-2.757 1.93-4.25 4.093-7.7 7.923-14.98 11.49-21.84.753-1.44 1.317-1.37 1.69.21 2.23 9.38 4.18 18.52 7.91 27.51 3.993 9.64 7.667 17.88 11.02 24.72.447.913 1.08 1.167 1.9.76Z" />
	<path fill="#FDCB7D"
		d="m393.38 518.72-.56 2.58a1.442 1.442 0 0 1-.49.81l-12.06 10.22c-.093-1.627-.513-1.987-1.26-1.08a47.296 47.296 0 0 0 5.72-4.13c.34-.287.867-.697 1.58-1.23 1.727-1.3 1.863-2.023.41-2.17 2.307-.907 4.527-2.573 6.66-5Z" />
	<path fill="#E3F1FB"
		d="M601.53 534.17c-.673-.887-.987-2.083-.94-3.59a1.192 1.192 0 0 0-.706-1.124 1.163 1.163 0 0 0-.454-.096l-9.07-.05c-.127-.553 0-1.427.38-2.62 1.487.733 3.45 1.133 5.89 1.2.92.027 1.51-.403 1.77-1.29a4.496 4.496 0 0 1 1.23-1.99.747.747 0 0 1 .806-.139.75.75 0 0 1 .454.679c.01 2.49-.41 4.73 2.68 5.49a.684.684 0 0 1 .493.477.69.69 0 0 1-.173.663l-2.36 2.39Z" />
	<path fill="#FDCB7D"
		d="m601.53 534.17.13 2.26c-1.19.52-1.81 1.45-3 1.89-3.367 1.24-5.893.3-7.58-2.82l-.58-2.82-.14-3.37 9.07.05a1.163 1.163 0 0 1 .835.363 1.192 1.192 0 0 1 .325.857c-.047 1.507.267 2.703.94 3.59Z" />
	<path fill="#1350CE"
		d="M410.17 531.21v30.62c0 1.06.53 1.583 1.59 1.57l23.53-.3 88.5.21 33.24.05 41.28.14c.298 0 .584.119.795.33.212.212.332.5.335.8 0 .627-.307.96-.92 1a91.202 91.202 0 0 1-7.02.19c-10.047-.087-20.18-.04-30.4.14l-26.9-.02-53.76.12h-.22l-22.64.01-46.71-.11a.661.661 0 0 0-.67.67l-.08 97.69a.76.76 0 0 0 .76.76l59.65-.06 7.01.09 17.61-.07c.553-.007.827-.283.82-.83a2650.092 2650.092 0 0 1-.09-44.28c.033-5.827 2.413-10.507 7.14-14.04 1.61-1.2 3.8-1.79 5.75-2.52a1.507 1.507 0 0 0 .97-1.41l-.09-21.05c0-.607.303-.917.91-.93l4.23-.09c.64-.013.96.303.96.95l-.02 20.84c-.96 2.72-1.43 5.91-1.41 9.57.113 19.947.077 52.613-.11 98-.013 3.64.087 11.493.3 23.56.07 3.86-.49 7.53-1.13 11.22a1.224 1.224 0 0 0 .21.93c3.01 4.29 3.53 13.65 2.51 18.69-.64 3.18-1.25 6.28-1.22 9.56.04 4.267-.05 8.647-.27 13.14-.02.347-.203.537-.55.57l-2.64.23c-8.3-1.06-15.41-7.42-15.38-16.2.033-12.647.057-25.433.07-38.36a.972.972 0 0 0-.593-.89.962.962 0 0 0-.367-.07c-11.847.087-23.813.107-35.9.06-.307 0-.82.133-1.54.4l-17.75-.25a1.048 1.048 0 0 1-1.03-1.06l.13-9.33a.451.451 0 0 0-.74-.36l-60.98 48.94c-.5-1.527-.75-2.63-.75-3.31.093-56.113.13-112.227.11-168.34 0-2.4.457-5.103 1.37-8.11 2.03-6.67 5.62-14.7 9.08-21.62a2746.648 2746.648 0 0 1 9.23-18.27c3.43-6.73 7.63-12.95 11.68-19.28.131-.196.311-.352.52-.45.507-.247.8-.653.88-1.22.1-.713.22-.717.36-.01l.35 1.79Zm84.96 136.86h-84.55a.541.541 0 0 0-.54.56c.22 7.447.247 14.477.08 21.09-.23 9.6 1.49 16.96 10.43 21.04 1.16.527 2.37.8 3.63.82 23.767.34 47.513.363 71.24.07a.592.592 0 0 0 .424-.179.612.612 0 0 0 .176-.431l-.08-42.16a.81.81 0 0 0-.81-.81Z" />
	<path fill="#9DCBFE"
		d="m585.02 545.2 6.09.89a77.383 77.383 0 0 0 4.47 6.32c2.25 2.87 3.26 5.7 3.88 9.18a235.344 235.344 0 0 0 6.53 27.09 1.767 1.767 0 0 0 1.32 1.22l9.5 2.03-5.68-.42-4-1.18c-8.607 4.273-16.143 9.337-22.61 15.19-2.62 2.36-4.41 5.47-2.12 8.07 5.26 5.98 10.473 11.973 15.64 17.98 1 1.5 2.33 2.65 2.74 4.43.54 2.37.23 4.89.58 7.37a176.313 176.313 0 0 0 4.08 20.6.646.646 0 0 1-.332.736.61.61 0 0 1-.278.064l-40.04.25 10.95-.91c.093-.007.153-.057.18-.15a.69.69 0 0 0-.01-.35.635.635 0 0 0-.35-.4c-5.46-2.44-5.43-8.36-5.5-13.63-.12-8.547-.293-17.11-.52-25.69-.047-1.573-.63-4.343-1.75-8.31-1.38-4.89-.34-10.24-.5-15.3-.267-8.793-.337-18.62-.21-29.48.033-2.92-1.96-4.533-5.98-4.84 10.22-.18 20.353-.227 30.4-.14a91.202 91.202 0 0 0 7.02-.19c.613-.04.92-.373.92-1a1.15 1.15 0 0 0-.334-.8 1.129 1.129 0 0 0-.796-.33l-41.28-.14 8-.3a.925.925 0 0 0 .82-.53 364.293 364.293 0 0 0 5-10.43c2.75-6 7.98-6.91 14.17-6.9Z" />
	<path fill="#C3E1FB"
		d="M605.35 542.78c2.433 4.7 6.24 7.667 11.42 8.9 1.167.28 2.313 1.553 3.44 3.82a115.154 115.154 0 0 1 4.35 9.93c2.84 7.39 7.02 13.49 11.73 19.77.947 1.26 1.977 1.72 3.09 1.38-.927 1.487-1.31 2.82-1.15 4l-.1.99c-.76.873-1.783 1.373-3.07 1.5-6.213.227-12.297-.153-18.25-1.14l-9.5-2.03a1.764 1.764 0 0 1-1.32-1.22 235.344 235.344 0 0 1-6.53-27.09c-.62-3.48-1.63-6.31-3.88-9.18a77.383 77.383 0 0 1-4.47-6.32c3.78.513 6.737.707 8.87.58 2.847-.167 4.637-1.463 5.37-3.89Z" />
	<path fill="#FDCB7D"
		d="m348.03 547.59-1.88 13.36c-.025.182-.012.367.038.544a1.333 1.333 0 0 0 .684.82c.164.082.344.128.528.136 1.74.06 3.34-.617 4.8-2.03 1.513.433 3.177.457 4.99.07.3-.067.483.053.55.36.033.18-.047.32-.24.42a861.407 861.407 0 0 0-11.07 5.8l-3.82.64a1.665 1.665 0 0 1-1.364-.389 1.652 1.652 0 0 1-.566-1.301c.05-1.81.93-2.89.95-4.74a69.623 69.623 0 0 0-1.14-13.4l7.54-.29Z" />
	<path fill="#E3F1FB"
		d="M457.58 566.07c.22 1.913.277 3.94.17 6.08-.113 2.073-.18 4.09-.2 6.05-.093 7.967-.09 16.127.01 24.48.07 5.72 1.84 10.99 8.6 10.94 9.15-.07 8.99-8.7 9.12-15.86.18-10.113.047-20.27-.4-30.47-.013-.32.137-.5.45-.54l4.89-.69h.22l6.95.33c.333.013.563.177.69.49 6.62 16.99 7.97 33.48 7.46 51.47-.42 14.93.04 30.1-.13 44.95a1.323 1.323 0 0 1-.373.903 1.305 1.305 0 0 1-.887.397c-6.093.273-12.197.21-18.31-.19a.817.817 0 0 1-.54-.251.794.794 0 0 1-.22-.549l-.18-28.92c.14-4.88.187-10 .14-15.36-.007-.827-.49-1.387-1.45-1.68a.931.931 0 0 0-.57.02c-.707.233-1.063.72-1.07 1.46-.087 12.28-.113 24.313-.08 36.1a35.92 35.92 0 0 1-1.34 9.79l-59.65.06a.756.756 0 0 1-.537-.223.756.756 0 0 1-.223-.537l.08-97.69a.676.676 0 0 1 .414-.622.661.661 0 0 1 .256-.048l46.71.11Z" />
	<path fill="#C3E1FB"
		d="m480.22 566.06-4.89.69c-.313.04-.463.22-.45.54.447 10.2.58 20.357.4 30.47-.13 7.16.03 15.79-9.12 15.86-6.76.05-8.53-5.22-8.6-10.94-.1-8.353-.103-16.513-.01-24.48.02-1.96.087-3.977.2-6.05.107-2.14.05-4.167-.17-6.08l22.64-.01ZM534.2 565.94c3.613 8.547 5.31 17.833 5.09 27.86-.12 5.327-.123 17.37-.01 36.13.06 9.85-2.08 22.49-2.84 34.97l-5.57-.01a.41.41 0 0 1-.41-.41c-.1-13.247-.037-26.827.19-40.74.067-4.42-.29-7.733-1.07-9.94-1.8-5.1-6.84-9.69-12.5-10.41-.527-.067-.877-.22-1.05-.46-.213-.307-.313-.723-.3-1.25l.02-20.84c0-.647-.32-.963-.96-.95l-4.23.09c-.607.013-.91.323-.91.93l.09 21.05a1.512 1.512 0 0 1-.97 1.41c-1.95.73-4.14 1.32-5.75 2.52-4.727 3.533-7.107 8.213-7.14 14.04-.093 14.913-.063 29.673.09 44.28.007.547-.267.823-.82.83l-17.61.07c-.947.093-1.773-.03-2.48-.37-.307-.147-.457-.387-.45-.72l.29-29.33.18 28.92c0 .204.078.4.219.549a.822.822 0 0 0 .541.251c6.113.4 12.217.463 18.31.19.335-.013.653-.155.887-.397.235-.242.368-.565.373-.903.17-14.85-.29-30.02.13-44.95.51-17.99-.84-34.48-7.46-51.47-.127-.313-.357-.477-.69-.49l-6.95-.33 53.76-.12Z" />
	<path fill="#B4D9FD"
		d="M561.1 565.96c4.02.307 6.013 1.92 5.98 4.84-.127 10.86-.057 20.687.21 29.48.16 5.06-.88 10.41.5 15.3 1.12 3.967 1.703 6.737 1.75 8.31.227 8.58.4 17.143.52 25.69.07 5.27.04 11.19 5.5 13.63.173.08.29.213.35.4a.69.69 0 0 1 .01.35c-.027.093-.087.143-.18.15l-10.95.91-28.35-.12c.76-12.48 2.9-25.12 2.84-34.97-.113-18.76-.11-30.803.01-36.13.22-10.027-1.477-19.313-5.09-27.86l26.9.02Z" />
	<path fill="#FDCB7D"
		d="M697.68 568.75c.847 5.913 2.863 11.54 6.05 16.88a1.277 1.277 0 0 1 .075 1.173 1.26 1.26 0 0 1-.915.727c-1.487.28-2.62.807-3.4 1.58-3.793.86-7.623 1.513-11.49 1.96-1.1.133-1.847.17-2.24.11-1.9-.287-1.97-.813-.21-1.58 1.713-.747 3.633-1.8 5.76-3.16l3.1-2.04c1.087-.093 1.607-.88 1.56-2.36-.027-.68-.28-1.497-.76-2.45-.56-1.107-1.387-2.79-2.48-5.05-.633-1.32-.83-2.58-.59-3.78 1.42-.927 3.267-1.597 5.54-2.01Z" />
	<path fill="#FE6D04"
		d="M638.23 590.58c-.16-1.18.223-2.513 1.15-4 2.347-.42 3.42-1.857 3.22-4.31a234.24 234.24 0 0 1-.49-7.79.803.803 0 0 1 .292-.666.797.797 0 0 1 .708-.164l4.38 1.03a2.296 2.296 0 0 1 1.68 2.86c-1.127 3.987-1.543 7.91-1.25 11.77a2.298 2.298 0 0 1-2.01 2.45c-2.633.32-5.193-.073-7.68-1.18Z" />
	<path fill="#1350CE"
		d="M607.13 590.33a421.81 421.81 0 0 1-2.04 16.86c-.38 2.667-1.85 4.013-4.41 4.04-1.033.007-1.763.423-2.19 1.25-.213.42-.16.803.16 1.15l3.14 3.32.61.81-1.2 15.45c-.027.327-.197.433-.51.32-.947-.36-1.83-1.013-2.65-1.96-5.167-6.007-10.38-12-15.64-17.98-2.29-2.6-.5-5.71 2.12-8.07 6.467-5.853 14.003-10.917 22.61-15.19Z" />
	<path fill="#2466F8"
		d="M611.13 591.51c2.22 1.147 4.743 1.74 7.57 1.78 3.273.04 6.54.22 9.8.54 2.267.22 4.453-.033 6.56-.76 1.287-.127 2.31-.627 3.07-1.5.06.107.2.203.42.29.28.1.403.3.37.6-.85 7.47-4.34 12.92-8.67 18.87-4.353 5.98-8.607 12.553-12.76 19.72-1.28 2.21-2.04 4.54-2.1 7.12a517.889 517.889 0 0 0-.11 9.58c-.013 2.513.047 4.497.18 5.95-.493 3.733-.553 7.25-.18 10.55.053.44.637.653 1.75.64-1.013.127-1.567 1.287-1.66 3.48-.007 4.133.047 8.34.16 12.62.033 1.273-.29 1.99-.97 2.15l-4.05.39c-.48-.007-.76-.177-.84-.51a730.473 730.473 0 0 0-3.28-13.99.888.888 0 0 0-.85-.68l-45.38-.31-29.05.25a.415.415 0 0 0-.297.126.435.435 0 0 0-.123.304l-.03 42.3c0 .313.133.547.4.7.193.113.41.147.65.1-.747.02-1.107.423-1.08 1.21a382.6 382.6 0 0 1 .12 17.97c-.007.333.157.5.49.5l32.3.12-31.7.13a1.222 1.222 0 0 0-.873.364 1.216 1.216 0 0 0-.357.876l.07 31.34.07 3.61c.227 3.393-.003 5.93-.69 7.61-3.34 8.127-9.553 11.993-18.64 11.6l2.64-.23c.347-.033.53-.223.55-.57.22-4.493.31-8.873.27-13.14-.03-3.28.58-6.38 1.22-9.56 1.02-5.04.5-14.4-2.51-18.69a1.228 1.228 0 0 1-.21-.93c.64-3.69 1.2-7.36 1.13-11.22-.213-12.067-.313-19.92-.3-23.56.187-45.387.223-78.053.11-98-.02-3.66.45-6.85 1.41-9.57-.013.527.087.943.3 1.25.173.24.523.393 1.05.46 5.66.72 10.7 5.31 12.5 10.41.78 2.207 1.137 5.52 1.07 9.94-.227 13.913-.29 27.493-.19 40.74a.41.41 0 0 0 .41.41l5.57.01 28.35.12 40.04-.25a.61.61 0 0 0 .499-.247.636.636 0 0 0 .111-.553 176.313 176.313 0 0 1-4.08-20.6c-.35-2.48-.04-5-.58-7.37-.41-1.78-1.74-2.93-2.74-4.43.82.947 1.703 1.6 2.65 1.96.313.113.483.007.51-.32l1.2-15.45c1.027-1.393 1.473-3.387 1.34-5.98a.658.658 0 0 0-.6-.62c-1.547-.14-2.897.18-4.05.96a.826.826 0 0 0-.336.906.845.845 0 0 0 .156.304l2.88 3.62-3.14-3.32c-.32-.347-.373-.73-.16-1.15.427-.827 1.157-1.243 2.19-1.25 2.56-.027 4.03-1.373 4.41-4.04a421.81 421.81 0 0 0 2.04-16.86l4 1.18Z" />
	<path fill="#62A1FF"
		d="M616.81 591.93c5.953.987 12.037 1.367 18.25 1.14-2.107.727-4.293.98-6.56.76-3.26-.32-6.527-.5-9.8-.54-2.827-.04-5.35-.633-7.57-1.78l5.68.42ZM602.4 617.76l-.61-.81-2.88-3.62a.835.835 0 0 1 .18-1.21c1.153-.78 2.503-1.1 4.05-.96a.656.656 0 0 1 .6.62c.133 2.593-.313 4.587-1.34 5.98Z" />
	<path fill="#C3E1FB"
		d="M745.744 617.546c1.002 1.875 3.236 2.637 4.989 1.7 1.754-.936 2.364-3.216 1.363-5.092-1.002-1.875-3.236-2.637-4.989-1.7-1.754.936-2.364 3.216-1.363 5.092Z" />
	<path fill="#9DCBFE"
		d="m474.9 634.69-.29 29.33c-.007.333.143.573.45.72.707.34 1.533.463 2.48.37l-7.01-.09a35.92 35.92 0 0 0 1.34-9.79c-.033-11.787-.007-23.82.08-36.1.007-.74.363-1.227 1.07-1.46.2-.067.39-.073.57-.02.96.293 1.443.853 1.45 1.68.047 5.36 0 10.48-.14 15.36Z" />
	<path fill="#2466F8"
		d="M686.78 802.7c-.08-3.487-.673-6.553-1.78-9.2a498.054 498.054 0 0 1-6.13-15.36c-1.173-3.1-1.633-5.283-1.38-6.55.347-1.74.79-3.5 1.33-5.28 7.85-26.06 15.91-53.78 23.86-78.72a3.835 3.835 0 0 1 2.49-2.49c3.75-1.19 8.6-2.62 11.47-4.91 7.1-5.66 7.47-12.74 3.9-20.36-2.12-4.52-4.4-9.18-5.73-13.9-1.57-5.51-.84-11.24-.99-16.89-.009-.299.07-.595.229-.849.158-.255.388-.457.661-.581 2.47-1.13 4.75-1.91 6.61-4.31.793-1.027 1.657-2.83 2.59-5.41 2.367 3.587 4.173 6.77 5.42 9.55.813 1.82 1.223 4.007 1.23 6.56.02 9.733-.017 18.823-.11 27.27-.08 7.79.05 15.6.04 23.32-.027 37.233-.017 74.467.03 111.7.007 6.54-.423 10.74-1.29 12.6-4.01 8.58-13.57 12.72-22.3 8.81-1.94-.86-4.543-2.617-7.81-5.27a604.809 604.809 0 0 0-12.34-9.73Z" />
	<path fill="#B4D9FD"
		d="M615.46 653.7c2.847 3.7 3.37 7.43 1.57 11.19-1.113.013-1.697-.2-1.75-.64-.373-3.3-.313-6.817.18-10.55Z" />
	<path fill="#478FFF" d="M738.04 673.51a4.4 4.4 0 1 0 0-8.8 4.4 4.4 0 0 0 0 8.8Z" />
	<path fill="#C3E1FB"
		d="M410.58 668.07h84.55a.81.81 0 0 1 .81.81l.08 42.16a.612.612 0 0 1-.176.431.592.592 0 0 1-.424.179c-23.727.293-47.473.27-71.24-.07a9.033 9.033 0 0 1-3.63-.82c-8.94-4.08-10.66-11.44-10.43-21.04.167-6.613.14-13.643-.08-21.09a.533.533 0 0 1 .329-.517.545.545 0 0 1 .211-.043ZM560.16 668.04c4.033 5.167 6.22 10.877 6.56 17.13.46 8.48-.56 17.07-.19 26.6l-34.82.05a.903.903 0 0 1-.65-.1.755.755 0 0 1-.4-.7l.03-42.3c0-.114.044-.223.123-.304a.415.415 0 0 1 .297-.126l29.05-.25Z" />
	<path fill="#B4D9FD"
		d="M610.51 683.53c-.54 1.22-1.11 2.43-1.24 3.76-.373 3.64-1.86 6.543-4.46 8.71a2.172 2.172 0 0 0-.7 1.12c-.313 1.26-.04 1.85.82 1.77 2.09-.19 3.53.08 4.88-1.73.241-.326.58-.57.97-.7 1.16-.387 2.1-.963 2.82-1.73.653-.7 1.033-1.753 1.14-3.16.213-2.913.153-5.723-.18-8.43.68-.16 1.003-.877.97-2.15-.113-4.28-.167-8.487-.16-12.62.573-.233 1.043-.257 1.41-.07.307.16.467.41.48.75.207 4.1.02 8.05-.56 11.85-.4 2.6-.587 5.107-.56 7.52.027 2.54.013 5.137-.04 7.79-.02 1.36-.517 3.337-1.49 5.93-1.59 4.24-5.41 7.42-9.61 8.78-1.593.52-4 .77-7.22.75-3.86-.02-7.723-.05-11.59-.09l-18.21.22-1.45-.03c-.37-9.53.65-18.12.19-26.6-.34-6.253-2.527-11.963-6.56-17.13l45.38.31a.889.889 0 0 1 .85.68c1.127 4.6 2.22 9.263 3.28 13.99.08.333.36.503.84.51Z" />
	<path fill="#2466F8"
		d="m867.89 678.5-.03 4.67a.706.706 0 0 1-.7.71l-7.48.1a.712.712 0 0 0-.7.69l-.21 7.5a.707.707 0 0 1-.71.69l-4.53-.04a.713.713 0 0 1-.7-.69l-.17-7.48a.713.713 0 0 0-.7-.69l-7.48-.04a.71.71 0 0 1-.71-.7l-.04-4.68a.73.73 0 0 1 .05-.273.726.726 0 0 1 .379-.389.705.705 0 0 1 .271-.058l7.52-.07a.713.713 0 0 0 .7-.69l.21-7.45a.707.707 0 0 1 .71-.69l4.54-.04a.73.73 0 0 1 .273.05.726.726 0 0 1 .389.379.705.705 0 0 1 .058.271l.17 7.46a.707.707 0 0 0 .71.69l7.47.06a.71.71 0 0 1 .71.71Z" />
	<path fill="#FDCB7D" d="M641.15 682c-1.227-1.807-2.967-2.907-5.22-3.3 3.43-3.1 5.16.15 5.22 3.3Z" />
	<path fill="#1350CE"
		d="M825.97 694.34a616.914 616.914 0 0 0-9.69-7.56c-2.2-1.68-3.973-1.46-5.32.66-2.467 3.88-3.977 8.243-4.53 13.09-.367.08-.717.007-1.05-.22a1.046 1.046 0 0 1-.46-.88c.02-1.347.34-2.653.96-3.92a1.152 1.152 0 0 0-.05-1.11 1.84 1.84 0 0 0-.72-.69c-.807-.427-1.233-1.097-1.28-2.01-.227-4.267 1.44-7.59 5-9.97 6.29-4.2 18.97-6.31 21.19 4.06.82 3.807-.53 6.657-4.05 8.55Z" />
	<path fill="#62A1FF" d="M278.97 688.61a4.99 4.99 0 1 0 0-9.98 4.99 4.99 0 0 0 0 9.98Z" />
	<path fill="#FE6D04"
		d="M635.93 678.7c2.253.393 3.993 1.493 5.22 3.3 1.06 1.44 1.78 2.93 2.16 4.47a2.27 2.27 0 0 1-1.46 2.69 21.577 21.577 0 0 0-5.25 2.69c-2.13 1.5-4.99 1.14-7.44 1.42a.717.717 0 0 1-.79-.59c-.173-.973.09-1.643.79-2.01a74.919 74.919 0 0 0 4.39-2.52c.287-.173.483-.42.59-.74.99-2.99-.24-5.67 1.79-8.71Z" />
	<path fill="#FDCB7D"
		d="M614.56 683.14c.333 2.707.393 5.517.18 8.43-.107 1.407-.487 2.46-1.14 3.16-.72.767-1.66 1.343-2.82 1.73-.39.13-.729.374-.97.7-1.35 1.81-2.79 1.54-4.88 1.73-.86.08-1.133-.51-.82-1.77.111-.436.355-.827.7-1.12 2.6-2.167 4.087-5.07 4.46-8.71.13-1.33.7-2.54 1.24-3.76l4.05-.39ZM825.97 694.34c-.8 2.567-1.99 4.837-3.57 6.81-.767.96-2.423 2.787-4.97 5.48-3.367 2.147-6.46 1.163-9.28-2.95l-1.72-3.15c.553-4.847 2.063-9.21 4.53-13.09 1.347-2.12 3.12-2.34 5.32-.66a616.914 616.914 0 0 1 9.69 7.56Z" />
	<path fill="#9DCBFE"
		d="M256.684 699.16c-.233.656.048 1.353.625 1.558.578.204 1.235-.161 1.467-.817.233-.656-.048-1.354-.625-1.559-.578-.204-1.235.162-1.467.818Z" />
	<path fill="#C3E1FB"
		d="M817.43 706.63c.34.5 1.01.79 2.01.87.927.073 1.61.21 2.05.41 4.81 2.15 6.38 6.65 7.7 11.41l-14.79.57a3.595 3.595 0 0 0-3.19 2.23l-7.69 18.6c-.673.3-1.01.69-1.01 1.17-2.44.67-3.86 1.94-2.99 4.63-.693 1.013-.797 2.053-.31 3.12.147.327.4.49.76.49l36.5.11-4.72.74a.479.479 0 0 0-.24.84c3.733 3.3 5.457 6.873 5.17 10.72-3.007.547-5.9.93-8.68 1.15a3386.26 3386.26 0 0 1-34.76 2.59l-.22 2.06c-.033.313-.093.32-.18.02-.64-2.25-1.14-4.34-.44-6.67a74.246 74.246 0 0 0 2.18-9.33 2.254 2.254 0 0 0-.245-1.438 2.276 2.276 0 0 0-1.075-.992c-4.44-1.96-12.07-4.99-11.41-11.18.22-2.067.723-4.163 1.51-6.29 1.98-5.353 4.403-10.79 7.27-16.31 1.5-2.893 3.36-5.457 5.58-7.69 2.527-2.547 6.507-4.14 11.94-4.78 2.82 4.113 5.913 5.097 9.28 2.95Z" />
	<path fill="#2466F8"
		d="m586.19 711.58.16 10.31c-.713 2.98-.877 5.937-.49 8.87a1.01 1.01 0 0 1-.233.782.999.999 0 0 1-.737.348l-15.84.3-1.52-.46a3.787 3.787 0 0 0 1.2-.7c.253-.227.38-.51.38-.85.07-6.9 1.33-13.06-1.13-18.38l18.21-.22Z" />
	<path fill="#1350CE"
		d="m566.53 711.77 1.45.03c2.46 5.32 1.2 11.48 1.13 18.38 0 .34-.127.623-.38.85a3.787 3.787 0 0 1-1.2.7l-3.99-.11-32.3-.12c-.333 0-.497-.167-.49-.5a382.6 382.6 0 0 0-.12-17.97c-.027-.787.333-1.19 1.08-1.21l34.82-.05Z" />
	<path fill="#9DCBFE"
		d="M255.798 713.801c.412-.315.524-.862.249-1.222s-.833-.396-1.245-.08c-.412.315-.524.862-.249 1.222s.833.396 1.245.08Z" />
	<path fill="#62A1FF"
		d="M280.81 718.19a.92.92 0 0 1 .457-.131.91.91 0 0 1 .923.911c0 .767-.323 1.2-.97 1.3a.817.817 0 0 1-.91-.58c-.187-.687-.02-1.187.5-1.5Z" />
	<path fill="#2466F8"
		d="m836.47 750.24-36.5-.11c-.36 0-.613-.163-.76-.49-.487-1.067-.383-2.107.31-3.12 3.38.78 5.9-2.07 8.45-3.7a.492.492 0 0 0 .091-.744.467.467 0 0 0-.241-.136c-1.2-.28-2.497-.323-3.89-.13-.5-.333-.637-.697-.41-1.09l7.69-18.6a3.596 3.596 0 0 1 3.19-2.23l14.79-.57c20.193-.2 34.38-.44 42.56-.72 2.267-.08 3.31.943 3.13 3.07-.6 6.88-1.723 13.877-3.37 20.99-.74 3.22-2.12 5.4-4.14 6.54-1.273.713-3.543 1.047-6.81 1-8.053-.113-16.083-.1-24.09.04Zm8.449-15.884c-.011-.663-.651-1.288-1.779-1.737-1.128-.449-2.651-.686-4.234-.659-.784.014-1.559.092-2.281.231a9.08 9.08 0 0 0-1.927.575c-.55.242-.985.525-1.279.834-.295.308-.444.636-.438.964.011.663.651 1.288 1.779 1.737 1.128.449 2.65.686 4.234.659a13.55 13.55 0 0 0 2.281-.23 9.137 9.137 0 0 0 1.927-.576c.55-.242.985-.525 1.279-.834.295-.308.444-.636.438-.964Z" />
	<path fill="#FAF9F9"
		d="m586.35 721.89 33.67 27.21a1.44 1.44 0 0 1 .47 1.56l-31.26 100c-.393-2.807-1.12-5.06-2.18-6.76-2.427-3.9-5.547-5.737-9.36-5.51-3.633.213-6.473 1.63-8.52 4.25-3.59 4.6-2.55 11.99 2.55 15.36 1.9 1.253 4.22 1.78 6.96 1.58 3-.22 6.08-1.677 9.24-4.37l-5.82 18.91c-1.58-.68-3.17-1.41-4.77-2.19-5.04-2.467-10.177-2.983-15.41-1.55-10.81 2.96-18.22 13.64-16.94 24.97 1.16 10.36 8.2 18.52 18.74 20.22 1.78.287 3.617.553 5.51.8l-9.33 29.9c-4.84-.94-7.44.55-11.44 3.5a1.13 1.13 0 0 1-.517.207 1.129 1.129 0 0 1-1.004-.394 1.118 1.118 0 0 1-.239-.503 3.997 3.997 0 0 1 .13-1.91 2.587 2.587 0 0 1 1.08-1.42c6.66-4.23 10.81-8.72 10.51-16.94-.127-3.413-.92-6.2-2.38-8.36-1.76-2.607-3.913-4.6-6.46-5.98-2.41-1.31-5.31-1.48-7.97-2a.595.595 0 0 1-.366-.224.618.618 0 0 1-.124-.416c.32-4.507.28-9.047-.12-13.62-.66-7.38.13-15.19-.16-22.67a1.142 1.142 0 0 1 .35-.863 1.135 1.135 0 0 1 .88-.307c7.97.71 10.21-4.71 10.04-11.66-.1-4.013-.08-7.887.06-11.62.27-7.41-3.21-13.65-11.19-13.44-.413.013-.617-.187-.61-.6l.17-27.1c.007-.427.203-.72.59-.88 3.41-1.45 5.37-4.19 5.35-7.96a5584.64 5584.64 0 0 1-.1-32.76.66.66 0 0 0-.67-.66l-14.96.25-.07-3.61c.387-.66.7-.893.94-.7.37.305.831.477 1.31.49 4.24.12 8.413.097 12.52-.07.347-.013.675-.156.92-.4.933-.953 2.027-1.473 3.28-1.56 4.307-.3 8.827-.467 13.56-.5 4.82-.02 5.73-3.48 5.71-7.61-.04-7.253.003-14.517.13-21.79l15.84-.3a.999.999 0 0 0 .97-1.13c-.387-2.933-.223-5.89.49-8.87Zm-24.99 84.19c-6.53-1.92-15.2 1.44-15.81 9.18-.333 4.187-.47 8.287-.41 12.3.027 2.02.563 3.667 1.61 4.94 4.127 5.033 9.267 6.473 15.42 4.32 13.71-4.79 13.24-26.59-.81-30.74Z" />
	<path fill="#9DCBFE"
		d="M511.42 787.15c9.087.393 15.3-3.473 18.64-11.6.687-1.68.917-4.217.69-7.61l14.96-.25a.656.656 0 0 1 .619.405.656.656 0 0 1 .051.255c0 10.433.033 21.353.1 32.76.02 3.77-1.94 6.51-5.35 7.96-.387.16-.583.453-.59.88l-.17 27.1c-.007.413.197.613.61.6 7.98-.21 11.46 6.03 11.19 13.44-.14 3.733-.16 7.607-.06 11.62.17 6.95-2.07 12.37-10.04 11.66a1.135 1.135 0 0 0-.88.307 1.127 1.127 0 0 0-.35.863c.29 7.48-.5 15.29.16 22.67.4 4.573.44 9.113.12 13.62a.601.601 0 0 0 .49.64c2.66.52 5.56.69 7.97 2 2.547 1.38 4.7 3.373 6.46 5.98 1.46 2.16 2.253 4.947 2.38 8.36.3 8.22-3.85 12.71-10.51 16.94a2.584 2.584 0 0 0-1.08 1.42c-.2.653-.243 1.29-.13 1.91a1.118 1.118 0 0 0 1.76.69c4-2.95 6.6-4.44 11.44-3.5l-4.26 15.65c-.587-.827-2.073-1.123-4.46-.89-.333.033-.63-.06-.89-.28a15.595 15.595 0 0 1-2.66-2.96c-5.22-7.53-18.14-8.95-26.54-8.09-5.527.567-10.297 2.9-14.31 7a1.584 1.584 0 0 1-1.001.47 1.562 1.562 0 0 1-1.059-.3c-5.38-3.947-11.313-5.19-17.8-3.73-3.13.7-6.22 2.66-8.25 5.2a.736.736 0 0 1-.65.267.743.743 0 0 1-.58-.397 24.608 24.608 0 0 0-4.43-6.1.827.827 0 0 1-.21-.87l.23-.79c.693-.287.987-.863.88-1.73-.14-1.12-.753-1.963-1.84-2.53-13.21-6.88-16.59-24.84-9.36-37.17 4.973-8.493 12.537-13.487 22.69-14.98a1.428 1.428 0 0 0 1.22-1.52c-.227-2.947-.257-5.667-.09-8.16.31-4.81 3.03-8.63 3.36-13.44.293-4.233.637-7.31 1.03-9.23 1.553-7.54 5.65-13.04 12.29-16.5a1.017 1.017 0 0 0 .54-.91c-.16-16.64-.087-34.023.22-52.15.02-.967-.443-1.35-1.39-1.15-.56.12-1.04.473-1.44 1.06a1.904 1.904 0 0 0-.33 1.1c.093 14.06.183 28.687.27 43.88.03 5.06-2.12 7.23-6.1 9.89-3.73 2.49-8.01 2.74-11.82.55-2.83-1.62-2.29-5.05-2.3-7.73 1.4-15.13 1.7-30.43.15-45.52-.387-3.72-.763-7.437-1.13-11.15l.45-15.32 14.57-.03c.427 0 .697-.207.81-.62.273-1.02.137-1.84-.41-2.46a1.177 1.177 0 0 0-.92-.42l-10.48-.07c-1.86.02-3.39.21-5.17-.62-4.6-2.14-9.38-1.73-14.25-1.57-5.98.2-7.36-4.09-7.21-9 .207-6.947.353-13.9.44-20.86.72-.267 1.233-.4 1.54-.4 12.087.047 24.053.027 35.9-.06a.943.943 0 0 1 .887.59.976.976 0 0 1 .073.37c-.013 12.927-.037 25.713-.07 38.36-.03 8.78 7.08 15.14 15.38 16.2Z" />
	<path fill="#9DCBFE"
		d="m563.54 731.62 3.99.11 1.52.46a948.472 948.472 0 0 0-.13 21.79c.02 4.13-.89 7.59-5.71 7.61-4.733.033-9.253.2-13.56.5-1.253.087-2.347.607-3.28 1.56a1.376 1.376 0 0 1-.92.4c-4.107.167-8.28.19-12.52.07a2.15 2.15 0 0 1-1.31-.49c-.24-.193-.553.04-.94.7l-.07-31.34a1.245 1.245 0 0 1 .357-.876 1.22 1.22 0 0 1 .873-.364l31.7-.13Z" />
	<path fill="#B4D9FD"
		d="M838.994 736.96c3.296-.058 5.949-1.224 5.925-2.604-.024-1.381-2.716-2.453-6.013-2.396-3.296.058-5.949 1.224-5.925 2.604.024 1.381 2.716 2.453 6.013 2.396Z" />
	<path fill="#2466F8"
		d="M676.53 741.06c-1.84 5.393-3.663 11.33-5.47 17.81-.207.733-.46 1.397-.76 1.99a.534.534 0 0 1-.731.217.523.523 0 0 1-.199-.197c-2.36-4.26-3.75-9.57-5.55-13.82a.783.783 0 0 1 .45-1.03c4.13-1.56 7.93-2.44 11.21-5.63 1.28-1.253 1.63-1.033 1.05.66Z" />
	<path fill="#62A1FF" d="M803.52 740.72c-.227.393-.09.757.41 1.09l-1.42.08c0-.48.337-.87 1.01-1.17Z" />
	<path fill="#FDCB7D"
		d="M799.52 746.52c-.87-2.69.55-3.96 2.99-4.63l1.42-.08c1.393-.193 2.69-.15 3.89.13a.473.473 0 0 1 .365.384.495.495 0 0 1-.215.496c-2.55 1.63-5.07 4.48-8.45 3.7Z" />
	<path fill="#2466F8"
		d="M648.99 770.97a.694.694 0 0 1-.49-.251.69.69 0 0 1-.15-.529c.28-2.193.397-4.333.35-6.42a623.972 623.972 0 0 1-.13-20.15.64.64 0 0 1 1.08-.46 11.786 11.786 0 0 1 2.31 2.98c3.04 5.607 5.68 11.537 7.92 17.79.68 1.9 1.71 3.68 2.71 5.44a1.02 1.02 0 0 1-.8 1.53c-4.16.347-8.427.37-12.8.07Z" />
	<path fill="#B4D9FD"
		d="M192 774.89c-1.08 3.28-2.88 4.247-5.4 2.9a2688.613 2688.613 0 0 1-6.63-16.74c-1.56-3.97-3.69-7.59-4.22-11.76-.24-1.887.64-2.81 2.64-2.77.7.013 1.243.313 1.63.9 1.267 1.933 2.37 4.17 3.31 6.71.607 1.653 2.16 5.217 4.66 10.69.47 1.02.54 2.31.98 3.21a108.21 108.21 0 0 1 3.03 6.86Z" />
	<path fill="#FDCB7D"
		d="M836.41 752.64a.542.542 0 0 1 .18-.29 1.77 1.77 0 0 1 .23-.176.36.36 0 0 1 .16-.064l19.3.18c.56 0 .81.28.75.84l-.04.35a.518.518 0 0 1-.53.47l-20.53-.26c-.327-.007-.457-.167-.39-.48a.86.86 0 0 1 .27-.46c.127-.107.26-.117.4-.03.107.073.173.047.2-.08Z" />
	<path fill="#FAF9F9"
		d="m629.48 756.82 16.56 13a.578.578 0 0 1-.02.934.58.58 0 0 1-.34.106l-21.05.12a.574.574 0 0 1-.468-.24.588.588 0 0 1-.104-.25.588.588 0 0 1 .022-.27l4.49-13.13a.583.583 0 0 1 .91-.27Z" />
	<path fill="#1350CE"
		d="m211.06 771.05-2.55 9.07-.95-1.2c-.48-1.347-.067-2.393 1.24-3.14.287-.167.367-.403.24-.71a44.173 44.173 0 0 0-1.41-3.15c-2.42-4.85 1.92-9.94 6.3-12.01 7.02-3.31 17.53-2.41 16.58 8.19-.14 1.546-.793 2.76-1.96 3.64-2.12 1.61-4.31 0-5.77-1.55a37.27 37.27 0 0 0-4.58-4.09c-3.66-2.77-5.81 1.59-7.14 4.95Z" />
	<path fill="#2466F8"
		d="M836.68 762.54c1.66 8.133 2.71 15.203 3.15 21.21 1.527 20.78 1.807 42.69.84 65.73l-8.46.26-.47.07c-.32-.38-.497-.733-.53-1.06-2.32-24.01-5.19-45.63-13.61-67.87a6.345 6.345 0 0 0-1.02-1.76.548.548 0 0 0-.558-.194.55.55 0 0 0-.412.424 72.203 72.203 0 0 0-1.01 5.71 590.439 590.439 0 0 0-5.06 58.19c-.06 1.607-.337 3.597-.83 5.97l-10.02-.13a2513.09 2513.09 0 0 1-1.2-31.09c-.2-6.36-.71-12.86-1.53-19.5l-1.9-20.57-.82-11.65a3386.26 3386.26 0 0 0 34.76-2.59c2.78-.22 5.673-.603 8.68-1.15Z" />
	<path fill="#E3F1FB"
		d="M480.33 767.74c1.86-.267 3.09-.763 3.69-1.49.44-.533.4-1.237-.12-2.11l10.48.07c.367 0 .673.14.92.42.547.62.683 1.44.41 2.46-.113.413-.383.62-.81.62l-14.57.03Z" />
	<path fill="#FDCB7D"
		d="M217.32 783.96c-3.553-.4-6.49-1.68-8.81-3.84l2.55-9.07c.54-.207 1.393-1.023 2.56-2.45 2.69-3.3 5.81.55 7.69 2.46 1.04 1.06 1.94 1 3.01 1.69 1.5.96 1.697 2.093.59 3.4-2.03 2.39-4.68 6.75-7.59 7.81Z" />
	<path fill="#C3E1FB"
		d="m207.56 778.92.95 1.2c2.32 2.16 5.257 3.44 8.81 3.84a11.804 11.804 0 0 0-.52 3.8c-1.187.14-1.923.607-2.21 1.4a300.326 300.326 0 0 1-9.52 23.14 1.842 1.842 0 0 0-.18.98c.027.293.103.57.23.83.5.98.2 1.493-.9 1.54-1.333.067-2.22.6-2.66 1.6a1.181 1.181 0 0 0 1.01 1.64c5.693.333 11.523.247 17.49-.26a.93.93 0 0 0 .76-.47 5.046 5.046 0 0 0 .69-1.98l2.68 1.43c.293.153.48.39.56.71l2.42 9.57-3.55 2.31c-4.427 1.033-9.757 1.673-15.99 1.92-8.12.327-15.183.14-21.19-.56-1.64-2.153-2.05-4.12-1.23-5.9a272.051 272.051 0 0 1 5.22-10.69 2.269 2.269 0 0 0-.56-2.77c-3.74-3.16-7.403-7.757-10.99-13.79-2.34-3.93-1.18-8.06 3.06-10.15 1.933-.953 3.91-1.873 5.93-2.76 1.34-.587 1.693-1.54 1.06-2.86l-2.33-4.85c2.52 1.347 4.32.38 5.4-2.9l2.21 5.75a2.434 2.434 0 0 0 1.172 1.296 2.434 2.434 0 0 0 1.738.174c3.3-.9 6.593-1.547 9.88-1.94.42-.053.607-.47.56-1.25Z" />
	<path fill="#B4D9FD"
		d="M766.95 782.15a2.83 2.83 0 1 0 0-5.66 2.83 2.83 0 0 0 0 5.66ZM795.96 798.5l-30.98 76.42c-.127.307-.023.477.31.51.253.027.577-.033.97-.18a57.95 57.95 0 0 0-10.51 16.48c-1.1 2.6-2.217 5.2-3.35 7.8-.653 1.487-1.49 2.31-2.51 2.47-1.367.207-2.763.48-4.19.82 1.973-.893 3.233-2.023 3.78-3.39 2.92-7.333 6.083-15.617 9.49-24.85 2.06-5.593 4.52-11.763 7.38-18.51a838.7 838.7 0 0 0 10.3-25.47c1.96-5.08 4.44-9.73 6.41-14.75 2.327-5.92 4.68-11.997 7.06-18.23.22-.587.97-2.323 2.25-5.21 1.04-2.347 1.547-4.19 1.52-5.53-.053-2.967.003-5.95.17-8.95l1.9 20.57Z" />
	<path fill="#FAF9F9"
		d="m831.74 849.81.15 1.12.67 9.46c-.42.493-.647 1.103-.68 1.83.187-1.16-.147-1.943-1-2.35-5.667-2.727-11.573-4.04-17.72-3.94l-4.4-.18c-.34-.013-.497-.19-.47-.53l.42-6c.493-2.373.77-4.363.83-5.97a590.439 590.439 0 0 1 5.06-58.19 72.203 72.203 0 0 1 1.01-5.71.546.546 0 0 1 .412-.424.544.544 0 0 1 .558.194c.447.553.787 1.14 1.02 1.76 8.42 22.24 11.29 43.86 13.61 67.87.033.327.21.68.53 1.06ZM663.21 782.28c.907.3 1.22.903.94 1.81l-8.64 27.93a1.84 1.84 0 0 1-1.76 1.3h-42.02a.654.654 0 0 1-.643-.542.615.615 0 0 1 .023-.298l10.02-31.7a1.165 1.165 0 0 1 1.12-.81c11.727.113 23.3.083 34.72-.09 1.04-.01 2.04-.07 2.91.61a10.821 10.821 0 0 0 3.33 1.79Z" />
	<path fill="#B4D9FD"
		d="M479.88 783.06c.367 3.713.743 7.43 1.13 11.15 1.55 15.09 1.25 30.39-.15 45.52l-.03-5.05a.858.858 0 0 0-.88-.85c-3.13.05-6.47.38-9.42-.51-4.72-1.42-9.13-5.79-9.67-11.01-1.1-10.83 6.99-18.05 17.61-16.94a1.18 1.18 0 0 0 .932-.297 1.223 1.223 0 0 0 .408-.903l.07-21.11Z" />
	<path fill="#FE6D04"
		d="M425.78 807.1c-2.353-.74-4.367-.713-6.04.08-4.04 4.05-8.57 8.33-10.04 13.79-.67 2.49-.49 6.95-3.17 8.21-2.83 1.32-6.85 2.28-9.96 1.19-8.71-3.07-8.6-14.06-2.71-19.71 3.45-3.3 7.73-5.32 9.06-10.52.607-2.387 1.213-4.77 1.82-7.15 1.5-5.9 5.51-7.23 11.36-6.9 2.5.14 4.967.33 7.4.57a1.476 1.476 0 0 1 1.271 1.075c.052.191.065.39.039.585-.44 3.32 1.2 5.77 1.35 9.01.147 3.073.02 6.33-.38 9.77Z" />
	<path fill="#1350CE"
		d="m216.8 787.76 42.71.13c.353 0 .6.16.74.48a5.809 5.809 0 0 1 .43 3.35c-.773 4.967-1.833 10.143-3.18 15.53-.83 3.31-2.15 7.76-6.3 7.89-10.073.3-18.64.387-25.7.26-1.573-.033-2.903.227-3.99.78a5.046 5.046 0 0 1-.69 1.98.93.93 0 0 1-.76.47c-5.967.507-11.797.593-17.49.26a1.185 1.185 0 0 1-.929-.559 1.173 1.173 0 0 1-.081-1.081c.44-1 1.327-1.533 2.66-1.6 1.1-.047 1.4-.56.9-1.54a2.37 2.37 0 0 1-.23-.83 1.842 1.842 0 0 1 .18-.98 300.326 300.326 0 0 0 9.52-23.14c.287-.793 1.023-1.26 2.21-1.4Zm21.026 13.991c-.017-.331-.334-.633-.88-.839-.546-.206-1.277-.3-2.031-.26a6.088 6.088 0 0 0-1.085.152 4.181 4.181 0 0 0-.909.319c-.258.13-.46.278-.596.437-.135.159-.2.325-.191.489.017.331.334.633.88.839.546.206 1.277.3 2.031.26a6.088 6.088 0 0 0 1.085-.152c.342-.081.651-.189.909-.319s.46-.278.596-.437c.135-.159.2-.325.191-.489Z" />
	<path fill="#FE6D04"
		d="M459.27 795.66c-.6-.773-1.427-1.437-2.48-1.99 2.013-3.1 5.033-4.907 9.06-5.42a.888.888 0 0 1 .97.65c.273 1.053-.033 1.973-.92 2.76-2.213 1.973-4.423 3.307-6.63 4Z" />
	<path fill="#B4D9FD"
		d="M684.55 801.02c-.927.313-1.16.887-.7 1.72 1.193 2.14 2.193 4.16 3 6.06a6674.4 6674.4 0 0 1 36.22 86.44 218.736 218.736 0 0 0 3.77 8.65c1.293 2.793 2.597 5.633 3.91 8.52l-5.9 6.28a206.193 206.193 0 0 0-6.12-15.92 7050.363 7050.363 0 0 0-5.73-13.19 10589.56 10589.56 0 0 0-32.9-78.91 352.595 352.595 0 0 1-7.19-18.54l11.64 8.89Z" />
	<path fill="#C3E1FB"
		d="M456.79 793.67c1.053.553 1.88 1.217 2.48 1.99.94.427 1.037 1.283.29 2.57-.74 1.28-1.58 2.39-2.52 3.33-6.933 6.92-15.217 12.423-24.85 16.51-2.973 1.26-4.89 3.673-5.75 7.24-.96 3.96-1.247 7.69-.86 11.19.667 6.1 1.36 12.187 2.08 18.26-.193-.693-.58-.983-1.16-.87a91.216 91.216 0 0 1-26 1.43c-3.94-.347-8.433-1.933-13.48-4.76.9-1.54 1.783-2.93 2.65-4.17 2.66-3.773 5.33-7.607 8.01-11.5.64-.94 2.13-2.07 3.27-2.21 2.84-.34 5.423-1.33 7.75-2.97.36-.251.613-.629.71-1.06.64-2.89 1.02-5.4 2.46-8.17 1.107-2.14 2.24-4.26 3.4-6.36 1.2-2.18 3.15-4.43 4.47-6.94 1.673-.793 3.687-.82 6.04-.08a41.503 41.503 0 0 0 13.04-5.04c5.78-3.433 10.773-6.187 14.98-8.26 1.247-.613 2.243-.657 2.99-.13Z" />
	<path fill="#FAF9F9"
		d="M795.96 798.5c.82 6.64 1.33 13.14 1.53 19.5.34 10.473.74 20.837 1.2 31.09l1.06 7.51-12.78 3.86c-8.02 3.407-14.923 8.337-20.71 14.79-.393.147-.717.207-.97.18-.333-.033-.437-.203-.31-.51l30.98-76.42Z" />
	<path fill="#9DCBFE"
		d="M235.045 803.148c1.572-.082 2.817-.708 2.781-1.397-.036-.69-1.34-1.182-2.911-1.099-1.572.082-2.817.708-2.781 1.397.036.689 1.34 1.182 2.911 1.099ZM561.36 806.08c14.05 4.15 14.52 25.95.81 30.74-6.153 2.153-11.293.713-15.42-4.32-1.047-1.273-1.583-2.92-1.61-4.94-.06-4.013.077-8.113.41-12.3.61-7.74 9.28-11.1 15.81-9.18Z" />
	<path fill="#E3F1FB"
		d="M229.07 817.12c1.9-.113 3.417-.07 4.55.13 1.88.333 1.867.547-.04.64-1.293.06-2.88-.017-4.76-.23-.013 0-.02-.007-.02-.02l.01-.25c.007-.167.093-.257.26-.27ZM317.32 818.08c-1.633 1.367-2.703 2.547-3.21 3.54-2.45 4.77-4.98 9.45-7.05 14.42a1853.475 1853.475 0 0 1-8.56 20.25c-.447 1.047-1.05 3.063-1.81 6.05l-2.61-2.27a1.544 1.544 0 0 0-.88-.38l-2.17-.23c1.547-1.727 2.803-3.7 3.77-5.92 2.62-6.03 4.84-11.5 7.9-17.9 2.56-5.36 4.42-11.75 7.99-16.51l6.63-1.05Z" />
	<path fill="#FAF9F9"
		d="m641.35 856.11-42.91-.06a.701.701 0 0 1-.66-.91l10.06-32.06a.696.696 0 0 1 .66-.49l42.9.07a.698.698 0 0 1 .693.585c.018.109.01.22-.023.325l-10.06 32.05a.7.7 0 0 1-.66.49Z" />
	<path fill="#B4D9FD"
		d="M227.17 827.89c4.28 9.11 8.13 18.32 12.52 27.64 1.373 2.913 2.467 5.567 3.28 7.96 2.03 5.95 4.79 11.21 6.87 17.02a104.727 104.727 0 0 0 7.06 15.59c.827 1.493 1.43 3.83 1.81 7.01a7.151 7.151 0 0 0-3.85.61c-2.373-4.347-3.84-7.25-4.4-8.71-2.73-7.16-6.16-14.05-8.76-21.1-1.59-4.32-3.8-8.31-5.48-12.68-1.433-3.76-2.827-7.447-4.18-11.06-1.87-4.97-4.29-9.73-6.35-14.67a.677.677 0 0 0-.391-.38.673.673 0 0 0-.539.03c-.093.047-.11.263-.05.65l-1.09-5.6 3.55-2.31Z" />
	<path fill="#1350CE"
		d="m223.62 830.2 1.09 5.6a787.185 787.185 0 0 0 10.15 67.01c-3.367-.04-6.26.47-8.68 1.53-.74-1.027-1.513-2.663-2.32-4.91-6.333-17.6-12.047-34.97-17.14-52.11-.393-1.327-.797-1.33-1.21-.01-3.59 11.56-5.24 23.81-6.34 35.69-.427 4.68-.793 11.973-1.1 21.88-3.007-.5-5.837-.37-8.49.39-.247-.54-.41-1.217-.49-2.03-1.78-17.807-2.973-34.303-3.58-49.49-.28-6.993.03-14.39.93-22.19 6.007.7 13.07.887 21.19.56 6.233-.247 11.563-.887 15.99-1.92Z" />
	<path fill="#9DCBFE"
		d="M257.5 838.83a1.25 1.25 0 1 0 0-2.5 1.25 1.25 0 0 0 0 2.5ZM589.23 850.66l-1.31 4.55c-3.16 2.693-6.24 4.15-9.24 4.37-2.74.2-5.06-.327-6.96-1.58-5.1-3.37-6.14-10.76-2.55-15.36 2.047-2.62 4.887-4.037 8.52-4.25 3.813-.227 6.933 1.61 9.36 5.51 1.06 1.7 1.787 3.953 2.18 6.76ZM438.494 861.367c-3.454 13.648 4.598 27.457 17.983 30.844 13.385 3.387 27.036-4.931 30.489-18.578 3.453-13.648-4.598-27.457-17.983-30.844-13.385-3.387-27.036 4.931-30.489 18.578Z" />
	<path fill="#B4D9FD"
		d="M739.713 845.472c.592-.285.919-.835.729-1.228-.189-.393-.822-.481-1.415-.196-.592.285-.918.835-.729 1.228.189.393.822.481 1.415.196Z" />
	<path fill="#FAF9F9"
		d="M226.18 904.34c.08.753-.073 1.353-.46 1.8-7.453-1.547-14.11-1.263-19.97.85-4.027 1.453-6.72 2.333-8.08 2.64l.4-4.75c.307-9.907.673-17.2 1.1-21.88 1.1-11.88 2.75-24.13 6.34-35.69.413-1.32.817-1.317 1.21.01 5.093 17.14 10.807 34.51 17.14 52.11.807 2.247 1.58 3.883 2.32 4.91Z" />
	<path fill="#FE6D04"
		d="m808.71 849.22-.42 6c-.027.34.13.517.47.53l4.4.18-13.41.67-1.06-7.51 10.02.13ZM840.67 849.48c-.533 3.5-1.097 6.923-1.69 10.27-.367 2.12.343 3.307 2.13 3.56 1.78.253 3.503.747 5.17 1.48l-12.88.13c-.353 0-.59-.163-.71-.49-.427-1.14-.47-2.487-.13-4.04l-.67-9.46c.333-.527.44-.923.32-1.19l8.46-.26Z" />
	<path fill="#FDCB7D" d="M832.21 849.74c.12.267.013.663-.32 1.19l-.15-1.12.47-.07Z" />
	<path fill="#62A1FF"
		d="M427.66 854.76c-.793.953-1.197 1.753-1.21 2.4-1.193-.48-2.69-.597-4.49-.35-2.86.393-4.333.593-4.42.6a81.03 81.03 0 0 1-26.92-2.95.997.997 0 0 0-.89.18l-.72.57c.407-.793-.257-2.343-1.99-4.65 5.047 2.827 9.54 4.413 13.48 4.76 8.733.767 17.4.29 26-1.43.58-.113.967.177 1.16.87Z" />
	<path fill="#2466F8" d="M862.57 866.8a6.49 6.49 0 1 0 0-12.98 6.49 6.49 0 0 0 0 12.98Z" />
	<path fill="#C3E1FB" d="M324.2 865.06a5.58 5.58 0 1 0 0-11.16 5.58 5.58 0 0 0 0 11.16Z" />
	<path fill="#2466F8"
		d="M426.45 857.16c.727 9.733.737 19.103.03 28.11a237.877 237.877 0 0 0 .67 43.85c.727 6.707 1.477 13.413 2.25 20.12.093.773.02 1.777-.22 3.01a6.734 6.734 0 0 0-3.86.07c-1.027.373-1.687-.023-1.98-1.19a1512.09 1512.09 0 0 0-7.13-26.98c-3.23-11.75-4.46-19.97-6.1-33.08-.48-3.207-1.09-6.11-1.83-8.71-.873-3.073-1.86-3.11-2.96-.11-1.053 2.86-1.867 6.523-2.44 10.99l-3.53 20.49-4.54 24.04-2.04 13.95c-.607.213-1.1.217-1.48.01a13.914 13.914 0 0 0-3.58-1.37c-.62-.1-.887-.803-.8-2.11.293-4.313.363-8.267.21-11.86.353-22.24.453-44.12.3-65.64-.027-4.533.503-9.713 1.59-15.54l.72-.57a.982.982 0 0 1 .89-.18 81.03 81.03 0 0 0 26.92 2.95c.087-.007 1.56-.207 4.42-.6 1.8-.247 3.297-.13 4.49.35Z" />
	<path fill="#478FFF"
		d="M813.16 855.93c6.147-.1 12.053 1.213 17.72 3.94.853.407 1.187 1.19 1 2.35-.407 2.447.63 3.733 3.11 3.86 5.107.253 9.197.257 12.27.01l-3.29.65c-.313.06-.45.247-.41.56 2.44 21.1 2.79 41.11 2.9 64.46.073 16.173-.15 28.427-.67 36.76-.027.367-.223.55-.59.55-7.08.007-14.087.237-21.02.69-.387.027-.393.093-.02.2.093.02.207.03.34.03 5.693-.18 11.38-.077 17.06.31l-54.77.05-32.73-.52c-1.18-.013-1.247-.29-.2-.83 7.45-3.82 7.81-10.47 7.63-17.9-.46-18.93-.64-38.41 1.03-57.4 1.5-17.04 11.43-24.4 24.45-33.24l12.78-3.86 13.41-.67Z" />
	<path fill="#C3E1FB"
		d="m291.03 859.46 2.17.23c.333.033.627.16.88.38l2.61 2.27c2.34 4.973.697 8.417-4.93 10.33l-5.28-2.34c-2.4-5.327-.883-8.95 4.55-10.87Z" />
	<path fill="#62A1FF"
		d="M786.97 860.46c-13.02 8.84-22.95 16.2-24.45 33.24-1.67 18.99-1.49 38.47-1.03 57.4.18 7.43-.18 14.08-7.63 17.9-1.047.54-.98.817.2.83l32.73.52-106.82-.05a.805.805 0 0 1-.748-.5.805.805 0 0 1-.062-.31c-.113-13.687 5.267-24.113 16.14-31.28 7.25-4.77 13.93-5.28 22.25-5.87.393-.027.653-.227.78-.6 1.553-4.8 3.727-9.15 6.52-13.05l5.9-6.28c4.6-4.187 9.583-7.383 14.95-9.59a51.071 51.071 0 0 1 4.19-.82c1.02-.16 1.857-.983 2.51-2.47 1.133-2.6 2.25-5.2 3.35-7.8a57.95 57.95 0 0 1 10.51-16.48c5.787-6.453 12.69-11.383 20.71-14.79Z" />
	<path fill="#FDCB7D"
		d="M832.56 860.39c-.34 1.553-.297 2.9.13 4.04.12.327.357.49.71.49l12.88-.13c.913.147 1.397.703 1.45 1.67-.42-.1-.577-.223-.47-.37-3.073.247-7.163.243-12.27-.01-2.48-.127-3.517-1.413-3.11-3.86.033-.727.26-1.337.68-1.83Z" />
	<path fill="#FAF9F9"
		d="M591.07 897.06c.527-4.56.567-7.523.12-8.89a44.157 44.157 0 0 1-1.54-6.17l5.09-16.33a1.152 1.152 0 0 1 1.1-.81l42.37.08a.786.786 0 0 1 .773.657.783.783 0 0 1-.023.363l-9.31 30.25a1.203 1.203 0 0 1-.44.621 1.247 1.247 0 0 1-.73.239l-37.41-.01Z" />
	<path fill="#377DFE"
		d="M847.26 866.09c-.107.147.05.27.47.37 2.09 2.92 5.41 5.08 8.06 7.5 6.007 5.5 10.723 11.88 14.15 19.14a.654.654 0 0 0 .495.372.659.659 0 0 0 .585-.202c6.127-6.533 13.72-9.52 22.78-8.96l-.74.17c-.533.12-.537.263-.01.43 2.68.84 5.5.89 8.11 2.09 1.54.693 3.007 1.39 4.4 2.09 1.28.64 2.03 1.86 3.36 2.65 4.21 2.49 6.46 7.63 8.67 11.9.034.065.086.12.148.159a.416.416 0 0 0 .419.005.404.404 0 0 0 .153-.154c.08-.147.097-.37.05-.67 3.77 9.19 1.31 20.16-4.69 27.7a.694.694 0 0 0-.126.629.689.689 0 0 0 .446.461l2.33.8c1.533 1.5 3.403 2.697 5.61 3.59 2.62 8.53 3.8 16.35-.3 24.69a77.057 77.057 0 0 1-4.37 7.73.858.858 0 0 1-.77.43c-8.44.06-16.887.117-25.34.17-2.653.013-6.107.393-10.36 1.14l-39.23-.02c-5.68-.387-11.367-.49-17.06-.31a1.65 1.65 0 0 1-.34-.03c-.373-.107-.367-.173.02-.2 6.933-.453 13.94-.683 21.02-.69.367 0 .563-.183.59-.55.52-8.333.743-20.587.67-36.76-.11-23.35-.46-43.36-2.9-64.46-.04-.313.097-.5.41-.56l3.29-.65Z" />
	<path fill="#9DCBFE"
		d="m582.1 874.12-12.87 42.25c-1.893-.247-3.73-.513-5.51-.8-10.54-1.7-17.58-9.86-18.74-20.22-1.28-11.33 6.13-22.01 16.94-24.97 5.233-1.433 10.37-.917 15.41 1.55 1.6.78 3.19 1.51 4.77 2.19Z" />
	<path fill="#E3F1FB"
		d="M291.76 872.67c-2.14 3.973-4.35 8.713-6.63 14.22-5.507 13.34-9.293 22.637-11.36 27.89-1.267 3.227-1.71 6.06-1.33 8.5-3.7-2.047-7.85-2.8-12.45-2.26 1.167-.353 2.417-.47 3.75-.35a1.007 1.007 0 0 0 .84-.32c1.147-1.22 1.917-2.333 2.31-3.34 5.1-12.947 8.883-22.12 11.35-27.52 3.833-8.387 6.58-14.773 8.24-19.16l5.28 2.34ZM410.11 891.07c-2.433 2.22-4.843 2.943-7.23 2.17.573-4.467 1.387-8.13 2.44-10.99 1.1-3 2.087-2.963 2.96.11.74 2.6 1.35 5.503 1.83 8.71Z" />
	<path fill="#9DCBFE"
		d="M589.65 882a44.157 44.157 0 0 0 1.54 6.17c.447 1.367.407 4.33-.12 8.89l-4.9-.08a.882.882 0 0 1-.39-.097.869.869 0 0 1-.43-1.033l4.3-13.85Z" />
	<path fill="#1350CE"
		d="M893.8 884.31c11.96 1.32 20.147 7.543 24.56 18.67.047.3.03.523-.05.67a.407.407 0 0 1-.72-.01c-2.21-4.27-4.46-9.41-8.67-11.9-1.33-.79-2.08-2.01-3.36-2.65-1.393-.7-2.86-1.397-4.4-2.09-2.61-1.2-5.43-1.25-8.11-2.09-.527-.167-.523-.31.01-.43l.74-.17Z" />
	<path fill="#B4D9FD"
		d="M426.48 885.27c-.033 1.093.177 1.903.63 2.43.213.26.49.393.83.4 5.567.127 10.553 2.48 14.96 7.06 4.22 4.38 6.297 9.813 6.23 16.3-.093 9.74-.12 19.653-.08 29.74.013 3.773-1.36 6.877-4.12 9.31a1.35 1.35 0 0 1-.87.35c-1.22.067-2.217.27-2.99.61-1.233.547-1.177.857.17.93.387.02.96.017 1.72-.01.333-.013.637-.12.91-.32l4.88-3.6c9.54.433 15.6.523 18.18.27 1.933-.187 2.647-.667 2.14-1.44.74.787 1.517 1.64 2.33 2.56.42.467.963.663 1.63.59l-.23.79c-.1.333-.03.623.21.87a24.608 24.608 0 0 1 4.43 6.1.748.748 0 0 0 .58.397.736.736 0 0 0 .65-.267c2.03-2.54 5.12-4.5 8.25-5.2 6.487-1.46 12.42-.217 17.8 3.73.305.225.681.332 1.059.3a1.584 1.584 0 0 0 1.001-.47c4.013-4.1 8.783-6.433 14.31-7 8.4-.86 21.32.56 26.54 8.09.76 1.1 1.647 2.087 2.66 2.96.26.22.557.313.89.28 2.387-.233 3.873.063 4.46.89l-2.28 7.57a.723.723 0 0 0 .05.54l.14.26c-26.94-.253-53.873-.283-80.8-.09-14 .09-29.34-.51-43-.4-11.527.093-21.443.117-29.75.07-14.04-.08-28.5.36-42.44.27-1.86-.013-2.71-.98-2.55-2.9.96-11.3 6.12-19.97 15.48-26.01 5.013-3.233 10.557-4.847 16.63-4.84.153 3.593.083 7.547-.21 11.86-.087 1.307.18 2.01.8 2.11l-.47.18c-.333.133-.49.38-.47.74.113 2.773-.317 5.513-1.29 8.22a1.458 1.458 0 0 0 .089 1.188 1.47 1.47 0 0 0 .941.732l2.02.5c.36.087.697.23 1.01.43 2.567 1.633 5.173 2.157 7.82 1.57 2.287-.513 2.323-1.16.11-1.94a21.69 21.69 0 0 0-3.09-.83c-3.14-.59-4.01-4.18-3.37-6.92.32-1.367.907-2.203 1.76-2.51l2.04-13.95 4.28.4a.912.912 0 0 0 .926-.546.908.908 0 0 0 .074-.374c-.147-6.74.017-13.64.49-20.7a9.707 9.707 0 0 0-.01-1.59c-.153-1.787-.56-2.197-1.22-1.23l3.53-20.49c2.387.773 4.797.05 7.23-2.17 1.64 13.11 2.87 21.33 6.1 33.08a1512.09 1512.09 0 0 1 7.13 26.98c.293 1.167.953 1.563 1.98 1.19l-.61 9.74c-.02.367.137.627.47.78 3.893 1.753 7.423 2.217 10.59 1.39a1.322 1.322 0 0 0 .83-.66c.067-.12.117-.247.15-.38.18-.753-.117-1.137-.89-1.15-5.807-.08-8.033-3.343-6.68-9.79.24-1.233.313-2.237.22-3.01a2988.645 2988.645 0 0 1-2.25-20.12 237.877 237.877 0 0 1-.67-43.85Z" />
	<path fill="#FE6D04"
		d="m234.86 902.81.66 6.55c-3.62-.347-6.887-1.42-9.8-3.22.387-.447.54-1.047.46-1.8 2.42-1.06 5.313-1.57 8.68-1.53ZM258.71 903.11c8.16 2.43 4.59 14.2-2.59 12.05-5.36-1.59-5.53-8.44-1.26-11.44a7.151 7.151 0 0 1 3.85-.61ZM198.07 904.88l-.4 4.75c-.373.707-.93 1.293-1.67 1.76-1.5.487-2.927 1.15-4.28 1.99-.267.167-.557.193-.87.08l-1.27-8.19c2.653-.76 5.483-.89 8.49-.39Z" />
	<path fill="#478FFF"
		d="M225.72 906.14c2.913 1.8 6.18 2.873 9.8 3.22a144.11 144.11 0 0 0 4.85 3.02c2.827 1.687 5.927 4.953 9.3 9.8-.8 15.613-.75 31.153.15 46.62l-57.03 1.02-6.54.34c-1.267.067-1.86-.53-1.78-1.79l3.19-49.9c1.46-.953 2.603-2.13 3.43-3.53 1.59-1.54 3.34-1.43 4.91-3.55.74-.467 1.297-1.053 1.67-1.76 1.36-.307 4.053-1.187 8.08-2.64 5.86-2.113 12.517-2.397 19.97-.85Z" />
	<path fill="#9DCBFE"
		d="M596.26 905.95c5.627 2.84 9.633 6.68 12.02 11.52 2.853 5.813 3.047 11.94.58 18.38l-34.97-.09a.719.719 0 0 1-.711-.603.74.74 0 0 1 .021-.337l8.59-27.77c.247-.807.793-1.207 1.64-1.2l12.83.1Z" />
	<path fill="#FAF9F9"
		d="M608.86 935.85c2.467-6.44 2.273-12.567-.58-18.38-2.387-4.84-6.393-8.68-12.02-11.52l29.57-.11a.772.772 0 0 1 .631.315.778.778 0 0 1 .119.695l-8.63 27.93c-.09.29-.269.543-.512.723-.243.18-.537.277-.838.277l-7.74.07Z" />
	<path fill="#1350CE" d="M959.01 919.75a6.77 6.77 0 1 0 0-13.54 6.77 6.77 0 0 0 0 13.54Z" />
	<path fill="#FDCB7D"
		d="M196 911.39c-1.57 2.12-3.32 2.01-4.91 3.55.067-.433-.013-.927-.24-1.48.313.113.603.087.87-.08a19.508 19.508 0 0 1 4.28-1.99Z" />
	<path fill="#FAF9F9"
		d="m394.81 937.77 4.54-24.04c.66-.967 1.067-.557 1.22 1.23.047.533.05 1.063.01 1.59-.473 7.06-.637 13.96-.49 20.7a.908.908 0 0 1-1 .92l-4.28-.4Z" />
	<path fill="#62A1FF"
		d="m187.66 918.47-3.19 49.9c-.08 1.26.513 1.857 1.78 1.79l6.54-.34-.08.49-55.25-.22a.753.753 0 0 1-.75-.76c.1-9.967 5.023-16.75 14.77-20.35 2.713-1.007 5.623-1.507 8.73-1.5a1.715 1.715 0 0 0 1.6-1.09c2.387-5.973 6.473-10.5 12.26-13.58 1.78-.95 7.06-1.7 7.98-4.56a26.652 26.652 0 0 1 5.61-9.78Z" />
	<path fill="#377DFE"
		d="m249.67 922.18 1.75 2.43a.76.76 0 0 0 .557.315.764.764 0 0 0 .603-.215c2.04-1.966 4.51-3.196 7.41-3.69 4.6-.54 8.75.214 12.45 2.26 6.78 5.54 9.94 14.57 4.94 22.39-.24.38-.35.703-.33.97.027.347.163.684.41 1.01.153.867.823 1.69 2.01 2.47.273.18.433.433.48.76l2.49 18.01c.047.327.233.5.56.52l13.8.89-27.11.11c-.047-1-1.283-1.537-3.71-1.61a272.08 272.08 0 0 0-16.16 0c-.9-15.467-.95-31.007-.15-46.62Z" />
	<path fill="#2466F8" d="M330.48 941.25a6.55 6.55 0 1 0-.001-13.101 6.55 6.55 0 0 0 .001 13.101Z" />
	<path fill="#9DCBFE" d="M654.7 948.96a8.59 8.59 0 1 0 0-17.18 8.59 8.59 0 0 0 0 17.18Z" />
	<path fill="#1350CE"
		d="M916.32 932.57c10.96 3.987 19.39 11.24 25.29 21.76a12.525 12.525 0 0 1-3.8-3.44c-1.773-2.433-2.777-3.773-3.01-4.02-2.56-2.73-4.86-5.37-8.01-7.48a471.761 471.761 0 0 0-4.86-3.23c-2.207-.893-4.077-2.09-5.61-3.59Z" />
	<path fill="#2466F8"
		d="M941.61 954.33c.74.947 1.363 2.197 1.87 3.75a1.087 1.087 0 0 0 1.113.747c.16-.011.317-.058.457-.137 1.85-1.05 3.46-2.52 5.4-3.36 7.373-3.187 14.477-2.983 21.31.61 5.26 2.76 9 7.85 9.47 13.85a.622.622 0 0 1-.62.67l-99.82-.14c4.253-.747 7.707-1.127 10.36-1.14 8.453-.053 16.9-.11 25.34-.17.333 0 .59-.143.77-.43a77.057 77.057 0 0 0 4.37-7.73c4.1-8.34 2.92-16.16.3-24.69a471.761 471.761 0 0 1 4.86 3.23c3.15 2.11 5.45 4.75 8.01 7.48.233.247 1.237 1.587 3.01 4.02a12.525 12.525 0 0 0 3.8 3.44Z" />
	<path fill="#62A1FF"
		d="M625.08 944.34c7.26 5.91 8.82 15.17 8.24 23.76a2.153 2.153 0 0 1-.685 1.431 2.134 2.134 0 0 1-1.475.569l-13.92-.09c2.193-8.927 4.807-17.483 7.84-25.67Z" />
	<path fill="#9DCBFE"
		d="M469.07 947.3c.507.773-.207 1.253-2.14 1.44-2.58.253-8.64.163-18.18-.27 5.56-4.63 14.19-5.61 20.32-1.17ZM607.73 970.22l-16.72-.05-1.03-.65a.903.903 0 0 1-.43-.74c-.39-7.25-3.68-15.06-10.72-18.11-1.393-.607-4.46-1.727-9.2-3.36-.007-.933.25-1.663.77-2.19.233-.24.517-.36.85-.36l42.41-.15c.98 0 1.333.473 1.06 1.42l-6.99 24.19Z" />
	<path fill="#1350CE" d="M127.69 960.23a6.54 6.54 0 1 0 0-13.08 6.54 6.54 0 0 0 0 13.08Z" />
	<path fill="#B4D9FD"
		d="m591.01 970.17-28.27.05 6.89-22.91c4.74 1.633 7.807 2.753 9.2 3.36 7.04 3.05 10.33 10.86 10.72 18.11.02.32.163.567.43.74l1.03.65Z" />
	<path fill="#2466F8"
		d="M277.46 947.65c2.48.82 4.013 1.41 4.6 1.77 4.853 3 8.737 6.863 11.65 11.59.507.82 1.153.957 1.94.41 7.52-5.2 19.43-2.34 20.75 7.93.1.793-.247 1.183-1.04 1.17l-18.56-.22-13.8-.89c-.327-.02-.513-.193-.56-.52l-2.49-18.01a1.05 1.05 0 0 0-.48-.76c-1.187-.78-1.857-1.603-2.01-2.47Z" />
	<path fill="#FDCB7D"
		d="M387.71 950.36c1.227.28 2.42.737 3.58 1.37.38.207.873.203 1.48-.01-.853.307-1.44 1.143-1.76 2.51-.64 2.74.23 6.33 3.37 6.92a21.69 21.69 0 0 1 3.09.83c2.213.78 2.177 1.427-.11 1.94-2.647.587-5.253.063-7.82-1.57-.313-.2-.65-.343-1.01-.43l-2.02-.5a1.48 1.48 0 0 1-.941-.732 1.464 1.464 0 0 1-.089-1.188c.973-2.707 1.403-5.447 1.29-8.22-.02-.36.137-.607.47-.74l.47-.18ZM429.18 952.25c-1.353 6.447.873 9.71 6.68 9.79.773.013 1.07.397.89 1.15-.033.133-.083.26-.15.38a1.32 1.32 0 0 1-.83.66c-3.167.827-6.697.363-10.59-1.39-.333-.153-.49-.413-.47-.78l.61-9.74a6.734 6.734 0 0 1 3.86-.07Z" />
	<path fill="#1350CE"
		d="m269.69 970.41-76.98-.1.08-.49 57.03-1.02c5.333-.16 10.72-.16 16.16 0 2.427.073 3.663.61 3.71 1.61Z" />
	<g clip-path="url(#a)">
		<path fill="url(#b)"
			d="m515.287 249.813 11.74 11.546a2.742 2.742 0 0 1 0 3.924 2.854 2.854 0 0 1-3.99 0l-7.75-7.621a2.854 2.854 0 0 0-3.99 0l-19.489 19.168a2.743 2.743 0 0 0 0 3.925l19.489 19.168a2.854 2.854 0 0 0 3.99 0l7.75-7.622a2.854 2.854 0 0 1 3.99 0 2.742 2.742 0 0 1 0 3.924l-11.74 11.547a2.854 2.854 0 0 1-3.99 0l-27.47-27.017a2.741 2.741 0 0 1 0-3.925l27.469-27.017a2.855 2.855 0 0 1 3.991 0Z" />
		<path fill="url(#c)"
			d="M531.018 269.208a2.854 2.854 0 0 1 3.99 0l7.749 7.622a2.741 2.741 0 0 1 0 3.925l-7.749 7.621a2.852 2.852 0 0 1-3.99 0 2.742 2.742 0 0 1 0-3.924l3.758-3.697a2.74 2.74 0 0 0 0-3.924l-3.758-3.697a2.744 2.744 0 0 1 0-3.926Z" />
		<path fill="#61DAFB"
			d="M512.686 279.714c0 .397.161.777.449 1.057.287.281.676.438 1.083.438a1.55 1.55 0 0 0 1.083-.438c.287-.28.448-.66.448-1.057 0-.396-.161-.777-.448-1.057a1.554 1.554 0 0 0-2.166 0c-.288.28-.449.661-.449 1.057Z" />
		<path fill="#61DAFB"
			d="M526.059 279.351c0-1.739-1.949-3.246-4.977-4.157.763-3.207.494-5.73-.942-6.6-1.439-.869-3.657.147-5.922 2.443-2.266-2.296-4.483-3.312-5.922-2.443-1.437.87-1.706 3.396-.943 6.6-3.028.911-4.977 2.418-4.977 4.157 0 1.739 1.949 3.246 4.977 4.157-.763 3.204-.494 5.73.943 6.599a2.25 2.25 0 0 0 1.193.322c1.048 0 2.318-.604 3.696-1.778.344-.294.689-.626 1.033-.975.343.349.689.681 1.032.975 1.378 1.174 2.645 1.778 3.696 1.778.438 0 .84-.106 1.194-.322 1.436-.869 1.705-3.392.942-6.599 3.028-.911 4.977-2.418 4.977-4.157Zm-6.434-9.821c.932.565 1.127 2.612.464 5.395a23.031 23.031 0 0 0-3.149-.515 25.282 25.282 0 0 0-2.002-2.603c1.563-1.587 3.015-2.448 4.013-2.448a1.26 1.26 0 0 1 .674.171Zm-2.107 11.82c-.364.665-.75 1.302-1.143 1.911-.689.056-1.408.086-2.157.086-.748 0-1.466-.03-2.155-.086a30.24 30.24 0 0 1-2.149-3.91c.301-.654.634-1.321 1.006-2a31.1 31.1 0 0 1 1.146-1.913 26.585 26.585 0 0 1 2.154-.086c.747 0 1.466.03 2.155.086.388.598.773 1.235 1.145 1.91a31.47 31.47 0 0 1 1.006 2 32.37 32.37 0 0 1-1.008 2.002Zm1.552-.731c.296.737.539 1.443.74 2.119-.658.155-1.365.288-2.121.388.246-.402.486-.812.721-1.236.233-.426.452-.85.66-1.271Zm-4.852 5.509a23.659 23.659 0 0 1-1.379-1.734c.452.022.911.036 1.379.036.467 0 .926-.014 1.378-.036a23.923 23.923 0 0 1-1.378 1.734Zm-3.472-3.002a21.74 21.74 0 0 1-2.12-.388c.2-.676.443-1.382.739-2.119.209.421.425.845.66 1.271.235.421.475.831.721 1.236Zm-1.381-5.044a23.769 23.769 0 0 1-.739-2.118 21.51 21.51 0 0 1 2.117-.388 29.475 29.475 0 0 0-1.378 2.506Zm4.853-5.508c.456.518.918 1.102 1.375 1.736a28.142 28.142 0 0 0-1.375-.036c-.468 0-.924.014-1.376.036.457-.634.919-1.218 1.376-1.736Zm4.19 4.237a37.856 37.856 0 0 0-.719-1.235c.756.1 1.46.233 2.118.388a24.422 24.422 0 0 1-.739 2.118 29.763 29.763 0 0 0-.66-1.271Zm-9.597-7.281c.19-.116.417-.171.675-.171.998 0 2.448.861 4.011 2.448a25.497 25.497 0 0 0-2.001 2.603 23.097 23.097 0 0 0-3.15.515c-.663-2.786-.465-4.832.465-5.395Zm-5.405 9.821c0-1.13 1.592-2.332 4.224-3.119.293.997.676 2.044 1.149 3.119a26.395 26.395 0 0 0-1.149 3.118c-2.632-.786-4.224-1.991-4.224-3.118Zm9.13 8.46c-1.576 1.344-2.933 1.839-3.725 1.363-.932-.565-1.128-2.612-.465-5.395.969.233 2.025.407 3.15.515a25.736 25.736 0 0 0 2.001 2.609c-.32.324-.639.634-.961.908Zm7.089 1.363c-.79.479-2.149-.017-3.726-1.363a17.013 17.013 0 0 1-.963-.908 25.449 25.449 0 0 0 2.001-2.609 22.484 22.484 0 0 0 3.15-.518c.665 2.786.467 4.833-.462 5.398Zm1.183-6.705a26.045 26.045 0 0 0-1.149-3.118c.47-1.075.855-2.122 1.149-3.119 2.632.79 4.224 1.992 4.224 3.119-.003 1.127-1.595 2.332-4.224 3.118Z" />
	</g>
	<defs>
		<linearGradient id="b" x1="537.663" x2="479.351" y1="278.792" y2="278.792" gradientUnits="userSpaceOnUse">
			<stop stop-color="#47B4E0" />
			<stop offset=".172" stop-color="#1588E0" />
			<stop offset="1" stop-color="#6EB4E0" />
		</linearGradient>
		<linearGradient id="c" x1="536.887" x2="536.887" y1="289.189" y2="268.396" gradientUnits="userSpaceOnUse">
			<stop offset=".032" stop-color="#F0776F" />
			<stop offset=".503" stop-color="#F0656F" />
			<stop offset="1" stop-color="#F0606F" />
		</linearGradient>
		<clipPath id="a">
			<path fill="#fff" d="M483 249h61v60h-61z" />
		</clipPath>
	</defs>
</svg>
