<svg fill="none" xmlns="http://www.w3.org/2000/svg" viewBox="0 0 85 84">
<path d="M44.9903 1.13755L61.3489 17.3023C62.8848 18.82 62.8848 21.2797 61.3489 22.7966C59.813 24.3143 57.3238 24.3143 55.7888 22.7966L44.9903 12.127C43.4544 10.6093 40.9652 10.6093 39.4302 12.127L12.2732 38.9622C10.7372 40.4799 10.7372 42.9396 12.2732 44.4565L39.4302 71.2917C40.9661 72.8094 43.4553 72.8094 44.9903 71.2917L55.7888 60.6213C57.3247 59.1036 59.8139 59.1036 61.3489 60.6213C62.8848 62.139 62.8848 64.5987 61.3489 66.1156L44.9903 82.2803C43.4544 83.798 40.9652 83.798 39.4302 82.2803L1.15193 44.4565C-0.383976 42.9388 -0.383976 40.4791 1.15193 38.9622L39.4293 1.13838C40.9652 -0.379323 43.4553 -0.379322 44.9903 1.13755Z" fill="url(#paint0_linear_1_12)"/>
<path d="M66.91 28.2918C68.4459 26.7741 70.9351 26.7741 72.4702 28.2918L83.2686 38.9622C84.8045 40.4799 84.8045 42.9396 83.2686 44.4565L72.4702 55.127C70.9343 56.6447 68.445 56.6447 66.91 55.127C65.3741 53.6093 65.3741 51.1495 66.91 49.6327L72.1474 44.4573C73.6833 42.9396 73.6833 40.4799 72.1474 38.963L66.91 33.7877C65.3741 32.2692 65.3741 29.8095 66.91 28.2918Z" fill="url(#paint1_linear_1_12)"/>
<path d="M41.3659 43C41.3659 43.5551 41.5907 44.0875 41.9909 44.48C42.3912 44.8725 42.934 45.093 43.5 45.093C44.066 45.093 44.6088 44.8725 45.0091 44.48C45.4093 44.0875 45.6342 43.5551 45.6342 43C45.6342 42.4449 45.4093 41.9125 45.0091 41.52C44.6088 41.1275 44.066 40.907 43.5 40.907C42.934 40.907 42.3912 41.1275 41.9909 41.52C41.5907 41.9125 41.3659 42.4449 41.3659 43Z" fill="#61DAFB"/>
<path d="M60 42.4911C60 40.0563 57.285 37.947 53.0652 36.6714C54.1284 32.1816 53.7532 28.6495 51.7518 27.432C49.7468 26.2146 46.6565 27.6375 43.5 30.8517C40.3435 27.6375 37.2532 26.2146 35.2482 27.432C33.2468 28.6495 32.8716 32.1855 33.9348 36.6714C29.7151 37.947 27 40.0563 27 42.4911C27 44.926 29.7151 47.0352 33.9348 48.3108C32.8716 52.7968 33.2468 56.3328 35.2482 57.5502C35.7411 57.8527 36.3003 58 36.911 58C38.3716 58 40.1411 57.1548 42.0615 55.5108C42.5398 55.0998 43.0217 54.6346 43.5 54.146C43.9783 54.6346 44.4602 55.0998 44.9385 55.5108C46.8589 57.1548 48.6247 58 50.089 58C50.6997 58 51.2589 57.8527 51.7518 57.5502C53.7532 56.3328 54.1284 52.8007 53.0652 48.3108C57.285 47.0352 60 44.926 60 42.4911ZM51.0344 28.7425C52.3331 29.5335 52.6054 32.3988 51.6819 36.2954C50.3318 35.9697 48.8602 35.7254 47.293 35.5742C46.3843 34.221 45.4462 32.9997 44.5043 31.9296C46.6823 29.708 48.7057 28.5022 50.0963 28.5022C50.4495 28.4983 50.7659 28.5797 51.0344 28.7425ZM48.0987 45.2905C47.591 46.221 47.0538 47.1128 46.5057 47.9658C45.5455 48.0433 44.5448 48.086 43.5 48.086C42.4589 48.086 41.4582 48.0433 40.498 47.9658C39.9462 47.1128 39.4127 46.2171 38.905 45.2905C38.3863 44.3406 37.9227 43.4062 37.5033 42.4911C37.9227 41.5761 38.3863 40.6417 38.905 39.6918C39.4237 38.7419 39.9609 37.854 40.5017 37.0126C41.4619 36.9351 42.4625 36.8924 43.5037 36.8924C44.5448 36.8924 45.5455 36.9351 46.5057 37.0126C47.0465 37.8501 47.5836 38.7419 48.1023 39.6879C48.6211 40.6378 49.0846 41.5722 49.504 42.4873C49.0809 43.4062 48.6174 44.3406 48.0987 45.2905ZM50.2619 44.2669C50.6739 45.2982 51.0124 46.2869 51.292 47.233C50.3759 47.4501 49.39 47.6362 48.3378 47.7758C48.6799 47.2136 49.0147 46.6398 49.3421 46.0465C49.6659 45.4495 49.9712 44.8562 50.2619 44.2669ZM43.5 51.9787C42.8488 51.2343 42.2087 50.4239 41.5796 49.5515C42.2087 49.5826 42.8488 49.602 43.5 49.602C44.1512 49.602 44.7913 49.5826 45.4204 49.5515C44.7913 50.4239 44.1512 51.2343 43.5 51.9787ZM38.6622 47.7758C37.61 47.6362 36.6278 47.4501 35.708 47.233C35.9876 46.2869 36.3261 45.2982 36.7381 44.2669C37.0288 44.8562 37.3304 45.4495 37.6579 46.0465C37.9853 46.6359 38.3201 47.2097 38.6622 47.7758ZM36.7381 40.7154C36.3261 39.684 35.9876 38.6953 35.708 37.7493C36.6241 37.5322 37.6064 37.3461 38.6585 37.2065C38.3201 37.7648 37.9816 38.3386 37.6579 38.9357C37.3341 39.5328 37.0288 40.126 36.7381 40.7154ZM43.5 33.0036C44.1365 33.7286 44.7803 34.5467 45.4167 35.4346C44.7876 35.4036 44.1512 35.3842 43.5 35.3842C42.8488 35.3842 42.2124 35.4036 41.5833 35.4346C42.2197 34.5467 42.8635 33.7286 43.5 33.0036ZM49.3385 38.9357C49.011 38.3425 48.6763 37.7687 48.3378 37.2065C49.39 37.3461 50.3722 37.5322 51.2883 37.7493C51.0087 38.6953 50.6702 39.684 50.2582 40.7154C49.9712 40.126 49.6659 39.5328 49.3385 38.9357ZM35.9656 28.7425C36.2304 28.5797 36.5468 28.5022 36.9074 28.5022C38.298 28.5022 40.3177 29.708 42.4957 31.9296C41.5538 32.9997 40.6157 34.2249 39.707 35.5742C38.1435 35.7254 36.6682 35.9697 35.3181 36.2954C34.3946 32.3949 34.6706 29.5296 35.9656 28.7425ZM28.4348 42.4911C28.4348 40.9092 30.6532 39.2265 34.3211 38.1254C34.7294 39.5212 35.2629 40.9868 35.9214 42.4911C35.2666 43.9955 34.7294 45.4611 34.3211 46.8569C30.6532 45.7558 28.4348 44.0692 28.4348 42.4911ZM41.1565 54.336C38.9602 56.2165 37.0692 56.9105 35.9656 56.2436C34.6669 55.4527 34.3946 52.5874 35.3181 48.6908C36.6682 49.0165 38.1398 49.2608 39.707 49.412C40.6047 50.7496 41.5428 51.9748 42.4957 53.0643C42.0505 53.5179 41.6054 53.9522 41.1565 54.336ZM51.0344 56.2436C49.9344 56.9144 48.0398 56.2204 45.8435 54.336C45.3983 53.9522 44.9495 53.5179 44.5007 53.0643C45.4572 51.9748 46.3916 50.7496 47.2893 49.412C48.8528 49.2608 50.3281 49.0165 51.6783 48.6869C52.6054 52.5874 52.3294 55.4527 51.0344 56.2436ZM52.6826 46.8569C52.2742 45.4611 51.7408 43.9955 51.0823 42.4911C51.7371 40.9868 52.2742 39.5212 52.6826 38.1254C56.3505 39.2304 58.5689 40.9131 58.5689 42.4911C58.5652 44.0692 56.3468 45.7558 52.6826 46.8569Z" fill="#61DAFB"/>
<defs>
<linearGradient id="paint0_linear_1_12" x1="76.1703" y1="41.7094" x2="-5.08475" y2="41.7094" gradientUnits="userSpaceOnUse">
<stop stop-color="#47B4E0"/>
<stop offset="0.1718" stop-color="#1588E0"/>
<stop offset="1" stop-color="#6EB4E0"/>
</linearGradient>
<linearGradient id="paint1_linear_1_12" x1="75.0889" y1="56.2647" x2="75.0889" y2="27.1539" gradientUnits="userSpaceOnUse">
<stop offset="0.0322" stop-color="#F0776F"/>
<stop offset="0.5032" stop-color="#F0656F"/>
<stop offset="1" stop-color="#F0606F"/>
</linearGradient>
</defs>
</svg>
